<?xml version="1.0" encoding="UTF-8" standalone="no"?>
<!-- Created with Inkscape (http://www.inkscape.org/) -->

<svg
   xmlns:dc="http://purl.org/dc/elements/1.1/"
   xmlns:cc="http://creativecommons.org/ns#"
   xmlns:rdf="http://www.w3.org/1999/02/22-rdf-syntax-ns#"
   xmlns:svg="http://www.w3.org/2000/svg"
   xmlns="http://www.w3.org/2000/svg"
   xmlns:sodipodi="http://sodipodi.sourceforge.net/DTD/sodipodi-0.dtd"
   xmlns:inkscape="http://www.inkscape.org/namespaces/inkscape"
   sodipodi:docname="fourSlitPattern.svg"
   inkscape:version="0.47 r22583"
   version="1.1"
   id="svg2876"
   height="209.99998"
   width="352.99997">
  <sodipodi:namedview
     id="base"
     pagecolor="#ffffff"
     bordercolor="#666666"
     borderopacity="1.0"
     inkscape:pageopacity="0.0"
     inkscape:pageshadow="2"
     inkscape:zoom="2.0000001"
     inkscape:cx="229.70363"
     inkscape:cy="128.76705"
     inkscape:document-units="px"
     inkscape:current-layer="layer1"
     showgrid="false"
     inkscape:window-width="1920"
     inkscape:window-height="1000"
     inkscape:window-x="0"
     inkscape:window-y="27"
     inkscape:window-maximized="1" />
  <defs
     id="defs2878">
    <marker
       style="overflow:visible"
       id="Arrow1Mend"
       refX="0"
       refY="0"
       orient="auto"
       inkscape:stockid="Arrow1Mend">
      <path
         transform="matrix(-0.4,0,0,-0.4,-4,0)"
         style="fill-rule:evenodd;stroke:#000000;stroke-width:1pt;marker-start:none"
         d="M 0,0 5,-5 -12.5,0 5,5 0,0 z"
         id="path3598" />
    </marker>
    <marker
       style="overflow:visible"
       id="DotM"
       refX="0"
       refY="0"
       orient="auto"
       inkscape:stockid="DotM">
      <path
         transform="matrix(0.4,0,0,0.4,2.96,0.4)"
         style="fill-rule:evenodd;stroke:#000000;stroke-width:1pt;marker-start:none;marker-end:none"
         d="m -2.5,-1 c 0,2.76 -2.24,5 -5,5 -2.76,0 -5,-2.24 -5,-5 0,-2.76 2.24,-5 5,-5 2.76,0 5,2.24 5,5 z"
         id="path3654" />
    </marker>
    <inkscape:perspective
       id="perspective2884"
       inkscape:persp3d-origin="372.04724 : 350.78739 : 1"
       inkscape:vp_z="744.09448 : 526.18109 : 1"
       inkscape:vp_y="0 : 1000 : 0"
       inkscape:vp_x="0 : 526.18109 : 1"
       sodipodi:type="inkscape:persp3d" />
  </defs>
  <metadata
     id="metadata2881">
    <rdf:RDF>
      <cc:Work
         rdf:about="">
        <dc:format>image/svg+xml</dc:format>
        <dc:type
           rdf:resource="http://purl.org/dc/dcmitype/StillImage" />
        <dc:title />
      </cc:Work>
    </rdf:RDF>
  </metadata>
  <g
     transform="translate(-4.2142859,-9.255337)"
     id="layer1"
     inkscape:groupmode="layer"
     inkscape:label="Layer 1">
    <path
       inkscape:transform-center-x="-136.99776"
       sodipodi:nodetypes="cc"
       id="path4468"
       d="m 12.131524,186.68401 341.939086,0"
       style="color:#000000;fill:none;stroke:#000000;stroke-width:1.32599998;stroke-linecap:butt;stroke-linejoin:miter;stroke-miterlimit:4;stroke-opacity:1;stroke-dasharray:none;stroke-dashoffset:0;marker:none;marker-end:url(#Arrow1Mend);visibility:visible;display:inline;overflow:visible;enable-background:accumulate" />
    <path
       inkscape:transform-center-y="-136.99776"
       style="color:#000000;fill:none;stroke:#000000;stroke-width:1.32599998;stroke-linecap:butt;stroke-linejoin:miter;stroke-miterlimit:4;stroke-opacity:1;stroke-dasharray:none;stroke-dashoffset:0;marker:none;marker-end:url(#Arrow1Mend);visibility:visible;display:inline;overflow:visible;enable-background:accumulate"
       d="m 179.47674,185.46548 0,-164.093997"
       id="path4464"
       sodipodi:nodetypes="cc" />
    <text
       xml:space="preserve"
       style="font-size:13.27231312px;font-style:normal;font-variant:normal;font-weight:normal;font-stretch:normal;text-align:start;line-height:100%;writing-mode:lr-tb;text-anchor:start;fill:#000000;fill-opacity:1;stroke:none;font-family:Arial;-inkscape-font-specification:Arial"
       x="222.43671"
       y="200.53374"
       id="text10493"
       sodipodi:linespacing="100%"><tspan
         sodipodi:role="line"
         id="tspan10495"
         x="222.43671"
         y="200.53374">Position on screen</tspan></text>
    <text
       sodipodi:linespacing="100%"
       id="text10497"
       y="168.70311"
       x="-75.038879"
       style="font-size:13.27231312px;font-style:normal;font-variant:normal;font-weight:normal;font-stretch:normal;text-align:start;line-height:100%;writing-mode:lr-tb;text-anchor:start;fill:#000000;fill-opacity:1;stroke:none;font-family:Arial;-inkscape-font-specification:Arial"
       xml:space="preserve"
       transform="matrix(0,-1,1,0,0,0)"><tspan
         y="168.70311"
         x="-75.038879"
         id="tspan10499"
         sodipodi:role="line">Intensity</tspan></text>
    <path
       id="path10573"
       title="(1+cos(x)+cos(2*x)+cos(3*x))**2+(sin(x)+sin(2*x)+sin(3*x))**2"
       d="m 13.380159,181.26617 c 0.618562,0.858 1.237126,1.55185 1.855688,1.94485 0.618562,0.39297 1.237126,0.4818 1.855688,0.25071 0.618564,-0.23108 1.237126,-0.78259 1.855689,-1.54459 0.618563,-0.76199 1.237125,-1.73158 1.855689,-2.7133 0.618562,-0.98171 1.237125,-1.97001 1.855688,-2.7571 0.618562,-0.7871 1.237125,-1.36652 1.855689,-1.60127 0.618563,-0.23474 1.237126,-0.11956 1.855689,0.34576 0.618562,0.46535 1.237125,1.28285 1.855688,2.2899 0.618564,1.00703 1.237127,2.20114 1.855689,3.28174 0.618564,1.08061 1.237126,2.04081 1.855689,2.5149 0.618563,0.47409 1.237125,0.45187 1.855689,-0.395 0.618562,-0.84686 1.237124,-2.52961 1.855688,-5.23488 0.618562,-2.70528 1.237126,-6.44257 1.855688,-11.18032 0.618563,-4.73775 1.237126,-10.48132 1.855688,-16.9558 0.618564,-6.47448 1.237127,-13.67954 1.85569,-21.13377 0.618563,-7.45423 1.237126,-15.15126 1.855689,-22.49585 0.618562,-7.344571 1.237125,-14.32553 1.855688,-20.3607 0.618563,-6.035136 1.237125,-11.110846 1.855688,-14.788356 0.618563,-3.67751 1.237126,-5.943545 1.855689,-6.603529 0.618562,-0.659982 1.237126,0.296258 1.855688,2.773695 0.618563,2.477435 1.237126,6.481246 1.855688,11.648294 0.618564,5.167045 1.237126,11.496896 1.85569,18.441336 0.618562,6.94445 1.237124,14.49812 1.855688,22.05117 0.618562,7.55305 1.237126,15.09707 1.855689,22.09291 0.618563,6.99584 1.237126,13.43455 1.855688,18.95644 0.618563,5.52187 1.237126,10.11973 1.855689,13.67241 0.618563,3.55269 1.237125,6.05645 1.855688,7.62604 0.618563,1.5696 1.237126,2.20519 1.855689,2.19756 0.618563,-0.007 1.237125,-0.65502 1.855688,-1.57326 0.618563,-0.91824 1.237125,-2.10213 1.855689,-3.21186 0.618562,-1.10976 1.237126,-2.14045 1.855688,-2.86843 0.618562,-0.72802 1.237126,-1.15044 1.855688,-1.20433 0.618565,-0.0541 1.237127,0.26054 1.855689,0.85302 0.618564,0.59249 1.237126,1.45982 1.85569,2.41167 0.618562,0.95186 1.237125,1.983 1.855688,2.8831 0.618562,0.90012 1.237126,1.66361 1.855688,2.14044 0.618563,0.47682 1.237126,0.66294 1.855689,0.5236 0.618562,-0.13927 1.237125,-0.60523 1.855688,-1.30461 0.618563,-0.69937 1.237126,-1.62987 1.855688,-2.60447 0.618563,-0.97461 1.237126,-1.98814 1.855689,-2.82936 0.618563,-0.84118 1.237125,-1.5036 1.855689,-1.835 0.618563,-0.3314 1.237126,-0.32624 1.855689,0.0384 0.618562,0.36478 1.237126,1.0918 1.855688,2.04193 0.618563,0.95012 1.237126,2.12164 1.855688,3.23059 0.618564,1.10896 1.237126,2.1491 1.855689,2.75825 0.618563,0.60914 1.237126,0.77751 1.85569,0.16441 0.618559,-0.61309 1.237129,-2.01889 1.855686,-4.43054 0.61856,-2.41162 1.23713,-5.8391 1.85569,-10.28569 0.61855,-4.44663 1.23713,-9.91854 1.85569,-16.17568 0.61855,-6.25715 1.23713,-13.30006 1.85569,-20.67298 0.61856,-7.37291 1.23713,-15.07037 1.85569,-22.50626 0.61856,-7.4359 1.23712,-14.599699 1.85569,-20.898859 0.61856,-6.29914 1.23712,-11.720182 1.85569,-15.796005 0.61855,-4.075808 1.23712,-6.79289 1.85568,-7.916501 0.61856,-1.123609 1.23713,-0.642969 1.85569,1.389608 0.61856,2.032576 1.23713,5.623075 1.85568,10.44377 0.61857,4.820692 1.23714,10.871931 1.85569,17.6256 0.61856,6.753697 1.23713,14.205057 1.8557,21.744807 0.61856,7.53976 1.23713,15.15985 1.85569,22.30304 0.61855,7.14317 1.23713,13.8004 1.85569,19.58063 0.61855,5.78021 1.23712,10.67581 1.85568,14.52937 0.61856,3.85358 1.23713,6.66074 1.85569,8.50426 0.61856,1.84351 1.23712,2.72296 1.85569,2.90884 0.61856,0.18587 1.23712,-0.31877 1.85568,-1.14964 0.61856,-0.83086 1.23713,-1.9829 1.85569,-3.10583 0.61857,-1.12291 1.23713,-2.21161 1.85569,-3.02149 0.61858,-0.80988 1.23714,-1.33766 1.85569,-1.49606 0.61857,-0.15838 1.23713,0.0529 1.85569,0.56364 0.61857,0.51072 1.23713,1.3181 1.85569,2.24183 0.61856,0.92372 1.23713,1.95878 1.85569,2.89242 0.61856,0.93365 1.23713,1.76026 1.85568,2.31665 0.61857,0.55635 1.23713,0.83817 1.85569,0.79178 0.61857,-0.0463 1.23713,-0.42246 1.85569,-1.05291 0.61857,-0.63046 1.23712,-1.51336 1.8557,-2.47183 0.61857,-0.95845 1.23712,-1.98757 1.85568,-2.8745 0.61857,-0.88692 1.23713,-1.62525 1.85569,-2.0491 0.61857,-0.42387 1.23713,-0.52743 1.85568,-0.26555 0.61858,0.26189 1.23714,0.89237 1.85569,1.77628 0.61857,0.88391 1.23713,2.0202 1.85569,3.14307 0.61857,1.12286 1.23713,2.22665 1.85569,2.95497 0.61856,0.72832 1.23713,1.07175 1.85569,0.6797 0.61856,-0.39207 1.23713,-1.53082 1.85569,-3.65414 0.61857,-2.12333 1.23713,-5.24154 1.85569,-9.39221 0.61857,-4.1507 1.23712,-9.34069 1.85569,-15.36535 0.61857,-6.02468 1.23712,-12.88545 1.85569,-20.15408 0.61856,-7.26862 1.23712,-14.94047 1.85569,-22.44145 0.61856,-7.50098 1.23712,-14.821162 1.85568,-21.360532 0.61857,-6.539334 1.23713,-12.284664 1.85569,-16.742842 0.61856,-4.458162 1.23712,-7.61548 1.85569,-9.19825 0.61856,-1.58277 1.23713,-1.579653 1.8557,0 0.61856,1.579667 1.23712,4.742647 1.85569,9.19825 0.61855,4.455618 1.23711,10.205049 1.85569,16.742842 0.61855,6.537804 1.23711,13.859912 1.85568,21.360532 0.61856,7.50062 1.23712,15.17202 1.85569,22.44145 0.61856,7.26941 1.23711,14.12777 1.85568,20.15408 0.61857,6.0263 1.23712,11.21262 1.85569,15.36535 0.61856,4.15271 1.23712,7.26695 1.85569,9.39221 0.61856,2.12528 1.23713,3.26062 1.85569,3.65414 0.61856,0.39353 1.23713,0.0479 1.85569,-0.6797 0.61856,-0.72756 1.23712,-1.83215 1.85569,-2.95497 0.61856,-1.12282 1.23712,-2.25867 1.85569,-3.14307 0.61855,-0.88438 1.23711,-1.51369 1.85569,-1.77628 0.61855,-0.26259 1.23711,-0.15769 1.85568,0.26555 0.61856,0.42324 1.23712,1.16245 1.85569,2.0491 0.61856,0.88664 1.23712,1.9159 1.85568,2.8745 0.61858,0.9586 1.23714,1.8409 1.8557,2.47183 0.61856,0.63094 1.23713,1.00591 1.85569,1.05291 0.61856,0.0471 1.23713,-0.23593 1.85569,-0.79178 0.61855,-0.55585 1.23713,-1.38319 1.85568,-2.31665 0.61856,-0.93344 1.23714,-1.96847 1.85569,-2.89242 0.61856,-0.92393 1.23713,-1.73053 1.85569,-2.24183 0.61856,-0.51131 1.23713,-0.72131 1.85569,-0.56364 0.61855,0.15769 1.23712,0.6867 1.85569,1.49606 0.61856,0.80934 1.23713,1.89862 1.85569,3.02149 0.61856,1.12288 1.23713,2.27432 1.85569,3.10583 0.61856,0.83153 1.23712,1.33415 1.85568,1.14964 0.61857,-0.18452 1.23713,-1.06723 1.85569,-2.90884 0.61856,-1.84161 1.23713,-4.65274 1.85569,-8.50426 0.61856,-3.85151 1.23713,-8.75088 1.85568,-14.52937 0.61856,-5.77851 1.23714,-12.4384 1.85569,-19.58063 0.61856,-7.14225 1.23713,-14.76311 1.85569,-22.30304 0.61857,-7.53995 1.23714,-14.98974 1.8557,-21.744807 0.61855,-6.755053 1.23712,-12.802472 1.85569,-17.6256 0.61855,-4.82313 1.23712,-8.408139 1.85568,-10.44377 0.61857,-2.035647 1.23713,-2.510069 1.85569,-1.389608 0.61857,1.120462 1.23713,3.84336 1.85568,7.916501 0.61858,4.073155 1.23713,9.498587 1.85569,15.796005 0.61858,6.297438 1.23713,13.463489 1.85569,20.898859 0.61857,7.43537 1.23713,15.13271 1.85569,22.50626 0.61857,7.37356 1.23714,14.4143 1.85569,20.67298 0.61857,6.25866 1.23714,11.72704 1.85569,16.17568 0.61857,4.44861 1.23713,7.87207 1.85569,10.28569 0.61857,2.41363 1.23712,3.81588 1.85569,4.43054 0.61856,0.61465 1.23712,0.44388 1.85569,-0.16441 0.61856,-0.60828 1.23712,-1.64942 1.85568,-2.75825 0.61857,-1.10882 1.23713,-2.28004 1.85568,-3.23059 0.61858,-0.95054 1.23713,-1.67645 1.8557,-2.04193 0.61858,-0.36548 1.23713,-0.3693 1.85569,-0.0384 0.61857,0.33076 1.23713,0.99416 1.85569,1.835 0.61856,0.84087 1.23713,1.85466 1.85568,2.82936 0.61857,0.97469 1.23714,1.90464 1.85569,2.60447 0.61857,0.69983 1.23713,1.16464 1.85569,1.30461 0.61857,0.1399 1.23712,-0.0473 1.85569,-0.5236 0.61857,-0.47628 1.23712,-1.24059 1.8557,-2.14044 0.61855,-0.89983 1.23711,-1.93109 1.8557,-2.8831 0.61855,-0.952 1.23711,-1.81865 1.85567,-2.41167 0.61857,-0.59304 1.23713,-0.90621 1.85569,-0.85302 0.61857,0.0532 1.23712,0.4769 1.85569,1.20433 0.61857,0.7274 1.23712,1.7588 1.85569,2.86843 0.61855,1.10959 1.23712,2.29309 1.85569,3.21186 0.61855,0.91877 1.23712,1.56437 1.85568,1.57326 0.61856,0.008 1.23713,-0.6298 1.85569,-2.19756 0.61856,-1.56775 1.23712,-4.07541 1.8557,-7.62604 0.61856,-3.55064 1.23711,-8.15235 1.85569,-13.67241 0.61855,-5.5201 1.23711,-11.96169 1.85569,-18.95644 0.61855,-6.99476 1.23711,-14.53986 1.85568,-22.09291 0.61856,-7.55305 1.23712,-15.10551 1.85568,-22.05117 0.61857,-6.945656 1.23712,-13.271979 1.85569,-18.441336 0.61857,-5.169344 1.23712,-9.16785 1.85569,-11.648294 0.61856,-2.480429 1.23712,-3.430497 1.85569,-2.773695 0.61855,0.656805 1.23713,2.928794 1.8557,6.603529 0.61855,3.674749 1.23712,8.755095 1.85568,14.788356 0.61856,6.033291 1.23713,13.016851 1.85569,20.3607 0.61856,7.34388 1.23712,15.04117 1.85569,22.49585 0.61856,7.45469 1.23712,14.65784 1.85569,21.13377 0.61855,6.4759 1.23712,12.21608 1.85569,16.9558 0.61855,4.73972 1.23712,8.47303 1.85567,11.18032 0.61857,2.70727 1.23714,4.38637 1.85569,5.23488 0.61857,0.84852 1.23714,0.86811 1.8557,0.395 0.61857,-0.4731 1.23713,-1.43453 1.85569,-2.5149 0.61855,-1.08037 1.23713,-2.27436 1.85569,-3.28174 0.61855,-1.0074 1.23713,-1.8239 1.85568,-2.2899 0.61856,-0.46602 1.23714,-0.57983 1.85569,-0.34576 0.61856,0.23408 1.23712,0.81458 1.85569,1.60127 0.61856,0.78669 1.23712,1.77538 1.85569,2.7571 0.61855,0.98173 1.23712,1.95091 1.85569,2.7133 0.61855,0.7624 1.23713,1.3129 1.85568,1.54459 0.61857,0.2317 1.23714,0.14176 1.85569,-0.25071 0.61857,-0.39242 1.23714,-1.08685 1.85569,-1.94485"
       style="color:#000000;fill:none;stroke:#000000;stroke-width:2;stroke-linecap:butt;stroke-linejoin:miter;stroke-miterlimit:4;stroke-opacity:1;stroke-dasharray:none;stroke-dashoffset:0;marker:none;visibility:visible;display:inline;overflow:visible;enable-background:accumulate" />
  </g>
</svg>
