<?xml version="1.0" encoding="UTF-8" standalone="no"?>
<!-- Created with Inkscape (http://www.inkscape.org/) -->

<svg
   xmlns:dc="http://purl.org/dc/elements/1.1/"
   xmlns:cc="http://creativecommons.org/ns#"
   xmlns:rdf="http://www.w3.org/1999/02/22-rdf-syntax-ns#"
   xmlns:svg="http://www.w3.org/2000/svg"
   xmlns="http://www.w3.org/2000/svg"
   xmlns:sodipodi="http://sodipodi.sourceforge.net/DTD/sodipodi-0.dtd"
   xmlns:inkscape="http://www.inkscape.org/namespaces/inkscape"
   width="378.99997"
   height="265"
   id="svg2876"
   version="1.1"
   inkscape:version="0.47 r22583"
   sodipodi:docname="gratingPattern.svg">
  <sodipodi:namedview
     id="base"
     pagecolor="#ffffff"
     bordercolor="#666666"
     borderopacity="1.0"
     inkscape:pageopacity="0.0"
     inkscape:pageshadow="2"
     inkscape:zoom="2.0000001"
     inkscape:cx="451.26502"
     inkscape:cy="117.43218"
     inkscape:document-units="px"
     inkscape:current-layer="layer1"
     showgrid="false"
     inkscape:window-width="1920"
     inkscape:window-height="1000"
     inkscape:window-x="0"
     inkscape:window-y="27"
     inkscape:window-maximized="1" />
  <defs
     id="defs2878">
    <marker
       inkscape:stockid="Arrow1Mend"
       orient="auto"
       refY="0"
       refX="0"
       id="Arrow1Mend"
       style="overflow:visible">
      <path
         id="path3598"
         d="M 0,0 5,-5 -12.5,0 5,5 0,0 z"
         style="fill-rule:evenodd;stroke:#000000;stroke-width:1pt;marker-start:none"
         transform="matrix(-0.4,0,0,-0.4,-4,0)" />
    </marker>
    <marker
       inkscape:stockid="DotM"
       orient="auto"
       refY="0"
       refX="0"
       id="DotM"
       style="overflow:visible">
      <path
         id="path3654"
         d="m -2.5,-1 c 0,2.76 -2.24,5 -5,5 -2.76,0 -5,-2.24 -5,-5 0,-2.76 2.24,-5 5,-5 2.76,0 5,2.24 5,5 z"
         style="fill-rule:evenodd;stroke:#000000;stroke-width:1pt;marker-start:none;marker-end:none"
         transform="matrix(0.4,0,0,0.4,2.96,0.4)" />
    </marker>
    <inkscape:perspective
       sodipodi:type="inkscape:persp3d"
       inkscape:vp_x="0 : 526.18109 : 1"
       inkscape:vp_y="0 : 1000 : 0"
       inkscape:vp_z="744.09448 : 526.18109 : 1"
       inkscape:persp3d-origin="372.04724 : 350.78739 : 1"
       id="perspective2884" />
  </defs>
  <metadata
     id="metadata2881">
    <rdf:RDF>
      <cc:Work
         rdf:about="">
        <dc:format>image/svg+xml</dc:format>
        <dc:type
           rdf:resource="http://purl.org/dc/dcmitype/StillImage" />
        <dc:title />
      </cc:Work>
    </rdf:RDF>
  </metadata>
  <g
     inkscape:label="Layer 1"
     inkscape:groupmode="layer"
     id="layer1"
     transform="translate(11.285713,54.744667)">
    <path
       style="color:#000000;fill:none;stroke:#000000;stroke-width:1.32599998;stroke-linecap:butt;stroke-linejoin:miter;stroke-miterlimit:4;stroke-opacity:1;stroke-dasharray:none;stroke-dashoffset:0;marker:none;marker-end:url(#Arrow1Mend);visibility:visible;display:inline;overflow:visible;enable-background:accumulate"
       d="m 1.6315249,186.68401 361.4390851,0"
       id="path4468"
       sodipodi:nodetypes="cc"
       inkscape:transform-center-x="-136.99776" />
    <path
       sodipodi:nodetypes="cc"
       id="path4464"
       d="m 179.47674,185.46548 0,-228.093994"
       style="color:#000000;fill:none;stroke:#000000;stroke-width:1.32599998;stroke-linecap:butt;stroke-linejoin:miter;stroke-miterlimit:4;stroke-opacity:1;stroke-dasharray:none;stroke-dashoffset:0;marker:none;marker-end:url(#Arrow1Mend);visibility:visible;display:inline;overflow:visible;enable-background:accumulate"
       inkscape:transform-center-y="-136.99776" />
    <text
       sodipodi:linespacing="100%"
       id="text10493"
       y="200.53374"
       x="222.43671"
       style="font-size:13.27231312px;font-style:normal;font-variant:normal;font-weight:normal;font-stretch:normal;text-align:start;line-height:100%;writing-mode:lr-tb;text-anchor:start;fill:#000000;fill-opacity:1;stroke:none;font-family:Arial;-inkscape-font-specification:Arial"
       xml:space="preserve"><tspan
         y="200.53374"
         x="222.43671"
         id="tspan10495"
         sodipodi:role="line">Position on screen</tspan></text>
    <text
       transform="matrix(0,-1,1,0,0,0)"
       xml:space="preserve"
       style="font-size:13.27231312px;font-style:normal;font-variant:normal;font-weight:normal;font-stretch:normal;text-align:start;line-height:100%;writing-mode:lr-tb;text-anchor:start;fill:#000000;fill-opacity:1;stroke:none;font-family:Arial;-inkscape-font-specification:Arial"
       x="-15.038882"
       y="170.70311"
       id="text10497"
       sodipodi:linespacing="100%"><tspan
         sodipodi:role="line"
         id="tspan10499"
         x="-15.038882"
         y="170.70311">Intensity</tspan></text>
    <path
       id="path10959"
       title="(1+cos(x)+cos(2*x)+cos(3*x)+cos(4*x)+cos(5*x)+cos(6*x)+cos(7*x))**2+(sin(x)+sin(2*x)+sin(3*x)+sin(4*x)+sin(5*x)+sin(6*x)+sin(7*x))**2"
       d="m 2.4275693,180.75017 c 1.0459247,-0.63164 2.0918506,-1.60615 3.1377764,-2.15361 1.0459236,-0.54745 2.0918473,-0.60752 3.1377731,-0.14989 1.0459236,0.45764 2.0918492,1.37725 3.1377742,2.05553 1.045926,0.67827 2.091848,1.03653 3.137774,0.80581 1.045925,-0.23072 2.091848,-1.02646 3.137774,-1.78334 1.045926,-0.75689 2.091851,-1.38614 3.137775,-1.39998 1.045924,-0.0139 2.091849,0.59836 3.137774,1.37286 1.045924,0.7745 2.09185,1.6203 3.137774,1.83182 1.045923,0.2115 2.09185,-0.26156 3.137775,-1.16459 1.045924,-0.90304 2.09185,-2.15372 3.137775,-2.82704 1.045923,-0.67333 2.091847,-0.67158 3.13777,0.0668 1.045939,0.73837 2.091863,2.15899 3.137786,3.09524 1.045923,0.93628 2.091848,1.2336 3.137769,0.25366 1.045925,-0.97995 2.091849,-3.25167 3.137771,-5.5016 1.045924,-2.24992 2.091847,-4.26629 3.137788,-4.39419 1.045922,-0.12788 2.091846,1.81527 3.137769,4.58745 1.045924,2.77215 2.091846,6.21674 3.13777,5.92204 1.045924,-0.29469 2.091847,-4.74772 3.137771,-16.45601 1.045924,-11.70827 2.091846,-30.89377 3.137786,-54.50975 1.045924,-23.615969 2.091847,-51.367702 3.13777,-75.014402 1.045924,-23.6467 2.091846,-42.6213975 3.137771,-50.43144 1.045922,-7.810044 2.091846,-4.1934 3.13777,9.5151 1.045923,13.7085011 2.091846,37.204545 3.137785,62.581574 1.045924,25.377028 2.091843,52.112728 3.137774,72.973718 1.04592,20.86099 2.09184,35.65274 3.137768,43.43993 1.045928,7.7872 2.091845,8.83362 3.137773,7.29452 1.045917,-1.53909 2.091845,-5.31398 3.137784,-7.55041 1.045917,-2.23643 2.091856,-2.88402 3.137773,-1.81176 1.045917,1.07226 2.091834,3.64728 3.137773,5.82244 1.045917,2.17513 2.091834,3.78988 3.137762,4.09992 1.045928,0.31002 2.091845,-0.61625 3.137784,-1.74494 1.045939,-1.12867 2.091859,-2.31482 3.137769,-2.64807 1.04592,-0.33326 2.09186,0.19485 3.13778,1.12606 1.04591,0.93121 2.09183,2.15418 3.13777,2.80049 1.04592,0.6463 2.09183,0.6651 3.13777,0.14948 1.04593,-0.5156 2.09186,-1.4903 3.13778,-2.14252 1.04592,-0.65219 2.09184,-0.90814 3.13777,-0.58656 1.04592,0.32157 2.09186,1.18001 3.13777,1.91579 1.04593,0.73578 2.09185,1.26359 3.13779,1.18597 1.04592,-0.0778 2.09184,-0.7542 3.13778,-1.51645 1.04592,-0.76226 2.09183,-1.52205 3.13775,-1.69429 1.04594,-0.17223 2.09186,0.27146 3.13777,1.00022 1.04592,0.72878 2.09186,1.65996 3.1378,2.03437 1.04592,0.37442 2.09185,0.12584 3.13776,-0.66226 1.04593,-0.78809 2.09185,-2.05025 3.13778,-2.8707 1.04591,-0.82048 2.09184,-1.091 3.13776,-0.54598 1.04594,0.54502 2.09185,1.87725 3.13778,2.93778 1.04594,1.06052 2.09186,1.69587 3.13779,1.05218 1.04591,-0.64371 2.09185,-2.61463 3.13777,-4.86654 1.04592,-2.25191 2.09183,-4.59743 3.13777,-5.22114 1.04592,-0.6237 2.09186,0.68498 3.13779,3.24454 1.04591,2.55956 2.09184,6.27069 3.13776,6.99808 1.04593,0.7274 2.09184,-1.93336 3.13777,-11.64439 1.04592,-9.71101 2.09185,-26.75349 3.13776,-49.10344 1.04593,-22.349941 2.09188,-49.787553 3.1378,-74.489571 1.04592,-24.702018 2.09183,-46.10639678 3.13777,-56.967091 1.04592,-10.860693 2.09185,-10.840448 3.13776,0 1.04594,10.84044786 2.09186,32.271001 3.13778,56.967091 1.04591,24.69609 2.09186,52.130154 3.13779,74.489571 1.04592,22.35943 2.09185,39.37897 3.13776,49.10344 1.04593,9.72448 2.09185,12.3655 3.13778,11.64439 1.04591,-0.72112 2.09184,-4.43666 3.13776,-6.99808 1.04593,-2.56142 2.09187,-3.86498 3.13778,-3.24454 1.04594,0.62046 2.09186,2.96896 3.13778,5.22114 1.04591,2.25217 2.09185,4.22054 3.13777,4.86654 1.04593,0.646 2.09184,0.008 3.13778,-1.05218 1.04592,-1.05987 2.09185,-2.39137 3.13779,-2.93778 1.04591,-0.54642 2.09184,-0.27362 3.13776,0.54598 1.04593,0.81956 2.09184,2.08172 3.13777,2.8707 1.04592,0.78898 2.09185,1.03564 3.13776,0.66226 1.04593,-0.37337 2.09188,-1.30517 3.1378,-2.03437 1.04592,-0.72918 2.09183,-1.17141 3.13776,-1.00022 1.04593,0.1712 2.09185,0.93196 3.13776,1.69429 1.04594,0.76232 2.09186,1.43774 3.13779,1.51645 1.04593,0.0787 2.09185,-0.45048 3.13777,-1.18597 1.04593,-0.73549 2.09187,-1.59323 3.13778,-1.91579 1.04592,-0.32257 2.09185,-0.065 3.13778,0.58656 1.04591,0.65159 2.09183,1.62603 3.13777,2.14252 1.04592,0.51649 2.09186,0.49578 3.13777,-0.14948 1.04593,-0.64525 2.09186,-1.86865 3.13778,-2.80049 1.04591,-0.93184 2.09184,-1.45783 3.13777,-1.12606 1.04592,0.33174 2.09183,1.51913 3.13777,2.64807 1.04592,1.12896 2.09186,2.05272 3.13779,1.74494 1.04591,-0.30778 2.09183,-1.92558 3.13776,-4.09992 1.04594,-2.17437 2.09186,-4.74728 3.13777,-5.82244 1.04594,-1.07515 2.09186,-0.42212 3.13778,1.81176 1.04593,2.23389 2.09186,6.00645 3.13779,7.55041 1.04592,1.54396 2.09183,0.47976 3.13776,-7.29452 1.04593,-7.77427 2.09185,-22.58986 3.13776,-43.43993 1.04593,-20.85006 2.09186,-47.593342 3.13778,-72.973718 1.04595,-25.380378 2.09187,-48.8542461 3.13778,-62.581574 1.04593,-13.727328 2.09186,-17.303813 3.13778,-9.5151 1.04591,7.7887108 2.09184,26.793223 3.13777,50.43144 1.04593,23.638217 2.09184,51.390688 3.13778,75.014402 1.04593,23.62371 2.09185,42.78774 3.13778,54.50975 1.04592,11.72204 2.09185,16.15365 3.13777,16.45601 1.04592,0.30237 2.09184,-3.14889 3.13777,-5.92204 1.04592,-2.77319 2.09185,-4.71185 3.13776,-4.58745 1.04594,0.12441 2.09187,2.14457 3.1378,4.39419 1.04592,2.24964 2.09183,4.51938 3.13776,5.5016 1.04593,0.98221 2.09185,0.68158 3.13776,-0.25366 1.04594,-0.93521 2.09186,-2.35564 3.13779,-3.09524 1.04592,-0.73962 2.09185,-0.73902 3.13778,-0.0668 1.04592,0.67222 2.09185,1.92332 3.13777,2.82704 1.04593,0.9037 2.09185,1.37493 3.13778,1.16459 1.04591,-0.21037 2.09184,-1.05712 3.13776,-1.83182 1.04595,-0.7747 2.09187,-1.38558 3.13778,-1.37286 1.04593,0.0128 2.09186,0.64323 3.13778,1.39998 1.04591,0.75673 2.09185,1.5516 3.13777,1.78334 1.04592,0.23174 2.09183,-0.12804 3.13777,-0.80581 1.04594,-0.67778 2.09186,-1.59702 3.13778,-2.05553 1.04592,-0.4585 2.09185,-0.39675 3.13777,0.14989"
       style="color:#000000;fill:none;stroke:#000000;stroke-width:2.11676073;stroke-linecap:butt;stroke-linejoin:miter;stroke-miterlimit:4;stroke-opacity:1;stroke-dasharray:none;stroke-dashoffset:0;marker:none;visibility:visible;display:inline;overflow:visible;enable-background:accumulate"
       sodipodi:nodetypes="cssssssssssssssssssssssssssssssssssssssssssssssssssssssssssssssssssssssssssssssssssssssssssssssssssssssssssssssss" />
  </g>
</svg>
