<?xml version="1.0" encoding="UTF-8" standalone="no"?>
<!-- Created with Inkscape (http://www.inkscape.org/) -->

<svg
   xmlns:dc="http://purl.org/dc/elements/1.1/"
   xmlns:cc="http://creativecommons.org/ns#"
   xmlns:rdf="http://www.w3.org/1999/02/22-rdf-syntax-ns#"
   xmlns:svg="http://www.w3.org/2000/svg"
   xmlns="http://www.w3.org/2000/svg"
   xmlns:sodipodi="http://sodipodi.sourceforge.net/DTD/sodipodi-0.dtd"
   xmlns:inkscape="http://www.inkscape.org/namespaces/inkscape"
   width="356.33072"
   height="285.46457"
   id="svg2876"
   version="1.1"
   inkscape:version="0.47 r22583"
   sodipodi:docname="gratingNonMax.svg">
  <sodipodi:namedview
     id="base"
     pagecolor="#ffffff"
     bordercolor="#666666"
     borderopacity="1.0"
     inkscape:pageopacity="0.0"
     inkscape:pageshadow="2"
     inkscape:zoom="2.8284271"
     inkscape:cx="221.10113"
     inkscape:cy="-13.271342"
     inkscape:document-units="px"
     inkscape:current-layer="layer1"
     showgrid="false"
     inkscape:window-width="1920"
     inkscape:window-height="1000"
     inkscape:window-x="0"
     inkscape:window-y="27"
     inkscape:window-maximized="1" />
  <defs
     id="defs2878">
    <marker
       style="overflow:visible;"
       id="Arrow1Mend"
       refX="0.0"
       refY="0.0"
       orient="auto"
       inkscape:stockid="Arrow1Mend">
      <path
         transform="scale(0.4) rotate(180) translate(10,0)"
         style="fill-rule:evenodd;stroke:#000000;stroke-width:1.0pt;marker-start:none;"
         d="M 0.0,0.0 L 5.0,-5.0 L -12.5,0.0 L 5.0,5.0 L 0.0,0.0 z "
         id="path3598" />
    </marker>
    <marker
       style="overflow:visible"
       id="DotM"
       refX="0.0"
       refY="0.0"
       orient="auto"
       inkscape:stockid="DotM">
      <path
         transform="scale(0.4) translate(7.4, 1)"
         style="fill-rule:evenodd;stroke:#000000;stroke-width:1.0pt;marker-start:none;marker-end:none"
         d="M -2.5,-1.0 C -2.5,1.7600000 -4.7400000,4.0 -7.5,4.0 C -10.260000,4.0 -12.5,1.7600000 -12.5,-1.0 C -12.5,-3.7600000 -10.260000,-6.0 -7.5,-6.0 C -4.7400000,-6.0 -2.5,-3.7600000 -2.5,-1.0 z "
         id="path3654" />
    </marker>
    <inkscape:perspective
       id="perspective2884"
       inkscape:persp3d-origin="372.04724 : 350.78739 : 1"
       inkscape:vp_z="744.09448 : 526.18109 : 1"
       inkscape:vp_y="0 : 1000 : 0"
       inkscape:vp_x="0 : 526.18109 : 1"
       sodipodi:type="inkscape:persp3d" />
  </defs>
  <metadata
     id="metadata2881">
    <rdf:RDF>
      <cc:Work
         rdf:about="">
        <dc:format>image/svg+xml</dc:format>
        <dc:type
           rdf:resource="http://purl.org/dc/dcmitype/StillImage" />
        <dc:title></dc:title>
      </cc:Work>
    </rdf:RDF>
  </metadata>
  <g
     transform="translate(-4.7142859,-2.7907541)"
     id="layer1"
     inkscape:groupmode="layer"
     inkscape:label="Layer 1">
    <path
       inkscape:transform-center-x="-136.99776"
       sodipodi:nodetypes="cc"
       id="path4468"
       d="m 37.466042,246.78809 209.523828,0"
       style="color:#000000;fill:none;stroke:#000000;stroke-width:1.32587457;stroke-linecap:butt;stroke-linejoin:miter;stroke-miterlimit:4;stroke-opacity:1;stroke-dasharray:5.30349827, 1.32587457;stroke-dashoffset:0;marker:none;marker-end:url(#Arrow1Mend);visibility:visible;display:inline;overflow:visible;enable-background:accumulate" />
    <path
       inkscape:transform-center-y="-136.99776"
       style="color:#000000;fill:none;stroke:#000000;stroke-width:1.32587457;stroke-linecap:butt;stroke-linejoin:miter;stroke-miterlimit:4;stroke-opacity:1;stroke-dasharray:5.30349827, 1.32587457;stroke-dashoffset:0;marker:none;marker-end:url(#Arrow1Mend);visibility:visible;display:inline;overflow:visible;enable-background:accumulate"
       d="m 38.065792,247.69088 0,-164.094002"
       id="path4464"
       sodipodi:nodetypes="cc" />
    <text
       xml:space="preserve"
       style="font-size:23.77140999px;font-style:normal;font-variant:normal;font-weight:normal;font-stretch:normal;text-align:start;line-height:100%;writing-mode:lr-tb;text-anchor:start;fill:#000000;fill-opacity:1;stroke:none;font-family:Arial;-inkscape-font-specification:Arial"
       x="17.093266"
       y="81.172012"
       id="text4727"
       sodipodi:linespacing="100%"><tspan
         sodipodi:role="line"
         id="tspan4729"
         x="17.093266"
         y="81.172012">Im</tspan></text>
    <text
       sodipodi:linespacing="100%"
       id="text4731"
       y="277.43903"
       x="302.12411"
       style="font-size:23.77140999px;font-style:normal;font-variant:normal;font-weight:normal;font-stretch:normal;text-align:start;line-height:100%;writing-mode:lr-tb;text-anchor:start;fill:#000000;fill-opacity:1;stroke:none;font-family:Arial;-inkscape-font-specification:Arial"
       xml:space="preserve"><tspan
         y="277.43903"
         x="302.12411"
         id="tspan4733"
         sodipodi:role="line">Re</tspan></text>
    <path
       id="path6483"
       d="m 343.7382,247.95024 11.18113,0"
       style="color:#000000;fill:none;stroke:#000000;stroke-width:2;stroke-linecap:butt;stroke-linejoin:miter;stroke-miterlimit:4;stroke-opacity:1;stroke-dasharray:none;stroke-dashoffset:0;marker:none;marker-end:url(#Arrow1Mend);visibility:visible;display:inline;overflow:visible;enable-background:accumulate" />
    <path
       id="path6481"
       d="m 332.55707,247.95024 11.18113,0"
       style="color:#000000;fill:none;stroke:#000000;stroke-width:2;stroke-linecap:butt;stroke-linejoin:miter;stroke-miterlimit:4;stroke-opacity:1;stroke-dasharray:none;stroke-dashoffset:0;marker:none;marker-end:url(#Arrow1Mend);visibility:visible;display:inline;overflow:visible;enable-background:accumulate" />
    <path
       id="path6479"
       d="m 321.37595,247.95024 11.18112,0"
       style="color:#000000;fill:none;stroke:#000000;stroke-width:2;stroke-linecap:butt;stroke-linejoin:miter;stroke-miterlimit:4;stroke-opacity:1;stroke-dasharray:none;stroke-dashoffset:0;marker:none;marker-end:url(#Arrow1Mend);visibility:visible;display:inline;overflow:visible;enable-background:accumulate" />
    <path
       id="path6477"
       d="m 310.19482,247.95024 11.18113,0"
       style="color:#000000;fill:none;stroke:#000000;stroke-width:2;stroke-linecap:butt;stroke-linejoin:miter;stroke-miterlimit:4;stroke-opacity:1;stroke-dasharray:none;stroke-dashoffset:0;marker:none;marker-end:url(#Arrow1Mend);visibility:visible;display:inline;overflow:visible;enable-background:accumulate" />
    <path
       id="path6475"
       d="m 299.0137,247.95024 11.18112,0"
       style="color:#000000;fill:none;stroke:#000000;stroke-width:2;stroke-linecap:butt;stroke-linejoin:miter;stroke-miterlimit:4;stroke-opacity:1;stroke-dasharray:none;stroke-dashoffset:0;marker:none;marker-end:url(#Arrow1Mend);visibility:visible;display:inline;overflow:visible;enable-background:accumulate" />
    <path
       id="path6473"
       d="m 287.83257,247.95024 11.18113,0"
       style="color:#000000;fill:none;stroke:#000000;stroke-width:2;stroke-linecap:butt;stroke-linejoin:miter;stroke-miterlimit:4;stroke-opacity:1;stroke-dasharray:none;stroke-dashoffset:0;marker:none;marker-end:url(#Arrow1Mend);visibility:visible;display:inline;overflow:visible;enable-background:accumulate" />
    <path
       id="path6471"
       d="m 276.65144,247.95024 11.18113,0"
       style="color:#000000;fill:none;stroke:#000000;stroke-width:2;stroke-linecap:butt;stroke-linejoin:miter;stroke-miterlimit:4;stroke-opacity:1;stroke-dasharray:none;stroke-dashoffset:0;marker:none;marker-end:url(#Arrow1Mend);visibility:visible;display:inline;overflow:visible;enable-background:accumulate" />
    <path
       id="path6469"
       d="m 265.47032,247.95024 11.18112,0"
       style="color:#000000;fill:none;stroke:#000000;stroke-width:2;stroke-linecap:butt;stroke-linejoin:miter;stroke-miterlimit:4;stroke-opacity:1;stroke-dasharray:none;stroke-dashoffset:0;marker:none;marker-end:url(#Arrow1Mend);visibility:visible;display:inline;overflow:visible;enable-background:accumulate" />
    <path
       id="path6467"
       d="m 254.28919,247.95024 11.18113,0"
       style="color:#000000;fill:none;stroke:#000000;stroke-width:2;stroke-linecap:butt;stroke-linejoin:miter;stroke-miterlimit:4;stroke-opacity:1;stroke-dasharray:none;stroke-dashoffset:0;marker:none;marker-end:url(#Arrow1Mend);visibility:visible;display:inline;overflow:visible;enable-background:accumulate" />
    <path
       id="path6465"
       d="m 243.10807,247.95024 11.18112,0"
       style="color:#000000;fill:none;stroke:#000000;stroke-width:2;stroke-linecap:butt;stroke-linejoin:miter;stroke-miterlimit:4;stroke-opacity:1;stroke-dasharray:none;stroke-dashoffset:0;marker:none;marker-end:url(#Arrow1Mend);visibility:visible;display:inline;overflow:visible;enable-background:accumulate" />
    <path
       id="path6463"
       d="m 231.92694,247.95024 11.18113,0"
       style="color:#000000;fill:none;stroke:#000000;stroke-width:2;stroke-linecap:butt;stroke-linejoin:miter;stroke-miterlimit:4;stroke-opacity:1;stroke-dasharray:none;stroke-dashoffset:0;marker:none;marker-end:url(#Arrow1Mend);visibility:visible;display:inline;overflow:visible;enable-background:accumulate" />
    <path
       id="path6461"
       d="m 220.74581,247.95024 11.18113,0"
       style="color:#000000;fill:none;stroke:#000000;stroke-width:2;stroke-linecap:butt;stroke-linejoin:miter;stroke-miterlimit:4;stroke-opacity:1;stroke-dasharray:none;stroke-dashoffset:0;marker:none;marker-end:url(#Arrow1Mend);visibility:visible;display:inline;overflow:visible;enable-background:accumulate" />
    <path
       id="path6459"
       d="m 209.56469,247.95024 11.18112,0"
       style="color:#000000;fill:none;stroke:#000000;stroke-width:2;stroke-linecap:butt;stroke-linejoin:miter;stroke-miterlimit:4;stroke-opacity:1;stroke-dasharray:none;stroke-dashoffset:0;marker:none;marker-end:url(#Arrow1Mend);visibility:visible;display:inline;overflow:visible;enable-background:accumulate" />
    <path
       id="path6457"
       d="m 198.38356,247.95024 11.18113,0"
       style="color:#000000;fill:none;stroke:#000000;stroke-width:2;stroke-linecap:butt;stroke-linejoin:miter;stroke-miterlimit:4;stroke-opacity:1;stroke-dasharray:none;stroke-dashoffset:0;marker:none;marker-end:url(#Arrow1Mend);visibility:visible;display:inline;overflow:visible;enable-background:accumulate" />
    <path
       id="path6455"
       d="m 187.20244,247.95024 11.18112,0"
       style="color:#000000;fill:none;stroke:#000000;stroke-width:2;stroke-linecap:butt;stroke-linejoin:miter;stroke-miterlimit:4;stroke-opacity:1;stroke-dasharray:none;stroke-dashoffset:0;marker:none;marker-end:url(#Arrow1Mend);visibility:visible;display:inline;overflow:visible;enable-background:accumulate" />
    <path
       id="path6453"
       d="m 176.02131,247.95024 11.18113,0"
       style="color:#000000;fill:none;stroke:#000000;stroke-width:2;stroke-linecap:butt;stroke-linejoin:miter;stroke-miterlimit:4;stroke-opacity:1;stroke-dasharray:none;stroke-dashoffset:0;marker:none;marker-end:url(#Arrow1Mend);visibility:visible;display:inline;overflow:visible;enable-background:accumulate" />
    <path
       id="path6451"
       d="m 164.84019,247.95024 11.18112,0"
       style="color:#000000;fill:none;stroke:#000000;stroke-width:2;stroke-linecap:butt;stroke-linejoin:miter;stroke-miterlimit:4;stroke-opacity:1;stroke-dasharray:none;stroke-dashoffset:0;marker:none;marker-end:url(#Arrow1Mend);visibility:visible;display:inline;overflow:visible;enable-background:accumulate" />
    <path
       id="path6449"
       d="m 153.65906,247.95024 11.18113,0"
       style="color:#000000;fill:none;stroke:#000000;stroke-width:2;stroke-linecap:butt;stroke-linejoin:miter;stroke-miterlimit:4;stroke-opacity:1;stroke-dasharray:none;stroke-dashoffset:0;marker:none;marker-end:url(#Arrow1Mend);visibility:visible;display:inline;overflow:visible;enable-background:accumulate" />
    <path
       id="path6447"
       d="m 142.47793,247.95024 11.18113,0"
       style="color:#000000;fill:none;stroke:#000000;stroke-width:2;stroke-linecap:butt;stroke-linejoin:miter;stroke-miterlimit:4;stroke-opacity:1;stroke-dasharray:none;stroke-dashoffset:0;marker:none;marker-end:url(#Arrow1Mend);visibility:visible;display:inline;overflow:visible;enable-background:accumulate" />
    <path
       id="path6445"
       d="m 131.29681,247.95024 11.18112,0"
       style="color:#000000;fill:none;stroke:#000000;stroke-width:2;stroke-linecap:butt;stroke-linejoin:miter;stroke-miterlimit:4;stroke-opacity:1;stroke-dasharray:none;stroke-dashoffset:0;marker:none;marker-end:url(#Arrow1Mend);visibility:visible;display:inline;overflow:visible;enable-background:accumulate" />
    <path
       id="path6443"
       d="m 120.11568,247.95024 11.18113,0"
       style="color:#000000;fill:none;stroke:#000000;stroke-width:2;stroke-linecap:butt;stroke-linejoin:miter;stroke-miterlimit:4;stroke-opacity:1;stroke-dasharray:none;stroke-dashoffset:0;marker:none;marker-end:url(#Arrow1Mend);visibility:visible;display:inline;overflow:visible;enable-background:accumulate" />
    <path
       id="path6441"
       d="m 108.93456,247.95024 11.18112,0"
       style="color:#000000;fill:none;stroke:#000000;stroke-width:2;stroke-linecap:butt;stroke-linejoin:miter;stroke-miterlimit:4;stroke-opacity:1;stroke-dasharray:none;stroke-dashoffset:0;marker:none;marker-end:url(#Arrow1Mend);visibility:visible;display:inline;overflow:visible;enable-background:accumulate" />
    <path
       id="path6439"
       d="m 97.75343,247.95024 11.18113,0"
       style="color:#000000;fill:none;stroke:#000000;stroke-width:2;stroke-linecap:butt;stroke-linejoin:miter;stroke-miterlimit:4;stroke-opacity:1;stroke-dasharray:none;stroke-dashoffset:0;marker:none;marker-end:url(#Arrow1Mend);visibility:visible;display:inline;overflow:visible;enable-background:accumulate" />
    <path
       id="path6437"
       d="m 86.572302,247.95024 11.181128,0"
       style="color:#000000;fill:none;stroke:#000000;stroke-width:2;stroke-linecap:butt;stroke-linejoin:miter;stroke-miterlimit:4;stroke-opacity:1;stroke-dasharray:none;stroke-dashoffset:0;marker:none;marker-end:url(#Arrow1Mend);visibility:visible;display:inline;overflow:visible;enable-background:accumulate" />
    <path
       id="path6435"
       d="m 75.391182,247.95024 11.18112,0"
       style="color:#000000;fill:none;stroke:#000000;stroke-width:2;stroke-linecap:butt;stroke-linejoin:miter;stroke-miterlimit:4;stroke-opacity:1;stroke-dasharray:none;stroke-dashoffset:0;marker:none;marker-end:url(#Arrow1Mend);visibility:visible;display:inline;overflow:visible;enable-background:accumulate" />
    <path
       id="path6433"
       d="m 64.210052,247.95024 11.18113,0"
       style="color:#000000;fill:none;stroke:#000000;stroke-width:2;stroke-linecap:butt;stroke-linejoin:miter;stroke-miterlimit:4;stroke-opacity:1;stroke-dasharray:none;stroke-dashoffset:0;marker:none;marker-end:url(#Arrow1Mend);visibility:visible;display:inline;overflow:visible;enable-background:accumulate" />
    <path
       id="path6431"
       d="m 53.028932,247.95024 11.18112,0"
       style="color:#000000;fill:none;stroke:#000000;stroke-width:2;stroke-linecap:butt;stroke-linejoin:miter;stroke-miterlimit:4;stroke-opacity:1;stroke-dasharray:none;stroke-dashoffset:0;marker:none;marker-end:url(#Arrow1Mend);visibility:visible;display:inline;overflow:visible;enable-background:accumulate" />
    <path
       sodipodi:nodetypes="cc"
       id="path6241"
       d="m 38.489042,247.95024 14.53989,0"
       style="color:#000000;fill:none;stroke:#000000;stroke-width:2;stroke-linecap:butt;stroke-linejoin:miter;stroke-miterlimit:4;stroke-opacity:1;stroke-dasharray:none;stroke-dashoffset:0;marker:none;marker-end:url(#Arrow1Mend);visibility:visible;display:inline;overflow:visible;enable-background:accumulate" />
    <g
       id="g6603"
       transform="translate(-16.263456,98.287843)">
      <g
         word-spacing="normal"
         letter-spacing="normal"
         font-size-adjust="none"
         font-stretch="normal"
         font-weight="normal"
         font-variant="normal"
         font-style="normal"
         fill-rule="even-odd"
         stroke-miterlimit="10.433"
         xml:space="preserve"
         transform="matrix(0.40780653,0,0,-0.40780653,-71.366142,267.24804)"
         id="content"
         style="font-style:normal;font-variant:normal;font-weight:normal;font-stretch:normal;letter-spacing:normal;word-spacing:normal;text-anchor:start;fill:none;stroke:#000000;stroke-linecap:butt;stroke-linejoin:miter;stroke-miterlimit:10.43299961;stroke-opacity:1;stroke-dasharray:none;stroke-dashoffset:0"><path
           id="path6606"
           d="m 478.02,440.77 -0.04,0.06 -0.03,0.06 -0.03,0.05 -0.02,0.05 -0.03,0.06 -0.03,0.04 -0.03,0.05 -0.02,0.04 -0.03,0.05 -0.03,0.04 -0.02,0.03 -0.03,0.04 -0.03,0.03 -0.03,0.03 -0.03,0.03 -0.03,0.03 -0.04,0.03 -0.03,0.02 -0.04,0.02 -0.04,0.02 -0.04,0.02 -0.04,0.02 -0.05,0.02 -0.05,0.01 -0.05,0.01 -0.05,0.01 -0.06,0.01 -0.06,0.01 -0.07,0 -0.07,0.01 -0.07,0 -0.08,0 c -0.84,0 -0.94,-0.25 -1.29,-0.9 l -0.3,-4.09 13.4,-26.89 h -26.85 l 13.45,26.89 0.3,4.09 L 458.59,407 c -0.25,-0.45 -0.25,-0.55 -0.25,-0.6 0,-0.4 0.3,-0.4 1.1,-0.4 h 34.57 c 0.79,0 1.09,0 1.09,0.4 0,0.05 0,0.15 -0.24,0.6 z"
           style="fill:#000000;stroke-width:0" /><path
           id="path6608"
           d="m 518.77,439.38 0,0 0,0.01 0,0 0,0.01 0,0.01 0,0 0,0.01 0.01,0.01 0,0.02 0,0.02 0.01,0.02 0,0.03 0.01,0.02 0,0.03 0.01,0.03 0.01,0.03 0,0.02 0.01,0.03 0.01,0.06 0.02,0.06 0,0.03 0.01,0.03 0.01,0.02 0,0.03 0.01,0.02 0,0.03 0.01,0.02 0,0.02 0.01,0.01 0,0 0,0.01 0,0.01 0,0.01 0,0 0.01,0.01 0,0.01 0,0 0,0 0,0.01 0,0 c 0,0.05 0,0.5 -0.6,0.5 -0.5,0 -0.55,-0.15 -0.75,-1 l -2.89,-11.5 c -7.92,-0.25 -15.24,-6.88 -15.24,-13.65 0,-4.73 3.49,-8.67 9.56,-9.02 l 0.25,1.1 c -2.98,0.15 -6.57,1.89 -6.57,6.87 0,5.98 4.28,12.95 11.71,13.6 L 509.25,406.5 509,405.4 c -0.39,-1.54 -0.74,-3.13 -1.14,-4.68 -0.6,-2.34 -1.1,-4.24 -1.1,-4.38 0,-0.5 0.35,-0.55 0.6,-0.55 0.25,0 0.35,0.05 0.5,0.2 0.1,0.1 0.4,1.29 0.55,1.99 l 1.89,7.42 0.25,1.1 5.13,20.47 c 3.79,-0.2 6.62,-2.49 6.62,-6.87 0,-5.88 -4.28,-13 -11.75,-13.6 l -0.25,-1.1 c 8.02,0.25 15.24,6.98 15.24,13.65 0,3.93 -2.64,8.52 -9.56,9.02 z"
           style="fill:#000000;stroke-width:0" /><path
           id="path6610"
           d="m 542.55,408.34 0,0.34 0,0.33 -0.01,0.32 -0.01,0.31 -0.01,0.15 -0.02,0.15 -0.01,0.14 -0.02,0.15 -0.03,0.14 -0.02,0.14 -0.03,0.14 -0.04,0.14 -0.04,0.13 -0.04,0.13 -0.05,0.14 -0.06,0.13 -0.06,0.13 -0.07,0.12 -0.07,0.13 -0.08,0.13 -0.09,0.12 -0.1,0.13 -0.1,0.12 -0.11,0.12 -0.12,0.13 -0.13,0.12 -0.14,0.12 -0.14,0.12 c -1.43,1.18 -3.11,1.74 -5.17,1.74 -3.31,0 -5.64,-1.25 -5.64,-3.38 0,-1.12 0.77,-1.71 1.67,-1.71 0.94,0 1.64,0.7 1.64,1.64 0,0.59 -0.28,1.33 -1.22,1.6 1.25,0.87 3.28,0.87 3.49,0.87 1.95,0 4.08,-1.28 4.08,-4.21 v -1.09 -0.9 -3.45 c 0,-3.35 -2.93,-4.29 -4.5,-4.29 -1.78,0 -3.45,1.18 -3.45,2.89 0,1.92 1.67,4.6 7.95,4.85 v 0.9 c -1.92,-0.06 -4.22,-0.17 -6.77,-1.11 -3.13,-1.15 -4.11,-3.07 -4.11,-4.64 0,-3 3.62,-3.87 6.1,-3.87 2.79,0 4.43,1.57 5.16,2.93 0.14,-1.43 1.08,-2.76 2.69,-2.76 0.06,0 3.45,0 3.45,3.32 v 1.91 h -1.19 v -1.88 c 0,-0.35 0,-2.02 -1.29,-2.02 -1.29,0 -1.29,1.64 -1.29,2.09 z"
           style="fill:#000000;stroke-width:0" /><path
           id="path6612"
           d="m 558.41,422.82 v -1.26 c 2.34,0 2.62,-0.24 2.62,-1.95 v -7.22 c -1.29,1.25 -2.96,1.99 -4.88,1.99 l 0.17,-0.98 c 1.68,0 3.18,-0.77 4.15,-2.02 0.42,-0.56 0.42,-0.59 0.42,-1.26 v -7.46 c -0.91,-1.64 -2.69,-3.03 -4.95,-3.03 -1.96,0 -3.35,1.15 -4.04,2.16 -0.7,1.05 -1.12,2.44 -1.12,4.67 0,0.81 0,3.42 1.43,5.06 1.39,1.57 3.1,1.88 4.11,1.88 l -0.17,0.98 c -4.64,0 -8.55,-3.49 -8.55,-7.88 0,-4.36 3.7,-7.85 8.13,-7.85 2.86,0 4.57,1.54 5.16,2.16 v -2.16 l 5.37,0.35 v 1.25 c -2.34,0 -2.61,0.25 -2.61,1.96 v 20.99 z"
           style="fill:#000000;stroke-width:0" /><path
           id="path6614"
           d="m 576.47,420.48 0,0.11 -0.01,0.11 -0.01,0.11 -0.02,0.11 -0.02,0.1 -0.03,0.1 -0.04,0.1 -0.04,0.09 -0.04,0.09 -0.04,0.09 -0.06,0.08 -0.05,0.08 -0.06,0.08 -0.06,0.08 -0.06,0.07 -0.07,0.07 -0.07,0.06 -0.08,0.06 -0.07,0.06 -0.08,0.05 -0.08,0.05 -0.09,0.05 -0.08,0.04 -0.09,0.04 -0.09,0.03 -0.09,0.03 -0.09,0.02 -0.09,0.02 -0.09,0.02 -0.1,0.01 -0.09,0.01 -0.1,0 c -1.21,0 -2.01,-0.97 -2.01,-1.98 0,-1.23 0.97,-2.03 1.98,-2.03 1.22,0 2.02,0.98 2.02,1.99 z"
           style="fill:#000000;stroke-width:0" /><path
           id="path6616"
           d="m 570.97,413.99 v -1.25 c 2.57,0 2.89,-0.24 2.89,-1.95 v -13.46 c 0,-1.33 -0.28,-4.47 -2.62,-4.47 -0.1,0 -0.94,0 -1.74,0.35 0.07,0.04 0.87,0.45 0.87,1.5 0,0.94 -0.7,1.64 -1.64,1.64 -1.01,0 -1.67,-0.7 -1.67,-1.67 0,-1.89 2.09,-2.79 4.22,-2.79 2.82,0 5.19,2.19 5.19,5.5 v 16.99 z"
           style="fill:#000000;stroke-width:0" /><path
           id="path6618"
           d="m 588.91,400.99 0,0.11 -0.01,0.12 -0.01,0.11 -0.02,0.11 -0.03,0.1 -0.03,0.1 -0.03,0.1 -0.04,0.09 -0.05,0.09 -0.05,0.09 -0.05,0.09 -0.06,0.08 -0.06,0.08 -0.06,0.07 -0.07,0.07 -0.07,0.07 -0.07,0.06 -0.07,0.06 -0.08,0.06 -0.08,0.05 -0.08,0.05 -0.08,0.05 -0.09,0.04 -0.08,0.03 -0.09,0.03 -0.09,0.03 -0.09,0.03 -0.08,0.02 -0.09,0.01 -0.09,0.01 -0.09,0.01 -0.09,0 c -1.15,0 -2.02,-0.94 -2.02,-1.99 0,-1.25 1.04,-2.02 1.99,-2.02 1.14,0 2.01,0.94 2.01,1.99 z"
           style="fill:#000000;stroke-width:0" /><path
           id="path6620"
           d="m 643.22,422.29 0.14,0 0.15,0 0.15,0.01 0.07,0 0.07,0 0.07,0.01 0.08,0.01 0.07,0.01 0.07,0.01 0.06,0.02 0.07,0.01 0.07,0.02 0.06,0.02 0.06,0.03 0.06,0.03 0.05,0.03 0.06,0.03 0.05,0.04 0.04,0.04 0.05,0.05 0.03,0.05 0.02,0.03 0.02,0.02 0.02,0.03 0.01,0.03 0.02,0.03 0.01,0.04 0.01,0.03 0.01,0.04 0.01,0.03 0.01,0.04 0.01,0.04 0,0.04 0.01,0.04 0,0.04 0,0.05 0,0.05 c 0,0.99 -0.94,0.99 -1.64,0.99 h -29.84 c -0.7,0 -1.64,0 -1.64,-0.99 0,-1 0.94,-1 1.69,-1 z"
           style="fill:#000000;stroke-width:0" /><path
           id="path6622"
           d="m 643.27,412.62 0.13,0.01 0.14,0 0.14,0 0.07,0.01 0.07,0 0.07,0.01 0.07,0.01 0.07,0.01 0.07,0.01 0.06,0.01 0.07,0.02 0.06,0.02 0.06,0.02 0.06,0.02 0.06,0.03 0.06,0.03 0.05,0.04 0.05,0.04 0.04,0.04 0.05,0.04 0.02,0.03 0.02,0.03 0.01,0.02 0.02,0.03 0.02,0.03 0.01,0.03 0.02,0.03 0.01,0.03 0.01,0.04 0.01,0.03 0.01,0.04 0.01,0.04 0.01,0.04 0,0.04 0.01,0.04 0,0.04 0,0.05 0,0.04 c 0,1 -0.94,1 -1.69,1 h -29.74 c -0.75,0 -1.69,0 -1.69,-1 0,-1 0.94,-1 1.64,-1 z"
           style="fill:#000000;stroke-width:0" /><path
           id="path6624"
           d="m 684.91,421.94 0,0.75 -0.01,0.74 -0.02,0.75 -0.03,0.74 -0.05,0.75 -0.06,0.74 -0.07,0.74 -0.1,0.73 -0.11,0.73 -0.14,0.73 -0.16,0.72 -0.19,0.72 -0.22,0.71 -0.24,0.71 -0.28,0.7 -0.15,0.35 -0.16,0.35 c -2.29,4.78 -6.37,5.58 -8.47,5.58 -2.98,0 -6.62,-1.3 -8.67,-5.93 -1.59,-3.44 -1.84,-7.32 -1.84,-11.31 0,-3.74 0.2,-8.22 2.24,-12.01 2.15,-4.03 5.78,-5.03 8.22,-5.03 v 1.1 c -1.94,0 -4.88,1.25 -5.78,6.03 -0.54,2.99 -0.54,7.57 -0.54,10.51 0,3.19 0,6.47 0.4,9.16 0.94,5.93 4.68,6.38 5.92,6.38 1.65,0 4.94,-0.9 5.88,-5.83 0.5,-2.79 0.5,-6.57 0.5,-9.71 0,-3.74 0,-7.13 -0.55,-10.31 -0.75,-4.73 -3.58,-6.23 -5.83,-6.23 h 0 v -1.1 c 2.69,0 6.48,1.05 8.67,5.78 1.59,3.44 1.84,7.32 1.84,11.26 z"
           style="fill:#000000;stroke-width:0" /><path
           id="path6626"
           d="m 697.11,406.05 0,0.31 -0.01,0.29 -0.02,0.29 -0.02,0.28 -0.04,0.27 -0.03,0.26 -0.05,0.26 -0.05,0.24 -0.06,0.24 -0.07,0.23 -0.07,0.22 -0.07,0.21 -0.09,0.2 -0.09,0.19 -0.09,0.18 -0.1,0.18 -0.11,0.16 -0.11,0.15 -0.12,0.15 -0.12,0.13 -0.13,0.13 -0.13,0.11 -0.14,0.1 -0.15,0.1 -0.15,0.08 -0.15,0.07 -0.16,0.06 -0.16,0.05 -0.17,0.04 -0.17,0.03 -0.17,0.02 -0.18,0 c -1.65,0 -2.65,-1.24 -2.65,-2.64 0,-1.34 1,-2.64 2.65,-2.64 0.59,0 1.24,0.2 1.74,0.65 0.15,0.1 0.2,0.15 0.25,0.15 0.05,0 0.1,-0.05 0.1,-0.75 0,-3.69 -1.75,-6.67 -3.39,-8.32 -0.55,-0.55 -0.55,-0.65 -0.55,-0.8 0,-0.34 0.25,-0.54 0.5,-0.54 0.55,0 4.53,3.83 4.53,9.66 z"
           style="fill:#000000;stroke-width:0" /><path
           id="path6628"
           d="m 715.33,409.84 5.27,5.12 c 7.78,6.88 10.77,9.57 10.77,14.55 0,5.68 -4.49,9.67 -10.57,9.67 -5.62,0 -9.31,-4.59 -9.31,-9.02 0,-2.79 2.49,-2.79 2.64,-2.79 0.85,0 2.59,0.6 2.59,2.64 0,1.29 -0.9,2.59 -2.64,2.59 -0.4,0 -0.5,0 -0.65,-0.05 1.15,3.24 3.84,5.08 6.73,5.08 4.53,0 6.67,-4.03 6.67,-8.12 0,-3.98 -2.49,-7.92 -5.23,-11.01 l -9.56,-10.66 c -0.55,-0.54 -0.55,-0.64 -0.55,-1.84 h 18.48 l 1.4,8.67 h -1.25 c -0.25,-1.5 -0.6,-3.69 -1.1,-4.44 -0.34,-0.39 -3.63,-0.39 -4.73,-0.39 z"
           style="fill:#000000;stroke-width:0" /><path
           id="path6630"
           d="m 747.2,424.58 h 5.63 c -1.65,-7.37 -2.09,-9.51 -2.09,-12.85 0,-0.75 0,-2.09 0.4,-3.79 0.49,-2.19 1.04,-2.49 1.79,-2.49 1,0 2.04,0.9 2.04,1.89 0,0.3 0,0.4 -0.3,1.1 -1.44,3.59 -1.44,6.83 -1.44,8.22 0,2.64 0.35,5.33 0.89,7.92 h 5.68 c 0.65,0 2.44,0 2.44,1.69 0,1.2 -1.04,1.2 -1.99,1.2 h -16.69 c -1.09,0 -2.99,0 -5.18,-2.34 -1.74,-1.95 -3.04,-4.24 -3.04,-4.49 0,-0.05 0,-0.49 0.6,-0.49 0.4,0 0.5,0.2 0.8,0.6 2.44,3.83 5.33,3.83 6.33,3.83 h 2.84 c -1.6,-6.03 -4.29,-12.05 -6.38,-16.59 -0.4,-0.74 -0.4,-0.85 -0.4,-1.19 0,-0.95 0.8,-1.35 1.44,-1.35 1.5,0 1.9,1.4 2.5,3.24 0.69,2.29 0.69,2.39 1.34,4.88 z"
           style="fill:#000000;stroke-width:0" /><path
           id="path6632"
           d="m 774.11,406.05 0,0.31 -0.01,0.29 -0.02,0.29 -0.02,0.28 -0.04,0.27 -0.03,0.26 -0.05,0.26 -0.05,0.24 -0.06,0.24 -0.07,0.23 -0.07,0.22 -0.07,0.21 -0.09,0.2 -0.09,0.19 -0.09,0.18 -0.1,0.18 -0.11,0.16 -0.11,0.15 -0.12,0.15 -0.12,0.13 -0.13,0.13 -0.13,0.11 -0.14,0.1 -0.15,0.1 -0.15,0.08 -0.15,0.07 -0.16,0.06 -0.16,0.05 -0.17,0.04 -0.17,0.03 -0.17,0.02 -0.18,0 c -1.65,0 -2.65,-1.24 -2.65,-2.64 0,-1.34 1,-2.64 2.65,-2.64 0.59,0 1.24,0.2 1.74,0.65 0.15,0.1 0.2,0.15 0.25,0.15 0.05,0 0.1,-0.05 0.1,-0.75 0,-3.69 -1.75,-6.67 -3.39,-8.32 -0.55,-0.55 -0.55,-0.65 -0.55,-0.8 0,-0.34 0.25,-0.54 0.5,-0.54 0.55,0 4.53,3.83 4.53,9.66 z"
           style="fill:#000000;stroke-width:0" /><path
           id="path6634"
           d="m 800.65,414.22 v -4.33 c 0,-1.8 -0.1,-2.35 -3.79,-2.35 h -1.05 V 406 h 13.5 v 1.54 h -1.04 c -3.69,0 -3.79,0.55 -3.79,2.35 v 4.33 h 4.98 v 1.54 h -4.98 v 22.67 c 0,1 0,1.29 -0.8,1.29 -0.45,0 -0.59,0 -0.99,-0.6 L 787.4,415.76 h 1.39 l 12.16,18.58 v -18.58 h -12.16 -1.39 v -1.54 z"
           style="fill:#000000;stroke-width:0" /><path
           id="path6636"
           d="m 824.2,424.58 h 5.63 c -1.65,-7.37 -2.09,-9.51 -2.09,-12.85 0,-0.75 0,-2.09 0.4,-3.79 0.49,-2.19 1.04,-2.49 1.79,-2.49 1,0 2.04,0.9 2.04,1.89 0,0.3 0,0.4 -0.3,1.1 -1.44,3.59 -1.44,6.83 -1.44,8.22 0,2.64 0.35,5.33 0.89,7.92 h 5.68 c 0.65,0 2.44,0 2.44,1.69 0,1.2 -1.04,1.2 -1.99,1.2 h -16.69 c -1.09,0 -2.99,0 -5.18,-2.34 -1.74,-1.95 -3.04,-4.24 -3.04,-4.49 0,-0.05 0,-0.49 0.6,-0.49 0.4,0 0.5,0.2 0.8,0.6 2.44,3.83 5.33,3.83 6.33,3.83 h 2.84 c -1.6,-6.03 -4.29,-12.05 -6.38,-16.59 -0.4,-0.74 -0.4,-0.85 -0.4,-1.19 0,-0.95 0.8,-1.35 1.44,-1.35 1.5,0 1.9,1.4 2.5,3.24 0.69,2.29 0.69,2.39 1.34,4.88 z"
           style="fill:#000000;stroke-width:0" /><path
           id="path6638"
           d="m 851.11,406.05 0,0.31 -0.01,0.29 -0.02,0.29 -0.02,0.28 -0.04,0.27 -0.03,0.26 -0.05,0.26 -0.05,0.24 -0.06,0.24 -0.07,0.23 -0.07,0.22 -0.07,0.21 -0.09,0.2 -0.09,0.19 -0.09,0.18 -0.1,0.18 -0.11,0.16 -0.11,0.15 -0.12,0.15 -0.12,0.13 -0.13,0.13 -0.13,0.11 -0.14,0.1 -0.15,0.1 -0.15,0.08 -0.15,0.07 -0.16,0.06 -0.16,0.05 -0.17,0.04 -0.17,0.03 -0.17,0.02 -0.18,0 c -1.65,0 -2.65,-1.24 -2.65,-2.64 0,-1.34 1,-2.64 2.65,-2.64 0.59,0 1.24,0.2 1.74,0.65 0.15,0.1 0.2,0.15 0.25,0.15 0.05,0 0.1,-0.05 0.1,-0.75 0,-3.69 -1.75,-6.67 -3.39,-8.32 -0.55,-0.55 -0.55,-0.65 -0.55,-0.8 0,-0.34 0.25,-0.54 0.5,-0.54 0.55,0 4.53,3.83 4.53,9.66 z"
           style="fill:#000000;stroke-width:0" /><path
           id="path6640"
           d="m 872.56,418.45 0,0.14 -0.01,0.13 -0.02,0.13 -0.02,0.13 -0.03,0.13 -0.04,0.12 -0.04,0.13 -0.05,0.12 -0.05,0.11 -0.06,0.12 -0.06,0.11 -0.07,0.1 -0.08,0.11 -0.07,0.1 -0.09,0.09 -0.09,0.1 -0.09,0.08 -0.09,0.09 -0.1,0.08 -0.11,0.07 -0.1,0.07 -0.11,0.06 -0.12,0.06 -0.11,0.05 -0.12,0.05 -0.13,0.04 -0.12,0.04 -0.13,0.03 -0.13,0.02 -0.13,0.02 -0.13,0.01 -0.13,0 c -1.45,0 -2.65,-1.19 -2.65,-2.64 0,-1.44 1.2,-2.64 2.65,-2.64 1.44,0 2.63,1.2 2.63,2.64 z"
           style="fill:#000000;stroke-width:0" /><path
           id="path6642"
           d="m 894.56,418.45 0,0.14 -0.01,0.13 -0.02,0.13 -0.02,0.13 -0.03,0.13 -0.04,0.12 -0.04,0.13 -0.05,0.12 -0.05,0.11 -0.06,0.12 -0.06,0.11 -0.07,0.1 -0.08,0.11 -0.07,0.1 -0.09,0.09 -0.09,0.1 -0.09,0.08 -0.09,0.09 -0.1,0.08 -0.11,0.07 -0.1,0.07 -0.11,0.06 -0.12,0.06 -0.11,0.05 -0.12,0.05 -0.13,0.04 -0.12,0.04 -0.13,0.03 -0.13,0.02 -0.13,0.02 -0.13,0.01 -0.13,0 c -1.45,0 -2.65,-1.19 -2.65,-2.64 0,-1.44 1.2,-2.64 2.65,-2.64 1.44,0 2.63,1.2 2.63,2.64 z"
           style="fill:#000000;stroke-width:0" /><path
           id="path6644"
           d="m 916.56,418.45 0,0.14 -0.01,0.13 -0.02,0.13 -0.02,0.13 -0.03,0.13 -0.04,0.12 -0.04,0.13 -0.05,0.12 -0.05,0.11 -0.06,0.12 -0.06,0.11 -0.07,0.1 -0.08,0.11 -0.07,0.1 -0.09,0.09 -0.09,0.1 -0.09,0.08 -0.09,0.09 -0.1,0.08 -0.11,0.07 -0.1,0.07 -0.11,0.06 -0.12,0.06 -0.11,0.05 -0.12,0.05 -0.13,0.04 -0.12,0.04 -0.13,0.03 -0.13,0.02 -0.13,0.02 -0.13,0.01 -0.13,0 c -1.45,0 -2.65,-1.19 -2.65,-2.64 0,-1.44 1.2,-2.64 2.65,-2.64 1.44,0 2.63,1.2 2.63,2.64 z"
           style="fill:#000000;stroke-width:0" /></g>    </g>
    <path
       style="color:#000000;fill:none;stroke:#000000;stroke-width:2;stroke-linecap:butt;stroke-linejoin:miter;stroke-miterlimit:4;stroke-opacity:1;stroke-dasharray:none;stroke-dashoffset:0;marker:none;marker-end:url(#Arrow1Mend);visibility:visible;display:inline;overflow:visible;enable-background:accumulate"
       d="M 117.14427,207.9987 C 70.87013,251.21507 97.3375,190.97468 52.44399,240.34883"
       id="path6710"
       sodipodi:nodetypes="cc" />
  </g>
</svg>
