<?xml version="1.0" encoding="UTF-8" standalone="no"?>
<!-- Created with Inkscape (http://www.inkscape.org/) -->

<svg
   xmlns:dc="http://purl.org/dc/elements/1.1/"
   xmlns:cc="http://creativecommons.org/ns#"
   xmlns:rdf="http://www.w3.org/1999/02/22-rdf-syntax-ns#"
   xmlns:svg="http://www.w3.org/2000/svg"
   xmlns="http://www.w3.org/2000/svg"
   xmlns:sodipodi="http://sodipodi.sourceforge.net/DTD/sodipodi-0.dtd"
   xmlns:inkscape="http://www.inkscape.org/namespaces/inkscape"
   width="356.33072"
   height="285.46457"
   id="svg2876"
   version="1.1"
   inkscape:version="0.47 r22583"
   sodipodi:docname="manySlitPhasorsMax.svg">
  <sodipodi:namedview
     id="base"
     pagecolor="#ffffff"
     bordercolor="#666666"
     borderopacity="1.0"
     inkscape:pageopacity="0.0"
     inkscape:pageshadow="2"
     inkscape:zoom="1.4142136"
     inkscape:cx="406.89619"
     inkscape:cy="60.620674"
     inkscape:document-units="px"
     inkscape:current-layer="layer1"
     showgrid="false"
     inkscape:window-width="1920"
     inkscape:window-height="1000"
     inkscape:window-x="0"
     inkscape:window-y="27"
     inkscape:window-maximized="1" />
  <defs
     id="defs2878">
    <marker
       inkscape:stockid="Arrow1Mend"
       orient="auto"
       refY="0.0"
       refX="0.0"
       id="Arrow1Mend"
       style="overflow:visible;">
      <path
         id="path3598"
         d="M 0.0,0.0 L 5.0,-5.0 L -12.5,0.0 L 5.0,5.0 L 0.0,0.0 z "
         style="fill-rule:evenodd;stroke:#000000;stroke-width:1.0pt;marker-start:none;"
         transform="scale(0.4) rotate(180) translate(10,0)" />
    </marker>
    <marker
       inkscape:stockid="DotM"
       orient="auto"
       refY="0.0"
       refX="0.0"
       id="DotM"
       style="overflow:visible">
      <path
         id="path3654"
         d="M -2.5,-1.0 C -2.5,1.7600000 -4.7400000,4.0 -7.5,4.0 C -10.260000,4.0 -12.5,1.7600000 -12.5,-1.0 C -12.5,-3.7600000 -10.260000,-6.0 -7.5,-6.0 C -4.7400000,-6.0 -2.5,-3.7600000 -2.5,-1.0 z "
         style="fill-rule:evenodd;stroke:#000000;stroke-width:1.0pt;marker-start:none;marker-end:none"
         transform="scale(0.4) translate(7.4, 1)" />
    </marker>
    <inkscape:perspective
       sodipodi:type="inkscape:persp3d"
       inkscape:vp_x="0 : 526.18109 : 1"
       inkscape:vp_y="0 : 1000 : 0"
       inkscape:vp_z="744.09448 : 526.18109 : 1"
       inkscape:persp3d-origin="372.04724 : 350.78739 : 1"
       id="perspective2884" />
  </defs>
  <metadata
     id="metadata2881">
    <rdf:RDF>
      <cc:Work
         rdf:about="">
        <dc:format>image/svg+xml</dc:format>
        <dc:type
           rdf:resource="http://purl.org/dc/dcmitype/StillImage" />
        <dc:title></dc:title>
      </cc:Work>
    </rdf:RDF>
  </metadata>
  <g
     inkscape:label="Layer 1"
     inkscape:groupmode="layer"
     id="layer1"
     transform="translate(-4.7142859,-2.7907541)">
    <path
       style="color:#000000;fill:none;stroke:#000000;stroke-width:1.32587457;stroke-linecap:butt;stroke-linejoin:miter;stroke-miterlimit:4;stroke-opacity:1;stroke-dasharray:5.30349827, 1.32587457;stroke-dashoffset:0;marker:none;marker-end:url(#Arrow1Mend);visibility:visible;display:inline;overflow:visible;enable-background:accumulate"
       d="m 131.85439,259.51601 209.52383,0"
       id="path4468"
       sodipodi:nodetypes="cc"
       inkscape:transform-center-x="-136.99776" />
    <path
       sodipodi:nodetypes="cc"
       id="path4464"
       d="m 132.45414,260.4188 0,-164.094"
       style="color:#000000;fill:none;stroke:#000000;stroke-width:1.32587457;stroke-linecap:butt;stroke-linejoin:miter;stroke-miterlimit:4;stroke-opacity:1;stroke-dasharray:5.30349827, 1.32587457;stroke-dashoffset:0;marker:none;marker-end:url(#Arrow1Mend);visibility:visible;display:inline;overflow:visible;enable-background:accumulate"
       inkscape:transform-center-y="-136.99776" />
    <text
       sodipodi:linespacing="100%"
       id="text4727"
       y="93.899933"
       x="111.48161"
       style="font-size:23.77140999px;font-style:normal;font-variant:normal;font-weight:normal;font-stretch:normal;text-align:start;line-height:100%;writing-mode:lr-tb;text-anchor:start;fill:#000000;fill-opacity:1;stroke:none;font-family:Arial;-inkscape-font-specification:Arial"
       xml:space="preserve"><tspan
         y="93.899933"
         x="111.48161"
         id="tspan4729"
         sodipodi:role="line">Im</tspan></text>
    <text
       xml:space="preserve"
       style="font-size:23.77140999px;font-style:normal;font-variant:normal;font-weight:normal;font-stretch:normal;text-align:start;line-height:100%;writing-mode:lr-tb;text-anchor:start;fill:#000000;fill-opacity:1;stroke:none;font-family:Arial;-inkscape-font-specification:Arial"
       x="317.31653"
       y="250.56897"
       id="text4731"
       sodipodi:linespacing="100%"><tspan
         sodipodi:role="line"
         id="tspan4733"
         x="317.31653"
         y="250.56897">Re</tspan></text>
    <g
       id="g4941"
       transform="translate(29.108107,151.87439)">
      <g
         word-spacing="normal"
         letter-spacing="normal"
         font-size-adjust="none"
         font-stretch="normal"
         font-weight="normal"
         font-variant="normal"
         font-style="normal"
         fill-rule="even-odd"
         stroke-miterlimit="10.433"
         xml:space="preserve"
         transform="matrix(0.40780653,0,0,-0.40780653,-71.366142,267.24804)"
         id="g4943"
         style="font-style:normal;font-variant:normal;font-weight:normal;font-stretch:normal;letter-spacing:normal;word-spacing:normal;text-anchor:start;fill:none;stroke:#000000;stroke-linecap:butt;stroke-linejoin:miter;stroke-miterlimit:10.43299961;stroke-opacity:1;stroke-dasharray:none;stroke-dashoffset:0"><path
           id="path4945"
           d="m 464.92,411.73 -0.19,-0.31 -0.19,-0.29 -0.18,-0.27 -0.19,-0.26 -0.18,-0.25 -0.19,-0.23 -0.19,-0.23 -0.18,-0.2 -0.19,-0.2 -0.18,-0.18 -0.19,-0.17 -0.19,-0.16 -0.19,-0.15 -0.18,-0.14 -0.19,-0.13 -0.19,-0.12 -0.19,-0.11 -0.19,-0.1 -0.19,-0.09 -0.19,-0.09 -0.2,-0.07 -0.19,-0.07 -0.19,-0.06 -0.2,-0.06 -0.2,-0.05 -0.19,-0.04 -0.2,-0.04 -0.2,-0.03 -0.4,-0.05 -0.41,-0.04 c -0.6,-0.04 -1.05,-0.04 -1.05,-0.99 0,-0.3 0.25,-0.55 0.65,-0.55 h 9.27 c 0.3,0 0.94,0 0.94,0.95 0,0.55 -0.44,0.59 -0.8,0.59 -1.14,0.1 -2.34,0.5 -2.34,1.75 0,0.6 0.3,1.14 0.7,1.84 l 3.79,6.38 h 12.5 l -0.15,1.54 h -11.41 l 9.82,16.44 1.59,-16.44 0.15,-1.54 c 0.1,-1.05 0.8,-7.82 0.8,-8.32 0,-1.49 -2.59,-1.65 -3.59,-1.65 -0.7,0 -1.2,0 -1.2,-0.99 0,-0.55 0.6,-0.55 0.7,-0.55 h 11.86 c 0.3,0 0.89,0 0.89,1 0,0.54 -0.49,0.54 -1.14,0.54 -3.09,0 -3.09,0.35 -3.24,1.8 l -3.04,31.13 c -0.1,1 -0.1,1.2 -0.94,1.2 -0.8,0 -1,-0.35 -1.3,-0.85 z"
           style="fill:#000000;stroke-width:0" /></g>    </g>
    <g
       transform="matrix(0.99997864,-0.00653594,0.00653594,0.99997864,101.42241,-83.227802)"
       id="g5947">
      <path
         style="fill:none;stroke:#000000;stroke-width:1.5;stroke-miterlimit:4;stroke-opacity:1;stroke-dashoffset:0;marker-end:url(#Arrow1Mend)"
         d="M 35.103137,95.575175 -2.4285676,106.82676"
         id="path5945" />
      <path
         style="fill:none;stroke:#000000;stroke-width:1.5;stroke-miterlimit:4;stroke-opacity:1;stroke-dashoffset:0;marker-end:url(#Arrow1Mend)"
         d="M -2.4285676,106.82676 -34.646409,129.12558"
         id="path5943" />
      <path
         style="fill:none;stroke:#000000;stroke-width:1.5;stroke-miterlimit:4;stroke-opacity:1;stroke-dashoffset:0;marker-end:url(#Arrow1Mend)"
         d="M -34.646409,129.12558 -58.39668,160.28889"
         id="path5941" />
      <path
         style="fill:none;stroke:#000000;stroke-width:1.5;stroke-miterlimit:4;stroke-opacity:1;stroke-dashoffset:0;marker-end:url(#Arrow1Mend)"
         d="m -58.39668,160.28889 -12.957859,36.9773"
         id="path5939" />
      <path
         style="fill:none;stroke:#000000;stroke-width:1.5;stroke-miterlimit:4;stroke-opacity:1;stroke-dashoffset:0;marker-end:url(#Arrow1Mend)"
         d="M -71.354539,197.26619 -72.25158,236.4379"
         id="path5937" />
      <path
         style="fill:none;stroke:#000000;stroke-width:1.5;stroke-miterlimit:4;stroke-opacity:1;stroke-dashoffset:0;marker-end:url(#Arrow1Mend)"
         d="m -72.25158,236.4379 11.251586,37.5317"
         id="path5935" />
      <path
         style="fill:none;stroke:#000000;stroke-width:1.5;stroke-miterlimit:4;stroke-opacity:1;stroke-dashoffset:0;marker-end:url(#Arrow1Mend)"
         d="m -60.999994,273.9696 22.298828,32.21784"
         id="path5933" />
      <path
         style="fill:none;stroke:#000000;stroke-width:1.5;stroke-miterlimit:4;stroke-opacity:1;stroke-dashoffset:0;marker-end:url(#Arrow1Mend)"
         d="m -38.701166,306.18744 31.1633069,23.75028"
         id="path5931" />
      <path
         style="fill:none;stroke:#000000;stroke-width:1.5;stroke-miterlimit:4;stroke-opacity:1;stroke-dashoffset:0;marker-end:url(#Arrow1Mend)"
         d="M -7.5378591,329.93772 29.439444,342.89557"
         id="path5929" />
      <path
         style="fill:none;stroke:#000000;stroke-width:1.5;stroke-miterlimit:4;stroke-opacity:1;stroke-dashoffset:0;marker-end:url(#Arrow1Mend)"
         d="m 29.439444,342.89557 39.171704,0.89704"
         id="path5927" />
      <path
         style="fill:none;stroke:#000000;stroke-width:1.5;stroke-miterlimit:4;stroke-opacity:1;stroke-dashoffset:0;marker-end:url(#Arrow1Mend)"
         d="M 68.611148,343.79261 106.14286,332.54103"
         id="path5925" />
      <path
         style="fill:none;stroke:#000000;stroke-width:1.5;stroke-miterlimit:4;stroke-opacity:1;stroke-dashoffset:0;marker-end:url(#Arrow1Mend)"
         d="M 106.14286,332.54103 138.3607,310.2422"
         id="path5923" />
      <path
         style="fill:none;stroke:#000000;stroke-width:1.5;stroke-miterlimit:4;stroke-opacity:1;stroke-dashoffset:0;marker-end:url(#Arrow1Mend)"
         d="m 138.3607,310.2422 23.75027,-31.16331"
         id="path5921" />
      <path
         style="fill:none;stroke:#000000;stroke-width:1.5;stroke-miterlimit:4;stroke-opacity:1;stroke-dashoffset:0;marker-end:url(#Arrow1Mend)"
         d="m 162.11097,279.07889 12.95786,-36.9773"
         id="path5919" />
      <path
         style="fill:none;stroke:#000000;stroke-width:1.5;stroke-miterlimit:4;stroke-opacity:1;stroke-dashoffset:0;marker-end:url(#Arrow1Mend)"
         d="m 175.06883,242.10159 0.89704,-39.1717"
         id="path5917" />
      <path
         style="fill:none;stroke:#000000;stroke-width:1.5;stroke-miterlimit:4;stroke-opacity:1;stroke-dashoffset:0;marker-end:url(#Arrow1Mend)"
         d="M 175.96587,202.92989 164.71428,165.39818"
         id="path5915" />
      <path
         style="fill:none;stroke:#000000;stroke-width:1.5;stroke-miterlimit:4;stroke-opacity:1;stroke-dashoffset:0;marker-end:url(#Arrow1Mend)"
         d="M 164.71428,165.39818 142.41545,133.18034"
         id="path5913" />
      <path
         style="fill:none;stroke:#000000;stroke-width:1.5;stroke-miterlimit:4;stroke-opacity:1;stroke-dashoffset:0;marker-end:url(#Arrow1Mend)"
         d="m 142.41545,133.18034 -31.1633,-23.75027"
         id="path5911" />
      <path
         style="fill:none;stroke:#000000;stroke-width:1.5;stroke-miterlimit:4;stroke-opacity:1;stroke-dashoffset:0;marker-end:url(#Arrow1Mend)"
         d="M 111.25215,109.43007 74.274841,96.472215"
         id="path5909" />
      <path
         style="fill:none;stroke:#000000;stroke-width:1.5;stroke-miterlimit:4;stroke-opacity:1;stroke-dashoffset:0;marker-end:url(#Arrow1Mend)"
         d="M 74.274841,96.472215 35.103137,95.575175"
         id="path5532" />
    </g>
    <g
       id="g6009"
       transform="translate(-70.003572,176.06959)">
      <g
         word-spacing="normal"
         letter-spacing="normal"
         font-size-adjust="none"
         font-stretch="normal"
         font-weight="normal"
         font-variant="normal"
         font-style="normal"
         fill-rule="even-odd"
         stroke-miterlimit="10.433"
         xml:space="preserve"
         transform="matrix(0.40780653,0,0,-0.40780653,-71.366142,267.24804)"
         id="content"
         style="font-style:normal;font-variant:normal;font-weight:normal;font-stretch:normal;letter-spacing:normal;word-spacing:normal;text-anchor:start;fill:none;stroke:#000000;stroke-linecap:butt;stroke-linejoin:miter;stroke-miterlimit:10.43299961;stroke-opacity:1;stroke-dasharray:none;stroke-dashoffset:0"><path
           id="path6012"
           d="m 478.02,440.77 -0.04,0.06 -0.03,0.06 -0.03,0.05 -0.02,0.05 -0.03,0.06 -0.03,0.04 -0.03,0.05 -0.02,0.04 -0.03,0.05 -0.03,0.04 -0.02,0.03 -0.03,0.04 -0.03,0.03 -0.03,0.03 -0.03,0.03 -0.03,0.03 -0.04,0.03 -0.03,0.02 -0.04,0.02 -0.04,0.02 -0.04,0.02 -0.04,0.02 -0.05,0.02 -0.05,0.01 -0.05,0.01 -0.05,0.01 -0.06,0.01 -0.06,0.01 -0.07,0 -0.07,0.01 -0.07,0 -0.08,0 c -0.84,0 -0.94,-0.25 -1.29,-0.9 l -0.3,-4.09 13.4,-26.89 h -26.85 l 13.45,26.89 0.3,4.09 L 458.59,407 c -0.25,-0.45 -0.25,-0.55 -0.25,-0.6 0,-0.4 0.3,-0.4 1.1,-0.4 h 34.57 c 0.79,0 1.09,0 1.09,0.4 0,0.05 0,0.15 -0.24,0.6 z"
           style="fill:#000000;stroke-width:0" /><path
           id="path6014"
           d="m 518.77,439.38 0,0 0,0.01 0,0 0,0.01 0,0.01 0,0 0,0.01 0.01,0.01 0,0.02 0,0.02 0.01,0.02 0,0.03 0.01,0.02 0,0.03 0.01,0.03 0.01,0.03 0,0.02 0.01,0.03 0.01,0.06 0.02,0.06 0,0.03 0.01,0.03 0.01,0.02 0,0.03 0.01,0.02 0,0.03 0.01,0.02 0,0.02 0.01,0.01 0,0 0,0.01 0,0.01 0,0.01 0,0 0.01,0.01 0,0.01 0,0 0,0 0,0.01 0,0 c 0,0.05 0,0.5 -0.6,0.5 -0.5,0 -0.55,-0.15 -0.75,-1 l -2.89,-11.5 c -7.92,-0.25 -15.24,-6.88 -15.24,-13.65 0,-4.73 3.49,-8.67 9.56,-9.02 l 0.25,1.1 c -2.98,0.15 -6.57,1.89 -6.57,6.87 0,5.98 4.28,12.95 11.71,13.6 L 509.25,406.5 509,405.4 c -0.39,-1.54 -0.74,-3.13 -1.14,-4.68 -0.6,-2.34 -1.1,-4.24 -1.1,-4.38 0,-0.5 0.35,-0.55 0.6,-0.55 0.25,0 0.35,0.05 0.5,0.2 0.1,0.1 0.4,1.29 0.55,1.99 l 1.89,7.42 0.25,1.1 5.13,20.47 c 3.79,-0.2 6.62,-2.49 6.62,-6.87 0,-5.88 -4.28,-13 -11.75,-13.6 l -0.25,-1.1 c 8.02,0.25 15.24,6.98 15.24,13.65 0,3.93 -2.64,8.52 -9.56,9.02 z"
           style="fill:#000000;stroke-width:0" /><path
           id="path6016"
           d="m 534.01,412.77 h 5.44 v 1.26 h -5.44 v 6.42 h -1.19 c -0.03,-3.15 -1.46,-6.59 -4.81,-6.7 v -0.98 h 3.24 v -9.41 c 0,-3.91 2.93,-4.71 4.89,-4.71 2.33,0 3.93,1.99 3.93,4.74 v 1.92 h -1.18 v -1.88 c 0,-2.37 -1.12,-3.66 -2.48,-3.66 -2.4,0 -2.4,2.93 -2.4,3.55 z"
           style="fill:#000000;stroke-width:0" /><path
           id="path6018"
           d="m 560.45,406.43 -0.02,0.4 -0.03,0.41 -0.05,0.39 -0.07,0.4 -0.1,0.38 -0.11,0.38 -0.13,0.38 -0.15,0.36 -0.17,0.36 -0.19,0.35 -0.2,0.34 -0.22,0.33 -0.23,0.32 -0.26,0.31 -0.26,0.3 -0.28,0.28 -0.3,0.28 -0.3,0.25 -0.33,0.25 -0.33,0.23 -0.35,0.21 -0.35,0.2 -0.37,0.19 -0.38,0.16 -0.39,0.15 -0.4,0.13 -0.41,0.12 -0.42,0.09 -0.43,0.07 -0.43,0.06 -0.44,0.03 -0.45,0.01 v -0.98 c 2.06,0 3.53,-0.97 4.29,-2.05 0.98,-1.36 1.08,-3.11 1.08,-4.78 0,-1.67 -0.1,-3.52 -1.11,-4.95 -0.94,-1.33 -2.55,-2.02 -4.26,-2.02 h 0 c -1.29,0 -3.17,0.42 -4.32,2.12 -0.94,1.43 -1.05,3.25 -1.05,4.85 0,1.5 0.04,3.56 1.26,5.06 0.87,1.01 2.33,1.77 4.11,1.77 v 0.98 c -4.81,0 -8.54,-3.76 -8.54,-8.12 0,-4.33 3.84,-7.78 8.54,-7.78 4.71,0 8.55,3.45 8.55,7.78 z"
           style="fill:#000000;stroke-width:0" /><path
           id="path6020"
           d="m 569.01,412.77 h 5.44 v 1.26 h -5.44 v 6.42 h -1.19 c -0.03,-3.15 -1.46,-6.59 -4.81,-6.7 v -0.98 h 3.24 v -9.41 c 0,-3.91 2.93,-4.71 4.89,-4.71 2.33,0 3.93,1.99 3.93,4.74 v 1.92 h -1.18 v -1.88 c 0,-2.37 -1.12,-3.66 -2.48,-3.66 -2.4,0 -2.4,2.93 -2.4,3.55 z"
           style="fill:#000000;stroke-width:0" /><path
           id="path6022"
           d="m 585.91,400.99 0,0.11 -0.01,0.12 -0.01,0.11 -0.02,0.11 -0.03,0.1 -0.03,0.1 -0.03,0.1 -0.04,0.09 -0.05,0.09 -0.05,0.09 -0.05,0.09 -0.06,0.08 -0.06,0.08 -0.06,0.07 -0.07,0.07 -0.07,0.07 -0.07,0.06 -0.07,0.06 -0.08,0.06 -0.08,0.05 -0.08,0.05 -0.08,0.05 -0.09,0.04 -0.08,0.03 -0.09,0.03 -0.09,0.03 -0.09,0.03 -0.08,0.02 -0.09,0.01 -0.09,0.01 -0.09,0.01 -0.09,0 c -1.15,0 -2.02,-0.94 -2.02,-1.99 0,-1.25 1.04,-2.02 1.99,-2.02 1.14,0 2.01,0.94 2.01,1.99 z"
           style="fill:#000000;stroke-width:0" /><path
           id="path6024"
           d="m 640.22,422.29 0.14,0 0.15,0 0.15,0.01 0.07,0 0.07,0 0.07,0.01 0.08,0.01 0.07,0.01 0.07,0.01 0.06,0.02 0.07,0.01 0.07,0.02 0.06,0.02 0.06,0.03 0.06,0.03 0.05,0.03 0.06,0.03 0.05,0.04 0.04,0.04 0.05,0.05 0.03,0.05 0.02,0.03 0.02,0.02 0.02,0.03 0.01,0.03 0.02,0.03 0.01,0.04 0.01,0.03 0.01,0.04 0.01,0.03 0.01,0.04 0.01,0.04 0,0.04 0.01,0.04 0,0.04 0,0.05 0,0.05 c 0,0.99 -0.94,0.99 -1.64,0.99 h -29.84 c -0.7,0 -1.64,0 -1.64,-0.99 0,-1 0.94,-1 1.69,-1 z"
           style="fill:#000000;stroke-width:0" /><path
           id="path6026"
           d="m 640.27,412.62 0.13,0.01 0.14,0 0.14,0 0.07,0.01 0.07,0 0.07,0.01 0.07,0.01 0.07,0.01 0.07,0.01 0.06,0.01 0.07,0.02 0.06,0.02 0.06,0.02 0.06,0.02 0.06,0.03 0.06,0.03 0.05,0.04 0.05,0.04 0.04,0.04 0.05,0.04 0.02,0.03 0.02,0.03 0.01,0.02 0.02,0.03 0.02,0.03 0.01,0.03 0.02,0.03 0.01,0.03 0.01,0.04 0.01,0.03 0.01,0.04 0.01,0.04 0.01,0.04 0,0.04 0.01,0.04 0,0.04 0,0.05 0,0.04 c 0,1 -0.94,1 -1.69,1 h -29.74 c -0.75,0 -1.69,0 -1.69,-1 0,-1 0.94,-1 1.64,-1 z"
           style="fill:#000000;stroke-width:0" /><path
           id="path6028"
           d="m 664.33,409.84 5.27,5.12 c 7.78,6.88 10.77,9.57 10.77,14.55 0,5.68 -4.49,9.67 -10.57,9.67 -5.62,0 -9.31,-4.59 -9.31,-9.02 0,-2.79 2.49,-2.79 2.64,-2.79 0.85,0 2.59,0.6 2.59,2.64 0,1.29 -0.9,2.59 -2.64,2.59 -0.4,0 -0.5,0 -0.65,-0.05 1.15,3.24 3.84,5.08 6.73,5.08 4.53,0 6.67,-4.03 6.67,-8.12 0,-3.98 -2.49,-7.92 -5.23,-11.01 l -9.56,-10.66 c -0.55,-0.54 -0.55,-0.64 -0.55,-1.84 h 18.48 l 1.4,8.67 h -1.25 c -0.25,-1.5 -0.6,-3.69 -1.1,-4.44 -0.34,-0.39 -3.63,-0.39 -4.73,-0.39 z"
           style="fill:#000000;stroke-width:0" /><path
           id="path6030"
           d="m 696.2,424.58 h 5.63 c -1.65,-7.37 -2.09,-9.51 -2.09,-12.85 0,-0.75 0,-2.09 0.4,-3.79 0.49,-2.19 1.04,-2.49 1.79,-2.49 1,0 2.04,0.9 2.04,1.89 0,0.3 0,0.4 -0.3,1.1 -1.44,3.59 -1.44,6.83 -1.44,8.22 0,2.64 0.35,5.33 0.89,7.92 h 5.68 c 0.65,0 2.44,0 2.44,1.69 0,1.2 -1.04,1.2 -1.99,1.2 h -16.69 c -1.09,0 -2.99,0 -5.18,-2.34 -1.74,-1.95 -3.04,-4.24 -3.04,-4.49 0,-0.05 0,-0.49 0.6,-0.49 0.4,0 0.5,0.2 0.8,0.6 2.44,3.83 5.33,3.83 6.33,3.83 h 2.84 c -1.6,-6.03 -4.29,-12.05 -6.38,-16.59 -0.4,-0.74 -0.4,-0.85 -0.4,-1.19 0,-0.95 0.8,-1.35 1.44,-1.35 1.5,0 1.9,1.4 2.5,3.24 0.69,2.29 0.69,2.39 1.34,4.88 z"
           style="fill:#000000;stroke-width:0" /></g>    </g>
    <g
       transform="translate(61.635019,146.21754)"
       id="g6082">
      <g
         style="font-style:normal;font-variant:normal;font-weight:normal;font-stretch:normal;letter-spacing:normal;word-spacing:normal;text-anchor:start;fill:none;stroke:#000000;stroke-linecap:butt;stroke-linejoin:miter;stroke-miterlimit:10.43299961;stroke-opacity:1;stroke-dasharray:none;stroke-dashoffset:0"
         id="g6084"
         transform="matrix(0.40780653,0,0,-0.40780653,-71.366142,267.24804)"
         xml:space="preserve"
         stroke-miterlimit="10.433"
         fill-rule="even-odd"
         font-style="normal"
         font-variant="normal"
         font-weight="normal"
         font-stretch="normal"
         font-size-adjust="none"
         letter-spacing="normal"
         word-spacing="normal"><path
           style="fill:#000000;stroke-width:0"
           d="m 464.92,411.73 -0.19,-0.31 -0.19,-0.29 -0.18,-0.27 -0.19,-0.26 -0.18,-0.25 -0.19,-0.23 -0.19,-0.23 -0.18,-0.2 -0.19,-0.2 -0.18,-0.18 -0.19,-0.17 -0.19,-0.16 -0.19,-0.15 -0.18,-0.14 -0.19,-0.13 -0.19,-0.12 -0.19,-0.11 -0.19,-0.1 -0.19,-0.09 -0.19,-0.09 -0.2,-0.07 -0.19,-0.07 -0.19,-0.06 -0.2,-0.06 -0.2,-0.05 -0.19,-0.04 -0.2,-0.04 -0.2,-0.03 -0.4,-0.05 -0.41,-0.04 c -0.6,-0.04 -1.05,-0.04 -1.05,-0.99 0,-0.3 0.25,-0.55 0.65,-0.55 h 9.27 c 0.3,0 0.94,0 0.94,0.95 0,0.55 -0.44,0.59 -0.8,0.59 -1.14,0.1 -2.34,0.5 -2.34,1.75 0,0.6 0.3,1.14 0.7,1.84 l 3.79,6.38 h 12.5 l -0.15,1.54 h -11.41 l 9.82,16.44 1.59,-16.44 0.15,-1.54 c 0.1,-1.05 0.8,-7.82 0.8,-8.32 0,-1.49 -2.59,-1.65 -3.59,-1.65 -0.7,0 -1.2,0 -1.2,-0.99 0,-0.55 0.6,-0.55 0.7,-0.55 h 11.86 c 0.3,0 0.89,0 0.89,1 0,0.54 -0.49,0.54 -1.14,0.54 -3.09,0 -3.09,0.35 -3.24,1.8 l -3.04,31.13 c -0.1,1 -0.1,1.2 -0.94,1.2 -0.8,0 -1,-0.35 -1.3,-0.85 z"
           id="path6086" /></g>    </g>
    <g
       id="g6088"
       transform="translate(90.626397,134.19672)">
      <g
         word-spacing="normal"
         letter-spacing="normal"
         font-size-adjust="none"
         font-stretch="normal"
         font-weight="normal"
         font-variant="normal"
         font-style="normal"
         fill-rule="even-odd"
         stroke-miterlimit="10.433"
         xml:space="preserve"
         transform="matrix(0.40780653,0,0,-0.40780653,-71.366142,267.24804)"
         id="g6090"
         style="font-style:normal;font-variant:normal;font-weight:normal;font-stretch:normal;letter-spacing:normal;word-spacing:normal;text-anchor:start;fill:none;stroke:#000000;stroke-linecap:butt;stroke-linejoin:miter;stroke-miterlimit:10.43299961;stroke-opacity:1;stroke-dasharray:none;stroke-dashoffset:0"><path
           id="path6092"
           d="m 464.92,411.73 -0.19,-0.31 -0.19,-0.29 -0.18,-0.27 -0.19,-0.26 -0.18,-0.25 -0.19,-0.23 -0.19,-0.23 -0.18,-0.2 -0.19,-0.2 -0.18,-0.18 -0.19,-0.17 -0.19,-0.16 -0.19,-0.15 -0.18,-0.14 -0.19,-0.13 -0.19,-0.12 -0.19,-0.11 -0.19,-0.1 -0.19,-0.09 -0.19,-0.09 -0.2,-0.07 -0.19,-0.07 -0.19,-0.06 -0.2,-0.06 -0.2,-0.05 -0.19,-0.04 -0.2,-0.04 -0.2,-0.03 -0.4,-0.05 -0.41,-0.04 c -0.6,-0.04 -1.05,-0.04 -1.05,-0.99 0,-0.3 0.25,-0.55 0.65,-0.55 h 9.27 c 0.3,0 0.94,0 0.94,0.95 0,0.55 -0.44,0.59 -0.8,0.59 -1.14,0.1 -2.34,0.5 -2.34,1.75 0,0.6 0.3,1.14 0.7,1.84 l 3.79,6.38 h 12.5 l -0.15,1.54 h -11.41 l 9.82,16.44 1.59,-16.44 0.15,-1.54 c 0.1,-1.05 0.8,-7.82 0.8,-8.32 0,-1.49 -2.59,-1.65 -3.59,-1.65 -0.7,0 -1.2,0 -1.2,-0.99 0,-0.55 0.6,-0.55 0.7,-0.55 h 11.86 c 0.3,0 0.89,0 0.89,1 0,0.54 -0.49,0.54 -1.14,0.54 -3.09,0 -3.09,0.35 -3.24,1.8 l -3.04,31.13 c -0.1,1 -0.1,1.2 -0.94,1.2 -0.8,0 -1,-0.35 -1.3,-0.85 z"
           style="fill:#000000;stroke-width:0" /></g>    </g>
  </g>
</svg>
