<?xml version="1.0" encoding="UTF-8" standalone="no"?>
<!-- Created with Inkscape (http://www.inkscape.org/) -->

<svg
   xmlns:dc="http://purl.org/dc/elements/1.1/"
   xmlns:cc="http://creativecommons.org/ns#"
   xmlns:rdf="http://www.w3.org/1999/02/22-rdf-syntax-ns#"
   xmlns:svg="http://www.w3.org/2000/svg"
   xmlns="http://www.w3.org/2000/svg"
   xmlns:sodipodi="http://sodipodi.sourceforge.net/DTD/sodipodi-0.dtd"
   xmlns:inkscape="http://www.inkscape.org/namespaces/inkscape"
   width="356.33072"
   height="285.46457"
   id="svg2876"
   version="1.1"
   inkscape:version="0.47 r22583"
   sodipodi:docname="manySlitPhasorsGeneral.svg">
  <sodipodi:namedview
     id="base"
     pagecolor="#ffffff"
     bordercolor="#666666"
     borderopacity="1.0"
     inkscape:pageopacity="0.0"
     inkscape:pageshadow="2"
     inkscape:zoom="2.8"
     inkscape:cx="177.42775"
     inkscape:cy="94.975312"
     inkscape:document-units="px"
     inkscape:current-layer="layer1"
     showgrid="false"
     inkscape:window-width="1920"
     inkscape:window-height="1000"
     inkscape:window-x="0"
     inkscape:window-y="27"
     inkscape:window-maximized="1" />
  <defs
     id="defs2878">
    <marker
       inkscape:stockid="Arrow1Mend"
       orient="auto"
       refY="0.0"
       refX="0.0"
       id="Arrow1Mend"
       style="overflow:visible;">
      <path
         id="path3598"
         d="M 0.0,0.0 L 5.0,-5.0 L -12.5,0.0 L 5.0,5.0 L 0.0,0.0 z "
         style="fill-rule:evenodd;stroke:#000000;stroke-width:1.0pt;marker-start:none;"
         transform="scale(0.4) rotate(180) translate(10,0)" />
    </marker>
    <marker
       inkscape:stockid="DotM"
       orient="auto"
       refY="0.0"
       refX="0.0"
       id="DotM"
       style="overflow:visible">
      <path
         id="path3654"
         d="M -2.5,-1.0 C -2.5,1.7600000 -4.7400000,4.0 -7.5,4.0 C -10.260000,4.0 -12.5,1.7600000 -12.5,-1.0 C -12.5,-3.7600000 -10.260000,-6.0 -7.5,-6.0 C -4.7400000,-6.0 -2.5,-3.7600000 -2.5,-1.0 z "
         style="fill-rule:evenodd;stroke:#000000;stroke-width:1.0pt;marker-start:none;marker-end:none"
         transform="scale(0.4) translate(7.4, 1)" />
    </marker>
    <inkscape:perspective
       sodipodi:type="inkscape:persp3d"
       inkscape:vp_x="0 : 526.18109 : 1"
       inkscape:vp_y="0 : 1000 : 0"
       inkscape:vp_z="744.09448 : 526.18109 : 1"
       inkscape:persp3d-origin="372.04724 : 350.78739 : 1"
       id="perspective2884" />
  </defs>
  <metadata
     id="metadata2881">
    <rdf:RDF>
      <cc:Work
         rdf:about="">
        <dc:format>image/svg+xml</dc:format>
        <dc:type
           rdf:resource="http://purl.org/dc/dcmitype/StillImage" />
        <dc:title />
      </cc:Work>
    </rdf:RDF>
  </metadata>
  <g
     inkscape:label="Layer 1"
     inkscape:groupmode="layer"
     id="layer1"
     transform="translate(-4.7142859,-2.7907541)">
    <path
       style="color:#000000;fill:none;stroke:#000000;stroke-width:1.32587457;stroke-linecap:butt;stroke-linejoin:miter;stroke-miterlimit:4;stroke-opacity:1;stroke-dasharray:5.30349827, 1.32587457;stroke-dashoffset:0;marker:none;marker-end:url(#Arrow1Mend);visibility:visible;display:inline;overflow:visible;enable-background:accumulate"
       d="m 51.854393,220.57666 226.218377,0"
       id="path4468"
       sodipodi:nodetypes="cc"
       inkscape:transform-center-x="-136.99776" />
    <path
       style="color:#000000;fill:none;stroke:#000000;stroke-width:2;stroke-linecap:butt;stroke-linejoin:miter;stroke-miterlimit:4;stroke-opacity:1;stroke-dasharray:none;stroke-dashoffset:0;marker:none;marker-end:url(#Arrow1Mend);visibility:visible;display:inline;overflow:visible;enable-background:accumulate"
       d="m 51.854392,220.07158 39.845233,0"
       id="path2812"
       sodipodi:nodetypes="cc" />
    <path
       sodipodi:nodetypes="cc"
       id="path4452"
       d="m 93.69856,219.62163 39.23989,-6.91905"
       style="color:#000000;fill:none;stroke:#000000;stroke-width:2;stroke-linecap:butt;stroke-linejoin:miter;stroke-miterlimit:4;stroke-opacity:1;stroke-dasharray:none;stroke-dashoffset:0;marker:none;marker-end:url(#Arrow1Mend);visibility:visible;display:inline;overflow:visible;enable-background:accumulate"
       inkscape:transform-center-x="-20.759944"
       inkscape:transform-center-y="-4.0239311" />
    <path
       inkscape:transform-center-x="-19.801314"
       style="color:#000000;fill:none;stroke:#000000;stroke-width:2;stroke-linecap:butt;stroke-linejoin:miter;stroke-miterlimit:4;stroke-opacity:1;stroke-dasharray:none;stroke-dashoffset:0;marker:none;marker-end:url(#Arrow1Mend);visibility:visible;display:inline;overflow:visible;enable-background:accumulate"
       d="m 135.42697,212.14366 37.44227,-13.62787"
       id="path4454"
       sodipodi:nodetypes="cc"
       inkscape:transform-center-y="-7.1016772" />
    <path
       inkscape:transform-center-y="-10.458508"
       sodipodi:nodetypes="cc"
       id="path4456"
       d="M 175.15437,197.45431 209.66135,177.5317"
       style="color:#000000;fill:none;stroke:#000000;stroke-width:2;stroke-linecap:butt;stroke-linejoin:miter;stroke-miterlimit:4;stroke-opacity:1;stroke-dasharray:none;stroke-dashoffset:0;marker:none;marker-end:url(#Arrow1Mend);visibility:visible;display:inline;overflow:visible;enable-background:accumulate"
       inkscape:transform-center-x="-18.235995" />
    <path
       inkscape:transform-center-x="-16.111551"
       style="color:#000000;fill:none;stroke:#000000;stroke-width:2;stroke-linecap:butt;stroke-linejoin:miter;stroke-miterlimit:4;stroke-opacity:1;stroke-dasharray:none;stroke-dashoffset:0;marker:none;marker-end:url(#Arrow1Mend);visibility:visible;display:inline;overflow:visible;enable-background:accumulate"
       d="m 211.25015,176.59995 30.52322,-25.61202"
       id="path4458"
       sodipodi:nodetypes="cc"
       inkscape:transform-center-y="-13.49253" />
    <path
       inkscape:transform-center-y="-16.11155"
       sodipodi:nodetypes="cc"
       id="path4460"
       d="m 243.64733,149.39669 25.61202,-30.52321"
       style="color:#000000;fill:none;stroke:#000000;stroke-width:2;stroke-linecap:butt;stroke-linejoin:miter;stroke-miterlimit:4;stroke-opacity:1;stroke-dasharray:none;stroke-dashoffset:0;marker:none;marker-end:url(#Arrow1Mend);visibility:visible;display:inline;overflow:visible;enable-background:accumulate"
       inkscape:transform-center-x="-13.49253" />
    <path
       inkscape:transform-center-x="-10.458509"
       style="color:#000000;fill:none;stroke:#000000;stroke-width:2;stroke-linecap:butt;stroke-linejoin:miter;stroke-miterlimit:4;stroke-opacity:1;stroke-dasharray:none;stroke-dashoffset:0;marker:none;marker-end:url(#Arrow1Mend);visibility:visible;display:inline;overflow:visible;enable-background:accumulate"
       d="M 270.67421,117.18635 290.59684,82.67938"
       id="path4462"
       sodipodi:nodetypes="cc"
       inkscape:transform-center-y="-18.235997" />
    <path
       sodipodi:nodetypes="cc"
       id="path4464"
       d="m 52.454144,220.4188 0,-164.093999"
       style="color:#000000;fill:none;stroke:#000000;stroke-width:1.32587457;stroke-linecap:butt;stroke-linejoin:miter;stroke-miterlimit:4;stroke-opacity:1;stroke-dasharray:5.30349827, 1.32587457;stroke-dashoffset:0;marker:none;marker-end:url(#Arrow1Mend);visibility:visible;display:inline;overflow:visible;enable-background:accumulate"
       inkscape:transform-center-y="-136.99776" />
    <path
       inkscape:transform-center-x="-136.99776"
       sodipodi:nodetypes="cc"
       id="path4470"
       d="m 271.56257,119.5614 33.27924,0"
       style="color:#000000;fill:none;stroke:#000000;stroke-width:1.32587457000000009;stroke-linecap:butt;stroke-linejoin:miter;stroke-miterlimit:4;stroke-opacity:1;stroke-dasharray:5.30349827000000040, 1.32587457000000009;stroke-dashoffset:0;marker:none;marker-end:none;visibility:visible;display:inline;overflow:visible;enable-background:accumulate" />
    <path
       sodipodi:type="arc"
       style="fill:none;stroke:#000000;stroke-width:1.5;stroke-miterlimit:4;stroke-opacity:1;stroke-dasharray:6,1.5;stroke-dashoffset:0"
       id="path4658"
       sodipodi:cx="266.30145"
       sodipodi:cy="115.5064"
       sodipodi:rx="26.390236"
       sodipodi:ry="26.390236"
       d="m 279.49657,92.651787 c 8.46346,4.886381 13.53366,14.049843 13.1776,23.816123"
       transform="translate(4.7142859,2.7907541)"
       sodipodi:start="5.2359878"
       sodipodi:end="6.3196275"
       sodipodi:open="true" />
    <path
       inkscape:transform-center-x="-14.205013"
       style="color:#000000;fill:none;stroke:#000000;stroke-width:1.5;stroke-linecap:butt;stroke-linejoin:miter;stroke-miterlimit:4;stroke-opacity:1;stroke-dasharray:none;stroke-dashoffset:0;marker:none;marker-end:url(#Arrow1Mend);visibility:visible;display:inline;overflow:visible;enable-background:accumulate"
       d="m 309.66525,146.5121 c 0,0 -3.95182,-18.57495 -7.67716,-18.54681 -3.19349,0.0241 -4.68683,13.78577 -8.96244,10.24248 -4.27563,-3.54331 -9.38192,-21.87053 -9.38192,-21.87053"
       id="path4660"
       sodipodi:nodetypes="cszc"
       inkscape:transform-center-y="17.883494" />
    <g
       transform="translate(178.03571,58.928572)"
       id="g4684">
      <g
         style="font-style:normal;font-variant:normal;font-weight:normal;font-stretch:normal;letter-spacing:normal;word-spacing:normal;text-anchor:start;fill:none;stroke:#000000;stroke-linecap:butt;stroke-linejoin:miter;stroke-miterlimit:10.43299961;stroke-opacity:1;stroke-dasharray:none;stroke-dashoffset:0"
         id="content"
         transform="matrix(0.40780653,0,0,-0.40780653,-71.366142,267.24804)"
         xml:space="preserve"
         stroke-miterlimit="10.433"
         fill-rule="even-odd"
         font-style="normal"
         font-variant="normal"
         font-weight="normal"
         font-stretch="normal"
         font-size-adjust="none"
         letter-spacing="normal"
         word-spacing="normal"><path
           style="fill:#000000;stroke-width:0"
           d="m 478.02,440.77 -0.04,0.06 -0.03,0.06 -0.03,0.05 -0.02,0.05 -0.03,0.06 -0.03,0.04 -0.03,0.05 -0.02,0.04 -0.03,0.05 -0.03,0.04 -0.02,0.03 -0.03,0.04 -0.03,0.03 -0.03,0.03 -0.03,0.03 -0.03,0.03 -0.04,0.03 -0.03,0.02 -0.04,0.02 -0.04,0.02 -0.04,0.02 -0.04,0.02 -0.05,0.02 -0.05,0.01 -0.05,0.01 -0.05,0.01 -0.06,0.01 -0.06,0.01 -0.07,0 -0.07,0.01 -0.07,0 -0.08,0 c -0.84,0 -0.94,-0.25 -1.29,-0.9 l -0.3,-4.09 13.4,-26.89 h -26.85 l 13.45,26.89 0.3,4.09 L 458.59,407 c -0.25,-0.45 -0.25,-0.55 -0.25,-0.6 0,-0.4 0.3,-0.4 1.1,-0.4 h 34.57 c 0.79,0 1.09,0 1.09,0.4 0,0.05 0,0.15 -0.24,0.6 z"
           id="path4687" /><path
           style="fill:#000000;stroke-width:0"
           d="m 518.77,439.38 0,0 0,0.01 0,0 0,0.01 0,0.01 0,0 0,0.01 0.01,0.01 0,0.02 0,0.02 0.01,0.02 0,0.03 0.01,0.02 0,0.03 0.01,0.03 0.01,0.03 0,0.02 0.01,0.03 0.01,0.06 0.02,0.06 0,0.03 0.01,0.03 0.01,0.02 0,0.03 0.01,0.02 0,0.03 0.01,0.02 0,0.02 0.01,0.01 0,0 0,0.01 0,0.01 0,0.01 0,0 0.01,0.01 0,0.01 0,0 0,0 0,0.01 0,0 c 0,0.05 0,0.5 -0.6,0.5 -0.5,0 -0.55,-0.15 -0.75,-1 l -2.89,-11.5 c -7.92,-0.25 -15.24,-6.88 -15.24,-13.65 0,-4.73 3.49,-8.67 9.56,-9.02 l 0.25,1.1 c -2.98,0.15 -6.57,1.89 -6.57,6.87 0,5.98 4.28,12.95 11.71,13.6 L 509.25,406.5 509,405.4 c -0.39,-1.54 -0.74,-3.13 -1.14,-4.68 -0.6,-2.34 -1.1,-4.24 -1.1,-4.38 0,-0.5 0.35,-0.55 0.6,-0.55 0.25,0 0.35,0.05 0.5,0.2 0.1,0.1 0.4,1.29 0.55,1.99 l 1.89,7.42 0.25,1.1 5.13,20.47 c 3.79,-0.2 6.62,-2.49 6.62,-6.87 0,-5.88 -4.28,-13 -11.75,-13.6 l -0.25,-1.1 c 8.02,0.25 15.24,6.98 15.24,13.65 0,3.93 -2.64,8.52 -9.56,9.02 z"
           id="path4689" /><path
           style="fill:#000000;stroke-width:0"
           d="m 534.01,412.77 h 5.44 v 1.26 h -5.44 v 6.42 h -1.19 c -0.03,-3.15 -1.46,-6.59 -4.81,-6.7 v -0.98 h 3.24 v -9.41 c 0,-3.91 2.93,-4.71 4.89,-4.71 2.33,0 3.93,1.99 3.93,4.74 v 1.92 h -1.18 v -1.88 c 0,-2.37 -1.12,-3.66 -2.48,-3.66 -2.4,0 -2.4,2.93 -2.4,3.55 z"
           id="path4691" /><path
           style="fill:#000000;stroke-width:0"
           d="m 560.45,406.43 -0.02,0.4 -0.03,0.41 -0.05,0.39 -0.07,0.4 -0.1,0.38 -0.11,0.38 -0.13,0.38 -0.15,0.36 -0.17,0.36 -0.19,0.35 -0.2,0.34 -0.22,0.33 -0.23,0.32 -0.26,0.31 -0.26,0.3 -0.28,0.28 -0.3,0.28 -0.3,0.25 -0.33,0.25 -0.33,0.23 -0.35,0.21 -0.35,0.2 -0.37,0.19 -0.38,0.16 -0.39,0.15 -0.4,0.13 -0.41,0.12 -0.42,0.09 -0.43,0.07 -0.43,0.06 -0.44,0.03 -0.45,0.01 v -0.98 c 2.06,0 3.53,-0.97 4.29,-2.05 0.98,-1.36 1.08,-3.11 1.08,-4.78 0,-1.67 -0.1,-3.52 -1.11,-4.95 -0.94,-1.33 -2.55,-2.02 -4.26,-2.02 h 0 c -1.29,0 -3.17,0.42 -4.32,2.12 -0.94,1.43 -1.05,3.25 -1.05,4.85 0,1.5 0.04,3.56 1.26,5.06 0.87,1.01 2.33,1.77 4.11,1.77 v 0.98 c -4.81,0 -8.54,-3.76 -8.54,-8.12 0,-4.33 3.84,-7.78 8.54,-7.78 4.71,0 8.55,3.45 8.55,7.78 z"
           id="path4693" /><path
           style="fill:#000000;stroke-width:0"
           d="m 569.01,412.77 h 5.44 v 1.26 h -5.44 v 6.42 h -1.19 c -0.03,-3.15 -1.46,-6.59 -4.81,-6.7 v -0.98 h 3.24 v -9.41 c 0,-3.91 2.93,-4.71 4.89,-4.71 2.33,0 3.93,1.99 3.93,4.74 v 1.92 h -1.18 v -1.88 c 0,-2.37 -1.12,-3.66 -2.48,-3.66 -2.4,0 -2.4,2.93 -2.4,3.55 z"
           id="path4695" /><path
           style="fill:#000000;stroke-width:0"
           d="m 585.91,400.99 0,0.11 -0.01,0.12 -0.01,0.11 -0.02,0.11 -0.03,0.1 -0.03,0.1 -0.03,0.1 -0.04,0.09 -0.05,0.09 -0.05,0.09 -0.05,0.09 -0.06,0.08 -0.06,0.08 -0.06,0.07 -0.07,0.07 -0.07,0.07 -0.07,0.06 -0.07,0.06 -0.08,0.06 -0.08,0.05 -0.08,0.05 -0.08,0.05 -0.09,0.04 -0.08,0.03 -0.09,0.03 -0.09,0.03 -0.09,0.03 -0.08,0.02 -0.09,0.01 -0.09,0.01 -0.09,0.01 -0.09,0 c -1.15,0 -2.02,-0.94 -2.02,-1.99 0,-1.25 1.04,-2.02 1.99,-2.02 1.14,0 2.01,0.94 2.01,1.99 z"
           id="path4697" /></g>    </g>
    <text
       sodipodi:linespacing="100%"
       id="text4727"
       y="53.899933"
       x="31.481606"
       style="font-size:23.77140999px;font-style:normal;font-variant:normal;font-weight:normal;font-stretch:normal;text-align:start;line-height:100%;writing-mode:lr-tb;text-anchor:start;fill:#000000;fill-opacity:1;stroke:none;font-family:Arial;-inkscape-font-specification:Arial"
       xml:space="preserve"><tspan
         y="53.899933"
         x="31.481606"
         id="tspan4729"
         sodipodi:role="line">Im</tspan></text>
    <text
       xml:space="preserve"
       style="font-size:23.77140999px;font-style:normal;font-variant:normal;font-weight:normal;font-stretch:normal;text-align:start;line-height:100%;writing-mode:lr-tb;text-anchor:start;fill:#000000;fill-opacity:1;stroke:none;font-family:Arial;-inkscape-font-specification:Arial"
       x="267.35223"
       y="241.28323"
       id="text4731"
       sodipodi:linespacing="100%"><tspan
         sodipodi:role="line"
         id="tspan4733"
         x="267.35223"
         y="241.28323">Re</tspan></text>
    <path
       sodipodi:nodetypes="cc"
       id="path4735"
       d="M 51.854392,220.07158 288.67937,81.175606"
       style="color:#000000;fill:none;stroke:#000000;stroke-width:2;stroke-linecap:butt;stroke-linejoin:miter;stroke-miterlimit:4;stroke-opacity:1;stroke-dasharray:none;stroke-dashoffset:0;marker:none;marker-end:url(#Arrow1Mend);visibility:visible;display:inline;overflow:visible;enable-background:accumulate" />
    <g
       id="g4772"
       transform="matrix(0.86998017,-0.49308671,0.49308671,0.86998017,11.110456,116.1676)">
      <g
         word-spacing="normal"
         letter-spacing="normal"
         font-size-adjust="none"
         font-stretch="normal"
         font-weight="normal"
         font-variant="normal"
         font-style="normal"
         fill-rule="even-odd"
         stroke-miterlimit="10.433"
         xml:space="preserve"
         transform="matrix(0.40780653,0,0,-0.40780653,-71.366142,267.24804)"
         id="g4774"
         style="font-style:normal;font-variant:normal;font-weight:normal;font-stretch:normal;letter-spacing:normal;word-spacing:normal;text-anchor:start;fill:none;stroke:#000000;stroke-linecap:butt;stroke-linejoin:miter;stroke-miterlimit:10.43299961;stroke-opacity:1;stroke-dasharray:none;stroke-dashoffset:0"><path
           id="path4776"
           d="m 464.92,411.73 -0.19,-0.31 -0.19,-0.29 -0.18,-0.27 -0.19,-0.26 -0.18,-0.25 -0.19,-0.23 -0.19,-0.23 -0.18,-0.2 -0.19,-0.2 -0.18,-0.18 -0.19,-0.17 -0.19,-0.16 -0.19,-0.15 -0.18,-0.14 -0.19,-0.13 -0.19,-0.12 -0.19,-0.11 -0.19,-0.1 -0.19,-0.09 -0.19,-0.09 -0.2,-0.07 -0.19,-0.07 -0.19,-0.06 -0.2,-0.06 -0.2,-0.05 -0.19,-0.04 -0.2,-0.04 -0.2,-0.03 -0.4,-0.05 -0.41,-0.04 c -0.6,-0.04 -1.05,-0.04 -1.05,-0.99 0,-0.3 0.25,-0.55 0.65,-0.55 h 9.27 c 0.3,0 0.94,0 0.94,0.95 0,0.55 -0.44,0.59 -0.8,0.59 -1.14,0.1 -2.34,0.5 -2.34,1.75 0,0.6 0.3,1.14 0.7,1.84 l 3.79,6.38 h 12.5 l -0.15,1.54 h -11.41 l 9.82,16.44 1.59,-16.44 0.15,-1.54 c 0.1,-1.05 0.8,-7.82 0.8,-8.32 0,-1.49 -2.59,-1.65 -3.59,-1.65 -0.7,0 -1.2,0 -1.2,-0.99 0,-0.55 0.6,-0.55 0.7,-0.55 h 11.86 c 0.3,0 0.89,0 0.89,1 0,0.54 -0.49,0.54 -1.14,0.54 -3.09,0 -3.09,0.35 -3.24,1.8 l -3.04,31.13 c -0.1,1 -0.1,1.2 -0.94,1.2 -0.8,0 -1,-0.35 -1.3,-0.85 z"
           style="fill:#000000;stroke-width:0" /><path
           id="path4778"
           d="m 500.01,412.77 h 5.44 v 1.26 h -5.44 v 6.42 h -1.19 c -0.03,-3.15 -1.46,-6.59 -4.81,-6.7 v -0.98 h 3.24 v -9.41 c 0,-3.91 2.93,-4.71 4.89,-4.71 2.33,0 3.93,1.99 3.93,4.74 v 1.92 h -1.18 v -1.88 c 0,-2.37 -1.12,-3.66 -2.48,-3.66 -2.4,0 -2.4,2.93 -2.4,3.55 z"
           style="fill:#000000;stroke-width:0" /><path
           id="path4780"
           d="m 526.45,406.43 -0.02,0.4 -0.03,0.41 -0.05,0.39 -0.07,0.4 -0.1,0.38 -0.11,0.38 -0.13,0.38 -0.15,0.36 -0.17,0.36 -0.19,0.35 -0.2,0.34 -0.22,0.33 -0.23,0.32 -0.26,0.31 -0.26,0.3 -0.28,0.28 -0.3,0.28 -0.3,0.25 -0.33,0.25 -0.33,0.23 -0.35,0.21 -0.35,0.2 -0.37,0.19 -0.38,0.16 -0.39,0.15 -0.4,0.13 -0.41,0.12 -0.42,0.09 -0.43,0.07 -0.43,0.06 -0.44,0.03 -0.45,0.01 v -0.98 c 2.06,0 3.53,-0.97 4.29,-2.05 0.98,-1.36 1.08,-3.11 1.08,-4.78 0,-1.67 -0.1,-3.52 -1.11,-4.95 -0.94,-1.33 -2.55,-2.02 -4.26,-2.02 h 0 c -1.29,0 -3.17,0.42 -4.32,2.12 -0.94,1.43 -1.05,3.25 -1.05,4.85 0,1.5 0.04,3.56 1.26,5.06 0.87,1.01 2.33,1.77 4.11,1.77 v 0.98 c -4.81,0 -8.54,-3.76 -8.54,-8.12 0,-4.33 3.84,-7.78 8.54,-7.78 4.71,0 8.55,3.45 8.55,7.78 z"
           style="fill:#000000;stroke-width:0" /><path
           id="path4782"
           d="m 535.01,412.77 h 5.44 v 1.26 h -5.44 v 6.42 h -1.19 c -0.03,-3.15 -1.46,-6.59 -4.81,-6.7 v -0.98 h 3.24 v -9.41 c 0,-3.91 2.93,-4.71 4.89,-4.71 2.33,0 3.93,1.99 3.93,4.74 v 1.92 h -1.18 v -1.88 c 0,-2.37 -1.12,-3.66 -2.48,-3.66 -2.4,0 -2.4,2.93 -2.4,3.55 z"
           style="fill:#000000;stroke-width:0" /><path
           id="path4784"
           d="m 551.91,400.99 0,0.11 -0.01,0.12 -0.01,0.11 -0.02,0.11 -0.03,0.1 -0.03,0.1 -0.03,0.1 -0.04,0.09 -0.05,0.09 -0.05,0.09 -0.05,0.09 -0.06,0.08 -0.06,0.08 -0.06,0.07 -0.07,0.07 -0.07,0.07 -0.07,0.06 -0.07,0.06 -0.08,0.06 -0.08,0.05 -0.08,0.05 -0.08,0.05 -0.09,0.04 -0.08,0.03 -0.09,0.03 -0.09,0.03 -0.09,0.03 -0.08,0.02 -0.09,0.01 -0.09,0.01 -0.09,0.01 -0.09,0 c -1.15,0 -2.02,-0.94 -2.02,-1.99 0,-1.25 1.04,-2.02 1.99,-2.02 1.14,0 2.01,0.94 2.01,1.99 z"
           style="fill:#000000;stroke-width:0" /></g>    </g>
    <g
       transform="translate(60.104076,84.347736)"
       id="g4868">
      <g
         style="font-style:normal;font-variant:normal;font-weight:normal;font-stretch:normal;letter-spacing:normal;word-spacing:normal;text-anchor:start;fill:none;stroke:#000000;stroke-linecap:butt;stroke-linejoin:miter;stroke-miterlimit:10.43299961;stroke-opacity:1;stroke-dasharray:none;stroke-dashoffset:0"
         id="g4870"
         transform="matrix(0.40780653,0,0,-0.40780653,-71.366142,267.24804)"
         xml:space="preserve"
         stroke-miterlimit="10.433"
         fill-rule="even-odd"
         font-style="normal"
         font-variant="normal"
         font-weight="normal"
         font-stretch="normal"
         font-size-adjust="none"
         letter-spacing="normal"
         word-spacing="normal"><path
           style="fill:#000000;stroke-width:0"
           d="m 464.92,411.73 -0.19,-0.31 -0.19,-0.29 -0.18,-0.27 -0.19,-0.26 -0.18,-0.25 -0.19,-0.23 -0.19,-0.23 -0.18,-0.2 -0.19,-0.2 -0.18,-0.18 -0.19,-0.17 -0.19,-0.16 -0.19,-0.15 -0.18,-0.14 -0.19,-0.13 -0.19,-0.12 -0.19,-0.11 -0.19,-0.1 -0.19,-0.09 -0.19,-0.09 -0.2,-0.07 -0.19,-0.07 -0.19,-0.06 -0.2,-0.06 -0.2,-0.05 -0.19,-0.04 -0.2,-0.04 -0.2,-0.03 -0.4,-0.05 -0.41,-0.04 c -0.6,-0.04 -1.05,-0.04 -1.05,-0.99 0,-0.3 0.25,-0.55 0.65,-0.55 h 9.27 c 0.3,0 0.94,0 0.94,0.95 0,0.55 -0.44,0.59 -0.8,0.59 -1.14,0.1 -2.34,0.5 -2.34,1.75 0,0.6 0.3,1.14 0.7,1.84 l 3.79,6.38 h 12.5 l -0.15,1.54 h -11.41 l 9.82,16.44 1.59,-16.44 0.15,-1.54 c 0.1,-1.05 0.8,-7.82 0.8,-8.32 0,-1.49 -2.59,-1.65 -3.59,-1.65 -0.7,0 -1.2,0 -1.2,-0.99 0,-0.55 0.6,-0.55 0.7,-0.55 h 11.86 c 0.3,0 0.89,0 0.89,1 0,0.54 -0.49,0.54 -1.14,0.54 -3.09,0 -3.09,0.35 -3.24,1.8 l -3.04,31.13 c -0.1,1 -0.1,1.2 -0.94,1.2 -0.8,0 -1,-0.35 -1.3,-0.85 z"
           id="path4872" /></g>    </g>
    <g
       id="g4917"
       transform="translate(90.913728,64.649761)">
      <g
         word-spacing="normal"
         letter-spacing="normal"
         font-size-adjust="none"
         font-stretch="normal"
         font-weight="normal"
         font-variant="normal"
         font-style="normal"
         fill-rule="even-odd"
         stroke-miterlimit="10.433"
         xml:space="preserve"
         transform="matrix(0.40780653,0,0,-0.40780653,-71.366142,267.24804)"
         id="g4919"
         style="font-style:normal;font-variant:normal;font-weight:normal;font-stretch:normal;letter-spacing:normal;word-spacing:normal;text-anchor:start;fill:none;stroke:#000000;stroke-linecap:butt;stroke-linejoin:miter;stroke-miterlimit:10.43299961;stroke-opacity:1;stroke-dasharray:none;stroke-dashoffset:0"><path
           id="path4921"
           d="m 464.92,411.73 -0.19,-0.31 -0.19,-0.29 -0.18,-0.27 -0.19,-0.26 -0.18,-0.25 -0.19,-0.23 -0.19,-0.23 -0.18,-0.2 -0.19,-0.2 -0.18,-0.18 -0.19,-0.17 -0.19,-0.16 -0.19,-0.15 -0.18,-0.14 -0.19,-0.13 -0.19,-0.12 -0.19,-0.11 -0.19,-0.1 -0.19,-0.09 -0.19,-0.09 -0.2,-0.07 -0.19,-0.07 -0.19,-0.06 -0.2,-0.06 -0.2,-0.05 -0.19,-0.04 -0.2,-0.04 -0.2,-0.03 -0.4,-0.05 -0.41,-0.04 c -0.6,-0.04 -1.05,-0.04 -1.05,-0.99 0,-0.3 0.25,-0.55 0.65,-0.55 h 9.27 c 0.3,0 0.94,0 0.94,0.95 0,0.55 -0.44,0.59 -0.8,0.59 -1.14,0.1 -2.34,0.5 -2.34,1.75 0,0.6 0.3,1.14 0.7,1.84 l 3.79,6.38 h 12.5 l -0.15,1.54 h -11.41 l 9.82,16.44 1.59,-16.44 0.15,-1.54 c 0.1,-1.05 0.8,-7.82 0.8,-8.32 0,-1.49 -2.59,-1.65 -3.59,-1.65 -0.7,0 -1.2,0 -1.2,-0.99 0,-0.55 0.6,-0.55 0.7,-0.55 h 11.86 c 0.3,0 0.89,0 0.89,1 0,0.54 -0.49,0.54 -1.14,0.54 -3.09,0 -3.09,0.35 -3.24,1.8 l -3.04,31.13 c -0.1,1 -0.1,1.2 -0.94,1.2 -0.8,0 -1,-0.35 -1.3,-0.85 z"
           style="fill:#000000;stroke-width:0" /></g>    </g>
    <g
       transform="translate(121.2183,37.880719)"
       id="g4923">
      <g
         style="font-style:normal;font-variant:normal;font-weight:normal;font-stretch:normal;letter-spacing:normal;word-spacing:normal;text-anchor:start;fill:none;stroke:#000000;stroke-linecap:butt;stroke-linejoin:miter;stroke-miterlimit:10.43299961;stroke-opacity:1;stroke-dasharray:none;stroke-dashoffset:0"
         id="g4925"
         transform="matrix(0.40780653,0,0,-0.40780653,-71.366142,267.24804)"
         xml:space="preserve"
         stroke-miterlimit="10.433"
         fill-rule="even-odd"
         font-style="normal"
         font-variant="normal"
         font-weight="normal"
         font-stretch="normal"
         font-size-adjust="none"
         letter-spacing="normal"
         word-spacing="normal"><path
           style="fill:#000000;stroke-width:0"
           d="m 464.92,411.73 -0.19,-0.31 -0.19,-0.29 -0.18,-0.27 -0.19,-0.26 -0.18,-0.25 -0.19,-0.23 -0.19,-0.23 -0.18,-0.2 -0.19,-0.2 -0.18,-0.18 -0.19,-0.17 -0.19,-0.16 -0.19,-0.15 -0.18,-0.14 -0.19,-0.13 -0.19,-0.12 -0.19,-0.11 -0.19,-0.1 -0.19,-0.09 -0.19,-0.09 -0.2,-0.07 -0.19,-0.07 -0.19,-0.06 -0.2,-0.06 -0.2,-0.05 -0.19,-0.04 -0.2,-0.04 -0.2,-0.03 -0.4,-0.05 -0.41,-0.04 c -0.6,-0.04 -1.05,-0.04 -1.05,-0.99 0,-0.3 0.25,-0.55 0.65,-0.55 h 9.27 c 0.3,0 0.94,0 0.94,0.95 0,0.55 -0.44,0.59 -0.8,0.59 -1.14,0.1 -2.34,0.5 -2.34,1.75 0,0.6 0.3,1.14 0.7,1.84 l 3.79,6.38 h 12.5 l -0.15,1.54 h -11.41 l 9.82,16.44 1.59,-16.44 0.15,-1.54 c 0.1,-1.05 0.8,-7.82 0.8,-8.32 0,-1.49 -2.59,-1.65 -3.59,-1.65 -0.7,0 -1.2,0 -1.2,-0.99 0,-0.55 0.6,-0.55 0.7,-0.55 h 11.86 c 0.3,0 0.89,0 0.89,1 0,0.54 -0.49,0.54 -1.14,0.54 -3.09,0 -3.09,0.35 -3.24,1.8 l -3.04,31.13 c -0.1,1 -0.1,1.2 -0.94,1.2 -0.8,0 -1,-0.35 -1.3,-0.85 z"
           id="path4927" /></g>    </g>
    <g
       id="g4929"
       transform="translate(23.233508,101.52033)">
      <g
         word-spacing="normal"
         letter-spacing="normal"
         font-size-adjust="none"
         font-stretch="normal"
         font-weight="normal"
         font-variant="normal"
         font-style="normal"
         fill-rule="even-odd"
         stroke-miterlimit="10.433"
         xml:space="preserve"
         transform="matrix(0.40780653,0,0,-0.40780653,-71.366142,267.24804)"
         id="g4931"
         style="font-style:normal;font-variant:normal;font-weight:normal;font-stretch:normal;letter-spacing:normal;word-spacing:normal;text-anchor:start;fill:none;stroke:#000000;stroke-linecap:butt;stroke-linejoin:miter;stroke-miterlimit:10.43299961;stroke-opacity:1;stroke-dasharray:none;stroke-dashoffset:0"><path
           id="path4933"
           d="m 464.92,411.73 -0.19,-0.31 -0.19,-0.29 -0.18,-0.27 -0.19,-0.26 -0.18,-0.25 -0.19,-0.23 -0.19,-0.23 -0.18,-0.2 -0.19,-0.2 -0.18,-0.18 -0.19,-0.17 -0.19,-0.16 -0.19,-0.15 -0.18,-0.14 -0.19,-0.13 -0.19,-0.12 -0.19,-0.11 -0.19,-0.1 -0.19,-0.09 -0.19,-0.09 -0.2,-0.07 -0.19,-0.07 -0.19,-0.06 -0.2,-0.06 -0.2,-0.05 -0.19,-0.04 -0.2,-0.04 -0.2,-0.03 -0.4,-0.05 -0.41,-0.04 c -0.6,-0.04 -1.05,-0.04 -1.05,-0.99 0,-0.3 0.25,-0.55 0.65,-0.55 h 9.27 c 0.3,0 0.94,0 0.94,0.95 0,0.55 -0.44,0.59 -0.8,0.59 -1.14,0.1 -2.34,0.5 -2.34,1.75 0,0.6 0.3,1.14 0.7,1.84 l 3.79,6.38 h 12.5 l -0.15,1.54 h -11.41 l 9.82,16.44 1.59,-16.44 0.15,-1.54 c 0.1,-1.05 0.8,-7.82 0.8,-8.32 0,-1.49 -2.59,-1.65 -3.59,-1.65 -0.7,0 -1.2,0 -1.2,-0.99 0,-0.55 0.6,-0.55 0.7,-0.55 h 11.86 c 0.3,0 0.89,0 0.89,1 0,0.54 -0.49,0.54 -1.14,0.54 -3.09,0 -3.09,0.35 -3.24,1.8 l -3.04,31.13 c -0.1,1 -0.1,1.2 -0.94,1.2 -0.8,0 -1,-0.35 -1.3,-0.85 z"
           style="fill:#000000;stroke-width:0" /></g>    </g>
    <g
       transform="translate(-8.5862969,109.60155)"
       id="g4935">
      <g
         style="font-style:normal;font-variant:normal;font-weight:normal;font-stretch:normal;letter-spacing:normal;word-spacing:normal;text-anchor:start;fill:none;stroke:#000000;stroke-linecap:butt;stroke-linejoin:miter;stroke-miterlimit:10.43299961;stroke-opacity:1;stroke-dasharray:none;stroke-dashoffset:0"
         id="g4937"
         transform="matrix(0.40780653,0,0,-0.40780653,-71.366142,267.24804)"
         xml:space="preserve"
         stroke-miterlimit="10.433"
         fill-rule="even-odd"
         font-style="normal"
         font-variant="normal"
         font-weight="normal"
         font-stretch="normal"
         font-size-adjust="none"
         letter-spacing="normal"
         word-spacing="normal"><path
           style="fill:#000000;stroke-width:0"
           d="m 464.92,411.73 -0.19,-0.31 -0.19,-0.29 -0.18,-0.27 -0.19,-0.26 -0.18,-0.25 -0.19,-0.23 -0.19,-0.23 -0.18,-0.2 -0.19,-0.2 -0.18,-0.18 -0.19,-0.17 -0.19,-0.16 -0.19,-0.15 -0.18,-0.14 -0.19,-0.13 -0.19,-0.12 -0.19,-0.11 -0.19,-0.1 -0.19,-0.09 -0.19,-0.09 -0.2,-0.07 -0.19,-0.07 -0.19,-0.06 -0.2,-0.06 -0.2,-0.05 -0.19,-0.04 -0.2,-0.04 -0.2,-0.03 -0.4,-0.05 -0.41,-0.04 c -0.6,-0.04 -1.05,-0.04 -1.05,-0.99 0,-0.3 0.25,-0.55 0.65,-0.55 h 9.27 c 0.3,0 0.94,0 0.94,0.95 0,0.55 -0.44,0.59 -0.8,0.59 -1.14,0.1 -2.34,0.5 -2.34,1.75 0,0.6 0.3,1.14 0.7,1.84 l 3.79,6.38 h 12.5 l -0.15,1.54 h -11.41 l 9.82,16.44 1.59,-16.44 0.15,-1.54 c 0.1,-1.05 0.8,-7.82 0.8,-8.32 0,-1.49 -2.59,-1.65 -3.59,-1.65 -0.7,0 -1.2,0 -1.2,-0.99 0,-0.55 0.6,-0.55 0.7,-0.55 h 11.86 c 0.3,0 0.89,0 0.89,1 0,0.54 -0.49,0.54 -1.14,0.54 -3.09,0 -3.09,0.35 -3.24,1.8 l -3.04,31.13 c -0.1,1 -0.1,1.2 -0.94,1.2 -0.8,0 -1,-0.35 -1.3,-0.85 z"
           id="path4939" /></g>    </g>
    <g
       id="g4941"
       transform="translate(-55.55839,134.85536)">
      <g
         word-spacing="normal"
         letter-spacing="normal"
         font-size-adjust="none"
         font-stretch="normal"
         font-weight="normal"
         font-variant="normal"
         font-style="normal"
         fill-rule="even-odd"
         stroke-miterlimit="10.433"
         xml:space="preserve"
         transform="matrix(0.40780653,0,0,-0.40780653,-71.366142,267.24804)"
         id="g4943"
         style="font-style:normal;font-variant:normal;font-weight:normal;font-stretch:normal;letter-spacing:normal;word-spacing:normal;text-anchor:start;fill:none;stroke:#000000;stroke-linecap:butt;stroke-linejoin:miter;stroke-miterlimit:10.43299961;stroke-opacity:1;stroke-dasharray:none;stroke-dashoffset:0"><path
           id="path4945"
           d="m 464.92,411.73 -0.19,-0.31 -0.19,-0.29 -0.18,-0.27 -0.19,-0.26 -0.18,-0.25 -0.19,-0.23 -0.19,-0.23 -0.18,-0.2 -0.19,-0.2 -0.18,-0.18 -0.19,-0.17 -0.19,-0.16 -0.19,-0.15 -0.18,-0.14 -0.19,-0.13 -0.19,-0.12 -0.19,-0.11 -0.19,-0.1 -0.19,-0.09 -0.19,-0.09 -0.2,-0.07 -0.19,-0.07 -0.19,-0.06 -0.2,-0.06 -0.2,-0.05 -0.19,-0.04 -0.2,-0.04 -0.2,-0.03 -0.4,-0.05 -0.41,-0.04 c -0.6,-0.04 -1.05,-0.04 -1.05,-0.99 0,-0.3 0.25,-0.55 0.65,-0.55 h 9.27 c 0.3,0 0.94,0 0.94,0.95 0,0.55 -0.44,0.59 -0.8,0.59 -1.14,0.1 -2.34,0.5 -2.34,1.75 0,0.6 0.3,1.14 0.7,1.84 l 3.79,6.38 h 12.5 l -0.15,1.54 h -11.41 l 9.82,16.44 1.59,-16.44 0.15,-1.54 c 0.1,-1.05 0.8,-7.82 0.8,-8.32 0,-1.49 -2.59,-1.65 -3.59,-1.65 -0.7,0 -1.2,0 -1.2,-0.99 0,-0.55 0.6,-0.55 0.7,-0.55 h 11.86 c 0.3,0 0.89,0 0.89,1 0,0.54 -0.49,0.54 -1.14,0.54 -3.09,0 -3.09,0.35 -3.24,1.8 l -3.04,31.13 c -0.1,1 -0.1,1.2 -0.94,1.2 -0.8,0 -1,-0.35 -1.3,-0.85 z"
           style="fill:#000000;stroke-width:0" /></g>    </g>
    <g
       transform="translate(143.94674,11.111674)"
       id="g4947">
      <g
         style="font-style:normal;font-variant:normal;font-weight:normal;font-stretch:normal;letter-spacing:normal;word-spacing:normal;text-anchor:start;fill:none;stroke:#000000;stroke-linecap:butt;stroke-linejoin:miter;stroke-miterlimit:10.43299961;stroke-opacity:1;stroke-dasharray:none;stroke-dashoffset:0"
         id="g4949"
         transform="matrix(0.40780653,0,0,-0.40780653,-71.366142,267.24804)"
         xml:space="preserve"
         stroke-miterlimit="10.433"
         fill-rule="even-odd"
         font-style="normal"
         font-variant="normal"
         font-weight="normal"
         font-stretch="normal"
         font-size-adjust="none"
         letter-spacing="normal"
         word-spacing="normal"><path
           style="fill:#000000;stroke-width:0"
           d="m 464.92,411.73 -0.19,-0.31 -0.19,-0.29 -0.18,-0.27 -0.19,-0.26 -0.18,-0.25 -0.19,-0.23 -0.19,-0.23 -0.18,-0.2 -0.19,-0.2 -0.18,-0.18 -0.19,-0.17 -0.19,-0.16 -0.19,-0.15 -0.18,-0.14 -0.19,-0.13 -0.19,-0.12 -0.19,-0.11 -0.19,-0.1 -0.19,-0.09 -0.19,-0.09 -0.2,-0.07 -0.19,-0.07 -0.19,-0.06 -0.2,-0.06 -0.2,-0.05 -0.19,-0.04 -0.2,-0.04 -0.2,-0.03 -0.4,-0.05 -0.41,-0.04 c -0.6,-0.04 -1.05,-0.04 -1.05,-0.99 0,-0.3 0.25,-0.55 0.65,-0.55 h 9.27 c 0.3,0 0.94,0 0.94,0.95 0,0.55 -0.44,0.59 -0.8,0.59 -1.14,0.1 -2.34,0.5 -2.34,1.75 0,0.6 0.3,1.14 0.7,1.84 l 3.79,6.38 h 12.5 l -0.15,1.54 h -11.41 l 9.82,16.44 1.59,-16.44 0.15,-1.54 c 0.1,-1.05 0.8,-7.82 0.8,-8.32 0,-1.49 -2.59,-1.65 -3.59,-1.65 -0.7,0 -1.2,0 -1.2,-0.99 0,-0.55 0.6,-0.55 0.7,-0.55 h 11.86 c 0.3,0 0.89,0 0.89,1 0,0.54 -0.49,0.54 -1.14,0.54 -3.09,0 -3.09,0.35 -3.24,1.8 l -3.04,31.13 c -0.1,1 -0.1,1.2 -0.94,1.2 -0.8,0 -1,-0.35 -1.3,-0.85 z"
           id="path4951" /></g>    </g>
    <g
       id="g5037"
       transform="translate(27.274118,161.87695)">
      <g
         word-spacing="normal"
         letter-spacing="normal"
         font-size-adjust="none"
         font-stretch="normal"
         font-weight="normal"
         font-variant="normal"
         font-style="normal"
         fill-rule="even-odd"
         stroke-miterlimit="10.433"
         xml:space="preserve"
         transform="matrix(0.40780653,0,0,-0.40780653,-71.366142,267.24804)"
         id="g5039"
         style="font-style:normal;font-variant:normal;font-weight:normal;font-stretch:normal;letter-spacing:normal;word-spacing:normal;text-anchor:start;fill:none;stroke:#000000;stroke-linecap:butt;stroke-linejoin:miter;stroke-miterlimit:10.43299961;stroke-opacity:1;stroke-dasharray:none;stroke-dashoffset:0"><path
           id="path5041"
           d="m 478.02,440.77 -0.04,0.06 -0.03,0.06 -0.03,0.05 -0.02,0.05 -0.03,0.06 -0.03,0.04 -0.03,0.05 -0.02,0.04 -0.03,0.05 -0.03,0.04 -0.02,0.03 -0.03,0.04 -0.03,0.03 -0.03,0.03 -0.03,0.03 -0.03,0.03 -0.04,0.03 -0.03,0.02 -0.04,0.02 -0.04,0.02 -0.04,0.02 -0.04,0.02 -0.05,0.02 -0.05,0.01 -0.05,0.01 -0.05,0.01 -0.06,0.01 -0.06,0.01 -0.07,0 -0.07,0.01 -0.07,0 -0.08,0 c -0.84,0 -0.94,-0.25 -1.29,-0.9 l -0.3,-4.09 13.4,-26.89 h -26.85 l 13.45,26.89 0.3,4.09 L 458.59,407 c -0.25,-0.45 -0.25,-0.55 -0.25,-0.6 0,-0.4 0.3,-0.4 1.1,-0.4 h 34.57 c 0.79,0 1.09,0 1.09,0.4 0,0.05 0,0.15 -0.24,0.6 z"
           style="fill:#000000;stroke-width:0" /><path
           id="path5043"
           d="m 518.77,439.38 0,0 0,0.01 0,0 0,0.01 0,0.01 0,0 0,0.01 0.01,0.01 0,0.02 0,0.02 0.01,0.02 0,0.03 0.01,0.02 0,0.03 0.01,0.03 0.01,0.03 0,0.02 0.01,0.03 0.01,0.06 0.02,0.06 0,0.03 0.01,0.03 0.01,0.02 0,0.03 0.01,0.02 0,0.03 0.01,0.02 0,0.02 0.01,0.01 0,0 0,0.01 0,0.01 0,0.01 0,0 0.01,0.01 0,0.01 0,0 0,0 0,0.01 0,0 c 0,0.05 0,0.5 -0.6,0.5 -0.5,0 -0.55,-0.15 -0.75,-1 l -2.89,-11.5 c -7.92,-0.25 -15.24,-6.88 -15.24,-13.65 0,-4.73 3.49,-8.67 9.56,-9.02 l 0.25,1.1 c -2.98,0.15 -6.57,1.89 -6.57,6.87 0,5.98 4.28,12.95 11.71,13.6 L 509.25,406.5 509,405.4 c -0.39,-1.54 -0.74,-3.13 -1.14,-4.68 -0.6,-2.34 -1.1,-4.24 -1.1,-4.38 0,-0.5 0.35,-0.55 0.6,-0.55 0.25,0 0.35,0.05 0.5,0.2 0.1,0.1 0.4,1.29 0.55,1.99 l 1.89,7.42 0.25,1.1 5.13,20.47 c 3.79,-0.2 6.62,-2.49 6.62,-6.87 0,-5.88 -4.28,-13 -11.75,-13.6 l -0.25,-1.1 c 8.02,0.25 15.24,6.98 15.24,13.65 0,3.93 -2.64,8.52 -9.56,9.02 z"
           style="fill:#000000;stroke-width:0" /><path
           id="path5045"
           d="m 542.55,408.34 0,0.34 0,0.33 -0.01,0.32 -0.01,0.31 -0.01,0.15 -0.02,0.15 -0.01,0.14 -0.02,0.15 -0.03,0.14 -0.02,0.14 -0.03,0.14 -0.04,0.14 -0.04,0.13 -0.04,0.13 -0.05,0.14 -0.06,0.13 -0.06,0.13 -0.07,0.12 -0.07,0.13 -0.08,0.13 -0.09,0.12 -0.1,0.13 -0.1,0.12 -0.11,0.12 -0.12,0.13 -0.13,0.12 -0.14,0.12 -0.14,0.12 c -1.43,1.18 -3.11,1.74 -5.17,1.74 -3.31,0 -5.64,-1.25 -5.64,-3.38 0,-1.12 0.77,-1.71 1.67,-1.71 0.94,0 1.64,0.7 1.64,1.64 0,0.59 -0.28,1.33 -1.22,1.6 1.25,0.87 3.28,0.87 3.49,0.87 1.95,0 4.08,-1.28 4.08,-4.21 v -1.09 -0.9 -3.45 c 0,-3.35 -2.93,-4.29 -4.5,-4.29 -1.78,0 -3.45,1.18 -3.45,2.89 0,1.92 1.67,4.6 7.95,4.85 v 0.9 c -1.92,-0.06 -4.22,-0.17 -6.77,-1.11 -3.13,-1.15 -4.11,-3.07 -4.11,-4.64 0,-3 3.62,-3.87 6.1,-3.87 2.79,0 4.43,1.57 5.16,2.93 0.14,-1.43 1.08,-2.76 2.69,-2.76 0.06,0 3.45,0 3.45,3.32 v 1.91 h -1.19 v -1.88 c 0,-0.35 0,-2.02 -1.29,-2.02 -1.29,0 -1.29,1.64 -1.29,2.09 z"
           style="fill:#000000;stroke-width:0" /><path
           id="path5047"
           d="m 558.41,422.82 v -1.26 c 2.34,0 2.62,-0.24 2.62,-1.95 v -7.22 c -1.29,1.25 -2.96,1.99 -4.88,1.99 l 0.17,-0.98 c 1.68,0 3.18,-0.77 4.15,-2.02 0.42,-0.56 0.42,-0.59 0.42,-1.26 v -7.46 c -0.91,-1.64 -2.69,-3.03 -4.95,-3.03 -1.96,0 -3.35,1.15 -4.04,2.16 -0.7,1.05 -1.12,2.44 -1.12,4.67 0,0.81 0,3.42 1.43,5.06 1.39,1.57 3.1,1.88 4.11,1.88 l -0.17,0.98 c -4.64,0 -8.55,-3.49 -8.55,-7.88 0,-4.36 3.7,-7.85 8.13,-7.85 2.86,0 4.57,1.54 5.16,2.16 v -2.16 l 5.37,0.35 v 1.25 c -2.34,0 -2.61,0.25 -2.61,1.96 v 20.99 z"
           style="fill:#000000;stroke-width:0" /><path
           id="path5049"
           d="m 576.47,420.48 0,0.11 -0.01,0.11 -0.01,0.11 -0.02,0.11 -0.02,0.1 -0.03,0.1 -0.04,0.1 -0.04,0.09 -0.04,0.09 -0.04,0.09 -0.06,0.08 -0.05,0.08 -0.06,0.08 -0.06,0.08 -0.06,0.07 -0.07,0.07 -0.07,0.06 -0.08,0.06 -0.07,0.06 -0.08,0.05 -0.08,0.05 -0.09,0.05 -0.08,0.04 -0.09,0.04 -0.09,0.03 -0.09,0.03 -0.09,0.02 -0.09,0.02 -0.09,0.02 -0.1,0.01 -0.09,0.01 -0.1,0 c -1.21,0 -2.01,-0.97 -2.01,-1.98 0,-1.23 0.97,-2.03 1.98,-2.03 1.22,0 2.02,0.98 2.02,1.99 z"
           style="fill:#000000;stroke-width:0" /><path
           id="path5051"
           d="m 570.97,413.99 v -1.25 c 2.57,0 2.89,-0.24 2.89,-1.95 v -13.46 c 0,-1.33 -0.28,-4.47 -2.62,-4.47 -0.1,0 -0.94,0 -1.74,0.35 0.07,0.04 0.87,0.45 0.87,1.5 0,0.94 -0.7,1.64 -1.64,1.64 -1.01,0 -1.67,-0.7 -1.67,-1.67 0,-1.89 2.09,-2.79 4.22,-2.79 2.82,0 5.19,2.19 5.19,5.5 v 16.99 z"
           style="fill:#000000;stroke-width:0" /><path
           id="path5053"
           d="m 588.91,400.99 0,0.11 -0.01,0.12 -0.01,0.11 -0.02,0.11 -0.03,0.1 -0.03,0.1 -0.03,0.1 -0.04,0.09 -0.05,0.09 -0.05,0.09 -0.05,0.09 -0.06,0.08 -0.06,0.08 -0.06,0.07 -0.07,0.07 -0.07,0.07 -0.07,0.06 -0.07,0.06 -0.08,0.06 -0.08,0.05 -0.08,0.05 -0.08,0.05 -0.09,0.04 -0.08,0.03 -0.09,0.03 -0.09,0.03 -0.09,0.03 -0.08,0.02 -0.09,0.01 -0.09,0.01 -0.09,0.01 -0.09,0 c -1.15,0 -2.02,-0.94 -2.02,-1.99 0,-1.25 1.04,-2.02 1.99,-2.02 1.14,0 2.01,0.94 2.01,1.99 z"
           style="fill:#000000;stroke-width:0" /></g>    </g>
    <path
       inkscape:transform-center-y="17.883494"
       sodipodi:nodetypes="cszc"
       id="path5125"
       d="m 159.15252,250.30527 c 0,0 -3.95182,-18.57495 -7.67716,-18.54681 -3.19349,0.0241 -4.68683,13.78577 -8.96244,10.24248 -4.27563,-3.54331 -9.38192,-21.87053 -9.38192,-21.87053"
       style="color:#000000;fill:none;stroke:#000000;stroke-width:1.5;stroke-linecap:butt;stroke-linejoin:miter;stroke-miterlimit:4;stroke-opacity:1;stroke-dasharray:none;stroke-dashoffset:0;marker:none;marker-end:url(#Arrow1Mend);visibility:visible;display:inline;overflow:visible;enable-background:accumulate"
       inkscape:transform-center-x="-14.205013" />
    <path
       sodipodi:open="true"
       sodipodi:end="6.3196278"
       sodipodi:start="6.0213859"
       transform="translate(-156.27877,103.04839)"
       d="m 291.79246,108.6761 a 26.390236,26.390236 0 0 1 0.88171,7.79181"
       sodipodi:ry="26.390236"
       sodipodi:rx="26.390236"
       sodipodi:cy="115.5064"
       sodipodi:cx="266.30145"
       id="path5127"
       style="fill:none;stroke:#000000;stroke-width:1.5;stroke-miterlimit:4;stroke-opacity:1;stroke-dasharray:6, 1.5;stroke-dashoffset:0"
       sodipodi:type="arc" />
  </g>
</svg>
