<?xml version="1.0" encoding="UTF-8" standalone="no"?>
<!-- Created with Inkscape (http://www.inkscape.org/) -->

<svg
   xmlns:dc="http://purl.org/dc/elements/1.1/"
   xmlns:cc="http://creativecommons.org/ns#"
   xmlns:rdf="http://www.w3.org/1999/02/22-rdf-syntax-ns#"
   xmlns:svg="http://www.w3.org/2000/svg"
   xmlns="http://www.w3.org/2000/svg"
   xmlns:sodipodi="http://sodipodi.sourceforge.net/DTD/sodipodi-0.dtd"
   xmlns:inkscape="http://www.inkscape.org/namespaces/inkscape"
   sodipodi:docname="singleSlitPattern.svg"
   inkscape:version="0.47 r22583"
   version="1.1"
   id="svg2876"
   height="203.52542"
   width="362.62445">
  <sodipodi:namedview
     id="base"
     pagecolor="#ffffff"
     bordercolor="#666666"
     borderopacity="1.0"
     inkscape:pageopacity="0.0"
     inkscape:pageshadow="2"
     inkscape:zoom="1.4142136"
     inkscape:cx="232.21168"
     inkscape:cy="119.52572"
     inkscape:document-units="px"
     inkscape:current-layer="layer1"
     showgrid="false"
     inkscape:window-width="1920"
     inkscape:window-height="1000"
     inkscape:window-x="0"
     inkscape:window-y="27"
     inkscape:window-maximized="1" />
  <defs
     id="defs2878">
    <marker
       style="overflow:visible"
       id="Arrow1Mend"
       refX="0"
       refY="0"
       orient="auto"
       inkscape:stockid="Arrow1Mend">
      <path
         transform="matrix(-0.4,0,0,-0.4,-4,0)"
         style="fill-rule:evenodd;stroke:#000000;stroke-width:1pt;marker-start:none"
         d="M 0,0 5,-5 -12.5,0 5,5 0,0 z"
         id="path3598" />
    </marker>
    <marker
       style="overflow:visible"
       id="DotM"
       refX="0"
       refY="0"
       orient="auto"
       inkscape:stockid="DotM">
      <path
         transform="matrix(0.4,0,0,0.4,2.96,0.4)"
         style="fill-rule:evenodd;stroke:#000000;stroke-width:1pt;marker-start:none;marker-end:none"
         d="m -2.5,-1 c 0,2.76 -2.24,5 -5,5 -2.76,0 -5,-2.24 -5,-5 0,-2.76 2.24,-5 5,-5 2.76,0 5,2.24 5,5 z"
         id="path3654" />
    </marker>
    <inkscape:perspective
       id="perspective2884"
       inkscape:persp3d-origin="372.04724 : 350.78739 : 1"
       inkscape:vp_z="744.09448 : 526.18109 : 1"
       inkscape:vp_y="0 : 1000 : 0"
       inkscape:vp_x="0 : 526.18109 : 1"
       sodipodi:type="inkscape:persp3d" />
  </defs>
  <metadata
     id="metadata2881">
    <rdf:RDF>
      <cc:Work
         rdf:about="">
        <dc:format>image/svg+xml</dc:format>
        <dc:type
           rdf:resource="http://purl.org/dc/dcmitype/StillImage" />
        <dc:title></dc:title>
      </cc:Work>
    </rdf:RDF>
  </metadata>
  <g
     transform="translate(-4.4213927,-5.119725)"
     id="layer1"
     inkscape:groupmode="layer"
     inkscape:label="Layer 1">
    <path
       inkscape:transform-center-x="-136.99776"
       sodipodi:nodetypes="cc"
       id="path4468"
       d="m 14.631524,186.68401 345.439086,0"
       style="color:#000000;fill:none;stroke:#000000;stroke-width:1.32599998;stroke-linecap:butt;stroke-linejoin:miter;stroke-miterlimit:4;stroke-opacity:1;stroke-dasharray:none;stroke-dashoffset:0;marker:none;marker-end:url(#Arrow1Mend);visibility:visible;display:inline;overflow:visible;enable-background:accumulate" />
    <path
       inkscape:transform-center-y="-136.99776"
       style="color:#000000;fill:none;stroke:#000000;stroke-width:1.32599998;stroke-linecap:butt;stroke-linejoin:miter;stroke-miterlimit:4;stroke-opacity:1;stroke-dasharray:none;stroke-dashoffset:0;marker:none;marker-end:url(#Arrow1Mend);visibility:visible;display:inline;overflow:visible;enable-background:accumulate"
       d="m 179.47674,185.46548 0,-164.093997"
       id="path4464"
       sodipodi:nodetypes="cc" />
    <text
       xml:space="preserve"
       style="font-size:13.27231312px;font-style:normal;font-variant:normal;font-weight:normal;font-stretch:normal;text-align:start;line-height:100%;writing-mode:lr-tb;text-anchor:start;fill:#000000;fill-opacity:1;stroke:none;font-family:Arial;-inkscape-font-specification:Arial"
       x="222.43671"
       y="200.53374"
       id="text10493"
       sodipodi:linespacing="100%"><tspan
         sodipodi:role="line"
         id="tspan10495"
         x="222.43671"
         y="200.53374">Position on screen</tspan></text>
    <text
       sodipodi:linespacing="100%"
       id="text10497"
       y="169.20311"
       x="-68.038879"
       style="font-size:13.27231312px;font-style:normal;font-variant:normal;font-weight:normal;font-stretch:normal;text-align:start;line-height:100%;writing-mode:lr-tb;text-anchor:start;fill:#000000;fill-opacity:1;stroke:none;font-family:Arial;-inkscape-font-specification:Arial"
       xml:space="preserve"
       transform="matrix(0,-1,1,0,0,0)"><tspan
         y="169.20311"
         x="-68.038879"
         id="tspan10499"
         sodipodi:role="line">Intensity</tspan></text>
    <path
       id="path10684"
       title="sin(x)**2/(1e-6+x**2)"
       d="m 13.992093,183.93566 c 0.616284,0.0163 1.232568,0.0284 1.848852,0.0352 0.616284,0.007 1.232567,0.008 1.848851,0.004 0.616284,-0.004 1.232568,-0.014 1.848852,-0.0293 0.616283,-0.0154 1.232567,-0.0362 1.84885,-0.0616 0.616285,-0.0254 1.232569,-0.0553 1.848852,-0.0882 0.616284,-0.0329 1.232567,-0.0688 1.848851,-0.10567 0.616285,-0.0368 1.232568,-0.0746 1.848852,-0.11114 0.616283,-0.0365 1.232567,-0.0717 1.848851,-0.10341 0.616284,-0.0317 1.232568,-0.0599 1.848851,-0.0829 0.616284,-0.0229 1.232568,-0.0405 1.848851,-0.0515 0.616285,-0.011 1.232568,-0.0155 1.848852,-0.013 0.616284,0.003 1.232567,0.0121 1.848852,0.0282 0.616283,0.0161 1.232567,0.0388 1.848851,0.0668 0.616283,0.028 1.232567,0.0612 1.848851,0.0977 0.616284,0.0365 1.232568,0.0761 1.848851,0.1164 0.616284,0.0403 1.232567,0.0811 1.848852,0.11979 0.616284,0.0386 1.232567,0.075 1.848851,0.10655 0.616283,0.0315 1.232567,0.058 1.848851,0.0774 0.616284,0.0194 1.232568,0.0315 1.848851,0.0351 0.616284,0.004 1.232568,-0.001 1.848852,-0.0156 0.616284,-0.0141 1.232567,-0.0373 1.848851,-0.0688 0.616283,-0.0315 1.232568,-0.0714 1.848852,-0.11792 0.616283,-0.0465 1.232567,-0.0995 1.84885,-0.15634 0.616284,-0.0568 1.232569,-0.11749 1.848852,-0.17856 0.616284,-0.0611 1.232567,-0.12253 1.848851,-0.18078 0.616284,-0.0582 1.232568,-0.11323 1.848852,-0.16156 0.616283,-0.0483 1.232567,-0.0899 1.848851,-0.12209 0.616284,-0.0322 1.232568,-0.0548 1.848851,-0.0662 0.616284,-0.0114 1.232568,-0.0116 1.848851,-2.5e-4 0.616285,0.0114 1.232568,0.0344 1.848852,0.0679 0.616284,0.0335 1.232567,0.0776 1.848851,0.12955 0.616284,0.052 1.232568,0.11193 1.848852,0.17603 0.616283,0.0641 1.232567,0.13239 1.84885,0.20021 0.616285,0.0678 1.232569,0.13517 1.848852,0.19716 0.616284,0.062 1.232567,0.11855 1.848852,0.16514 0.616284,0.0466 1.232567,0.0831 1.848851,0.10598 0.616283,0.0229 1.232567,0.0319 1.848851,0.025 0.616284,-0.007 1.232568,-0.0298 1.848851,-0.0691 0.616284,-0.0393 1.232568,-0.095 1.848852,-0.16549 0.616284,-0.0705 1.232567,-0.15575 1.848851,-0.25213 0.616283,-0.0964 1.232567,-0.20391 1.848852,-0.31722 0.616283,-0.11332 1.232567,-0.23241 1.84885,-0.35081 0.616284,-0.1184 1.232569,-0.23606 1.848852,-0.34612 0.616284,-0.11006 1.232567,-0.21243 1.848851,-0.30071 0.616284,-0.0883 1.232568,-0.16235 1.848852,-0.21714 0.616283,-0.0548 1.232567,-0.0901 1.848851,-0.10306 0.616286,-0.0129 1.232576,-0.003 1.848846,0.0292 0.61629,0.0325 1.23257,0.088 1.84886,0.16396 0.61628,0.0759 1.23256,0.17223 1.84885,0.28343 0.61628,0.11119 1.23257,0.23728 1.84885,0.37013 0.61629,0.13285 1.23256,0.27244 1.84885,0.40885 0.61628,0.13642 1.23257,0.26956 1.84886,0.3888 0.61627,0.11925 1.23256,0.22441 1.84884,0.30539 0.61629,0.081 1.23257,0.13756 1.84886,0.16145 0.61627,0.0239 1.23256,0.0148 1.84885,-0.0324 0.61628,-0.0472 1.23257,-0.13287 1.84884,-0.25809 0.61629,-0.12522 1.23257,-0.29026 1.84886,-0.49159 0.61628,-0.20132 1.23257,-0.43913 1.84885,-0.70508 0.61628,-0.26594 1.23257,-0.56013 1.84885,-0.86987 0.61629,-0.30974 1.23256,-0.63503 1.84885,-0.95981 0.61629,-0.32479 1.23257,-0.64895 1.84886,-0.95466 0.61628,-0.3057 1.23256,-0.5927 1.84884,-0.84336 0.61629,-0.25065 1.23257,-0.46457 1.84886,-0.62656 0.61628,-0.16199 1.23256,-0.27158 1.84885,-0.31826 0.61628,-0.0467 1.23257,-0.0299 1.84885,0.0539 0.61628,0.0838 1.23256,0.23533 1.84885,0.44964 0.61629,0.21432 1.23257,0.49189 1.84885,0.8184 0.61628,0.32652 1.23257,0.70225 1.84885,1.10314 0.61629,0.4009 1.23258,0.82702 1.84885,1.24522 0.61629,0.41819 1.23257,0.82829 1.84886,1.18969 0.61628,0.3614 1.23256,0.67361 1.84884,0.89115 0.61629,0.21754 1.23258,0.33959 1.84886,0.31904 0.61628,-0.0206 1.23256,-0.18485 1.84885,-0.53783 0.61628,-0.35298 1.23257,-0.89606 1.84885,-1.668 0.61628,-0.77195 1.23257,-1.77438 1.84885,-3.03595 0.61629,-1.26157 1.23257,-2.78404 1.84885,-4.58245 0.61628,-1.79842 1.23257,-3.87458 1.84886,-6.22723 0.61628,-2.35265 1.23257,-4.9835 1.84884,-7.87334 0.61629,-2.88983 1.23257,-6.04017 1.84886,-9.41345 0.61628,-3.37326 1.23256,-6.97068 1.84885,-10.73727 0.61628,-3.7666 1.23257,-7.70318 1.84885,-11.73974 0.61629,-4.03655 1.23256,-8.1734 1.84885,-12.32907 0.61628,-4.15567 1.23257,-8.32996 1.84886,-12.43454 0.61627,-4.104591 1.23256,-8.138695 1.84884,-12.01252 0.61629,-3.873823 1.23257,-7.586026 1.84886,-11.050964 0.61628,-3.464938 1.23256,-6.680774 1.84885,-9.571564 0.61628,-2.89079 1.23257,-5.45429 1.84884,-7.629257 0.61629,-2.174968 1.23257,-3.95893 1.84886,-5.308996 0.61629,-1.350066 1.23257,-2.27284 1.84885,-2.709699 0.61628,-0.43686 1.23257,-0.435819 1.84885,0 0.61629,0.435818 1.23256,1.3605 1.84885,2.709699 0.61629,1.349199 1.23257,3.134806 1.84886,5.308996 0.61628,2.174191 1.23256,4.739117 1.84884,7.629257 0.61629,2.890141 1.23257,6.107121 1.84886,9.571564 0.61628,3.464443 1.23256,7.177462 1.84885,11.050964 0.61628,3.873504 1.23257,7.908069 1.84885,12.01252 0.61628,4.10444 1.23257,8.27883 1.84885,12.43454 0.61629,4.15571 1.23257,8.29232 1.84885,12.32907 0.61628,4.03676 1.23257,7.9728 1.84885,11.73974 0.61629,3.76692 1.23258,7.36356 1.84885,10.73727 0.61629,3.37372 1.23257,6.52311 1.84886,9.41345 0.61628,2.89036 1.23256,5.52014 1.84884,7.87334 0.61629,2.3532 1.23258,4.42826 1.84886,6.22723 0.61629,1.79896 1.23256,3.32036 1.84885,4.58245 0.61628,1.26209 1.23257,2.26355 1.84886,3.03595 0.61627,0.7724 1.23256,1.31464 1.84884,1.668 0.61629,0.35336 1.23257,0.51698 1.84886,0.53783 0.61627,0.0208 1.23256,-0.10169 1.84885,-0.31904 0.61628,-0.21735 1.23257,-0.52985 1.84884,-0.89115 0.61629,-0.3613 1.23257,-0.77151 1.84886,-1.18969 0.61628,-0.41818 1.23256,-0.84427 1.84885,-1.24522 0.61628,-0.40094 1.23257,-0.77653 1.84885,-1.10314 0.61629,-0.32661 1.23256,-0.60395 1.84885,-0.8184 0.61629,-0.21443 1.23257,-0.36565 1.84886,-0.44964 0.61627,-0.084 1.23256,-0.10047 1.84884,-0.0539 0.61629,0.0465 1.23257,0.15638 1.84886,0.31826 0.61628,0.16188 1.23256,0.37599 1.84885,0.62656 0.61628,0.25058 1.23257,0.53769 1.84884,0.84336 0.61629,0.30567 1.23257,0.62987 1.84886,0.95466 0.61629,0.32478 1.23257,0.65004 1.84885,0.95981 0.61628,0.30977 1.23257,0.60388 1.84885,0.86987 0.61629,0.266 1.23257,0.50368 1.84885,0.70508 0.61629,0.2014 1.23257,0.36629 1.84886,0.49159 0.61628,0.12529 1.23256,0.21079 1.84884,0.25809 0.61629,0.0473 1.23258,0.0562 1.84886,0.0324 0.61628,-0.0238 1.23256,-0.0805 1.84885,-0.16145 0.61628,-0.0809 1.23257,-0.18617 1.84885,-0.30539 0.61628,-0.11921 1.23257,-0.25238 1.84885,-0.3888 0.61629,-0.1364 1.23257,-0.27599 1.84885,-0.40885 0.61628,-0.13286 1.23257,-0.25891 1.84885,-0.37013 0.61629,-0.11123 1.23258,-0.2075 1.84885,-0.28343 0.61629,-0.0759 1.23257,-0.13139 1.84886,-0.16396 0.61628,-0.0326 1.23256,-0.0421 1.84885,-0.0292 0.61628,0.0129 1.23257,0.0483 1.84885,0.10306 0.61629,0.0547 1.23256,0.12888 1.84885,0.21714 0.61628,0.0882 1.23257,0.19067 1.84886,0.30071 0.61627,0.11005 1.23256,0.22772 1.84884,0.34612 0.61629,0.1184 1.23257,0.23748 1.84886,0.35081 0.61628,0.11332 1.23256,0.22081 1.84885,0.31722 0.61628,0.0964 1.23257,0.18162 1.84884,0.25213 0.61629,0.0705 1.23257,0.12618 1.84886,0.16549 0.61629,0.0393 1.23257,0.0622 1.84885,0.0691 0.61628,0.007 1.23257,-0.002 1.84885,-0.025 0.61629,-0.0228 1.23256,-0.0594 1.84885,-0.10598 0.61629,-0.0466 1.23257,-0.10316 1.84886,-0.16514 0.61627,-0.062 1.23256,-0.12934 1.84884,-0.19716 0.61629,-0.0678 1.23257,-0.13608 1.84886,-0.20021 0.61628,-0.0641 1.23256,-0.12404 1.84885,-0.17603 0.61628,-0.052 1.23257,-0.096 1.84884,-0.12955 0.61629,-0.0335 1.23258,-0.0565 1.84886,-0.0679 0.61629,-0.0114 1.23257,-0.0112 1.84885,2.5e-4 0.61628,0.0114 1.23257,0.0341 1.84885,0.0662 0.61629,0.0321 1.23257,0.0738 1.84885,0.12209 0.61629,0.0483 1.23257,0.10331 1.84886,0.16156 0.61628,0.0582 1.23256,0.11972 1.84884,0.18078 0.61629,0.0611 1.23258,0.12171 1.84886,0.17856 0.61628,0.0568 1.23256,0.10986 1.84885,0.15634 0.61628,0.0465 1.23257,0.0863 1.84885,0.11792 0.61628,0.0315 1.23257,0.0547 1.84885,0.0688 0.61629,0.0141 1.23257,0.0192 1.84885,0.0156 0.61628,-0.004 1.23257,-0.0158 1.84886,-0.0351 0.61628,-0.0194 1.23257,-0.0459 1.84884,-0.0774 0.61629,-0.0315 1.23257,-0.0679 1.84886,-0.10655 0.61628,-0.0386 1.23256,-0.0795 1.84885,-0.11979 0.61628,-0.0403 1.23257,-0.0799 1.84885,-0.1164 0.61629,-0.0365 1.23256,-0.0697 1.84885,-0.0977 0.61629,-0.028 1.23257,-0.0507 1.84886,-0.0668 0.61627,-0.0161 1.23256,-0.0257 1.84884,-0.0282 0.61629,-0.003 1.23257,0.002 1.84886,0.013 0.61628,0.011 1.23256,0.0286 1.84885,0.0515 0.61628,0.0229 1.23257,0.0512 1.84884,0.0829 0.61629,0.0317 1.23257,0.0669 1.84886,0.10341 0.61629,0.0365 1.23257,0.0743 1.84885,0.11114 0.61628,0.0368 1.23257,0.0727 1.84885,0.10567 0.61629,0.0329 1.23257,0.0628 1.84885,0.0882 0.61629,0.0254 1.23257,0.0462 1.84886,0.0616 0.61628,0.0154 1.23256,0.0252 1.84884,0.0293 0.61629,0.004 1.23258,0.003 1.84886,-0.004 0.61628,-0.007 1.23256,-0.019 1.84885,-0.0352"
       style="color:#000000;fill:none;stroke:#000000;stroke-width:1.96790493;stroke-linecap:butt;stroke-linejoin:miter;stroke-miterlimit:4;stroke-opacity:1;stroke-dasharray:none;stroke-dashoffset:0;marker:none;visibility:visible;display:inline;overflow:visible;enable-background:accumulate" />
  </g>
</svg>
