<?xml version="1.0" encoding="UTF-8" standalone="no"?>
<!-- Created with Inkscape (http://www.inkscape.org/) -->

<svg
   xmlns:dc="http://purl.org/dc/elements/1.1/"
   xmlns:cc="http://creativecommons.org/ns#"
   xmlns:rdf="http://www.w3.org/1999/02/22-rdf-syntax-ns#"
   xmlns:svg="http://www.w3.org/2000/svg"
   xmlns="http://www.w3.org/2000/svg"
   xmlns:sodipodi="http://sodipodi.sourceforge.net/DTD/sodipodi-0.dtd"
   xmlns:inkscape="http://www.inkscape.org/namespaces/inkscape"
   sodipodi:docname="threeSlitPattern.svg"
   inkscape:version="0.47 r22583"
   version="1.1"
   id="svg2876"
   height="201.99998"
   width="353.99997">
  <sodipodi:namedview
     id="base"
     pagecolor="#ffffff"
     bordercolor="#666666"
     borderopacity="1.0"
     inkscape:pageopacity="0.0"
     inkscape:pageshadow="2"
     inkscape:zoom="2.0000001"
     inkscape:cx="337.04241"
     inkscape:cy="100.41658"
     inkscape:document-units="px"
     inkscape:current-layer="layer1"
     showgrid="false"
     inkscape:window-width="1920"
     inkscape:window-height="1000"
     inkscape:window-x="0"
     inkscape:window-y="27"
     inkscape:window-maximized="1" />
  <defs
     id="defs2878">
    <marker
       style="overflow:visible"
       id="Arrow1Mend"
       refX="0"
       refY="0"
       orient="auto"
       inkscape:stockid="Arrow1Mend">
      <path
         transform="matrix(-0.4,0,0,-0.4,-4,0)"
         style="fill-rule:evenodd;stroke:#000000;stroke-width:1pt;marker-start:none"
         d="M 0,0 5,-5 -12.5,0 5,5 0,0 z"
         id="path3598" />
    </marker>
    <marker
       style="overflow:visible"
       id="DotM"
       refX="0"
       refY="0"
       orient="auto"
       inkscape:stockid="DotM">
      <path
         transform="matrix(0.4,0,0,0.4,2.96,0.4)"
         style="fill-rule:evenodd;stroke:#000000;stroke-width:1pt;marker-start:none;marker-end:none"
         d="m -2.5,-1 c 0,2.76 -2.24,5 -5,5 -2.76,0 -5,-2.24 -5,-5 0,-2.76 2.24,-5 5,-5 2.76,0 5,2.24 5,5 z"
         id="path3654" />
    </marker>
    <inkscape:perspective
       id="perspective2884"
       inkscape:persp3d-origin="372.04724 : 350.78739 : 1"
       inkscape:vp_z="744.09448 : 526.18109 : 1"
       inkscape:vp_y="0 : 1000 : 0"
       inkscape:vp_x="0 : 526.18109 : 1"
       sodipodi:type="inkscape:persp3d" />
  </defs>
  <metadata
     id="metadata2881">
    <rdf:RDF>
      <cc:Work
         rdf:about="">
        <dc:format>image/svg+xml</dc:format>
        <dc:type
           rdf:resource="http://purl.org/dc/dcmitype/StillImage" />
        <dc:title />
      </cc:Work>
    </rdf:RDF>
  </metadata>
  <g
     transform="translate(-4.7142858,-9.255337)"
     id="layer1"
     inkscape:groupmode="layer"
     inkscape:label="Layer 1">
    <path
       inkscape:transform-center-x="-136.99776"
       sodipodi:nodetypes="cc"
       id="path4468"
       d="m 20.131524,186.68401 330.439086,0"
       style="color:#000000;fill:none;stroke:#000000;stroke-width:1.32599998;stroke-linecap:butt;stroke-linejoin:miter;stroke-miterlimit:4;stroke-opacity:1;stroke-dasharray:none;stroke-dashoffset:0;marker:none;marker-end:url(#Arrow1Mend);visibility:visible;display:inline;overflow:visible;enable-background:accumulate" />
    <path
       inkscape:transform-center-y="-136.99776"
       style="color:#000000;fill:none;stroke:#000000;stroke-width:1.32599998;stroke-linecap:butt;stroke-linejoin:miter;stroke-miterlimit:4;stroke-opacity:1;stroke-dasharray:none;stroke-dashoffset:0;marker:none;marker-end:url(#Arrow1Mend);visibility:visible;display:inline;overflow:visible;enable-background:accumulate"
       d="m 179.47674,185.46548 0,-164.093997"
       id="path4464"
       sodipodi:nodetypes="cc" />
    <path
       id="path10480"
       title="(1+cos(x)+cos(2*x))**2+(sin(x)+sin(2*x))**2"
       d="m 23.905178,175.8767 c 0.578999,-0.62408 1.158017,-1.09426 1.737034,-1.35878 0.579,-0.26452 1.158017,-0.32221 1.737036,-0.16801 0.578998,0.15417 1.158015,0.52131 1.737034,1.06002 0.578997,0.53875 1.158015,1.2495 1.737014,2.05047 0.579017,0.80096 1.158034,1.6917 1.737034,2.56161 0.579018,0.86989 1.158036,1.71763 1.737034,2.41958 0.579018,0.70193 1.15804,1.25599 1.737034,1.54349 0.579018,0.28752 1.158038,0.3058 1.737032,-0.041 0.579019,-0.34677 1.158039,-1.06165 1.737033,-2.20231 0.579019,-1.14065 1.158038,-2.71014 1.737032,-4.71732 0.57902,-2.00718 1.158038,-4.45474 1.737045,-7.29808 0.579007,-2.84333 1.158014,-6.08437 1.737032,-9.62714 0.57902,-3.54276 1.158014,-7.38819 1.737034,-11.39751 0.579018,-4.00934 1.158012,-8.1824 1.737032,-12.35191 0.579019,-4.16949 1.158013,-8.33413 1.737033,-12.31623 0.579018,-3.98211 1.158013,-7.77928 1.737032,-11.22344 0.579019,-3.44415 1.158014,-6.53201 1.737032,-9.12419 0.579019,-2.59216 1.158027,-4.684795 1.737033,-6.183286 0.579019,-1.498476 1.158026,-2.398767 1.737045,-2.662031 0.578995,-0.263278 1.158013,0.114376 1.737032,1.111267 0.578995,0.996937 1.158014,2.616495 1.737033,4.77919 0.578995,2.16271 1.158013,4.87098 1.737032,7.99652 0.578995,3.12552 1.158014,6.66967 1.737033,10.47001 0.578995,3.80033 1.158013,7.85706 1.737033,11.99213 0.579006,4.13503 1.158013,8.34753 1.737032,12.46364 0.579007,4.11613 1.158025,8.13413 1.73702,11.9035 0.579019,3.76936 1.158039,7.28771 1.737033,10.44358 0.579019,3.15588 1.158038,5.94663 1.737032,8.31043 0.579019,2.36381 1.158039,4.29811 1.737033,5.79499 0.579019,1.49687 1.158038,2.55418 1.737032,3.21528 0.57902,0.66112 1.158039,0.92456 1.737045,0.87616 0.579007,-0.0484 1.158026,-0.40938 1.737032,-0.96865 0.57902,-0.55929 1.158039,-1.3168 1.737034,-2.14717 0.579018,-0.83035 1.158006,-1.7328 1.737026,-2.58899 0.579019,-0.85624 1.158013,-1.66496 1.737033,-2.33186 0.579018,-0.66693 1.158012,-1.19047 1.737032,-1.5136 0.579019,-0.32313 1.158014,-0.44431 1.737032,-0.35157 0.579019,0.0926 1.158027,0.40047 1.737033,0.88852 0.579019,0.48807 1.158026,1.15691 1.737045,1.9301 0.579018,0.7732 1.158013,1.6504 1.737032,2.52432 0.57902,0.87393 1.158014,1.74338 1.737033,2.48553 0.578995,0.74214 1.158013,1.35497 1.737032,1.71802 0.578995,0.36303 1.158014,0.47363 1.737032,0.23157 0.578995,-0.24204 1.158014,-0.83975 1.737041,-1.85719 0.579,-1.01744 1.15802,-2.45767 1.73702,-4.33721 0.57901,-1.87952 1.15803,-4.20106 1.73705,-6.9279 0.57899,-2.72683 1.15801,-5.86103 1.73703,-9.31374 0.579,-3.45271 1.15802,-7.22504 1.73701,-11.1837 0.57902,-3.95865 1.15804,-8.10369 1.73704,-12.27089 0.57902,-4.1672 1.15804,-8.35537 1.73703,-12.38725 0.57901,-4.03187 1.15803,-7.90514 1.73704,-11.44909 0.57902,-3.54393 1.15802,-6.75538 1.73703,-9.48963 0.57902,-2.73423 1.15804,-4.987489 1.73704,-6.657773 0.57902,-1.670269 1.15804,-2.753516 1.73703,-3.202261 0.57902,-0.44876 1.15804,-0.259144 1.73703,0.5562 0.57902,0.815345 1.15801,2.259786 1.73703,4.261929 0.57902,2.002145 1.15801,4.564555 1.73703,7.565275 0.57902,3.00073 1.15803,6.44127 1.73705,10.16313 0.57901,3.72189 1.15802,7.72545 1.73703,11.83367 0.57902,4.10822 1.15802,8.3204 1.73704,12.46085 0.57902,4.14043 1.158,8.20751 1.73702,12.04617 0.57902,3.83867 1.15802,7.44666 1.73704,10.70597 0.57899,3.25928 1.15801,6.16727 1.73703,8.65441 0.57901,2.48716 1.15802,4.55087 1.73704,6.17533 0.579,1.62449 1.15802,2.80746 1.73703,3.58524 0.57901,0.7778 1.15803,1.14877 1.73704,1.19337 0.57899,0.0447 1.15801,-0.23809 1.73703,-0.73689 0.579,-0.49878 1.15802,-1.21376 1.73704,-2.02 0.57899,-0.80624 1.15801,-1.70308 1.73703,-2.57005 0.579,-0.86697 1.15802,-1.70288 1.73702,-2.40895 0.57901,-0.70607 1.15803,-1.28078 1.73704,-1.66093 0.57901,-0.38015 1.15802,-0.56424 1.73702,-0.53343 0.57902,0.0308 1.15804,0.27773 1.73704,0.71271 0.57902,0.43498 1.15804,1.0586 1.73703,1.80002 0.57902,0.74139 1.15804,1.60039 1.73704,2.47326 0.57902,0.87291 1.15804,1.75866 1.73703,2.53563 0.57902,0.77698 1.15803,1.44326 1.73702,1.87691 0.57902,0.43367 1.15803,0.63209 1.73705,0.49105 0.57901,-0.14102 1.15802,-0.6245 1.73704,-1.52063 0.57902,-0.8961 1.15801,-2.20797 1.73703,-3.95953 0.57902,-1.75152 1.15802,-3.94558 1.73703,-6.5533 0.57902,-2.60772 1.15801,-5.6313 1.73703,-8.98918 0.57902,-3.3579 1.15801,-7.05138 1.73703,-10.95294 0.57902,-3.90155 1.15802,-8.01141 1.73704,-12.1688 0.57901,-4.15743 1.15803,-8.36145 1.73703,-12.43545 0.57901,-4.07397 1.15803,-8.01581 1.73705,-11.65256 0.57899,-3.63674 1.15801,-6.96535 1.73702,-9.83615 0.579,-2.8708 1.15802,-5.2801 1.73704,-7.118733 0.57899,-1.838648 1.15801,-3.102615 1.73703,-3.735938 0.579,-0.633339 1.15802,-0.632068 1.73704,0 0.57899,0.632052 1.15801,1.898423 1.73703,3.735938 0.57901,1.837503 1.15802,4.248833 1.73702,7.118733 0.57901,2.8699 1.15803,6.20001 1.73703,9.83615 0.57902,3.63615 1.15804,7.57884 1.73703,11.65256 0.57902,4.07375 1.15804,8.27793 1.73704,12.43545 0.57902,4.15749 1.15804,8.26682 1.73703,12.1688 0.57902,3.90197 1.15804,7.59438 1.73704,10.95294 0.57902,3.35854 1.15803,6.38066 1.73703,8.98918 0.57901,2.60855 1.15803,4.80089 1.73704,6.5533 0.57902,1.75243 1.15801,3.06259 1.73703,3.95953 0.57902,0.89694 1.15802,1.37893 1.73704,1.52063 0.57902,0.14163 1.15801,-0.0579 1.73703,-0.49105 0.57902,-0.43317 1.15801,-1.10016 1.73702,-1.87691 0.57902,-0.77676 1.15802,-1.6627 1.73704,-2.53563 0.57902,-0.8729 1.15803,-1.73164 1.73703,-2.47326 0.57902,-0.74165 1.15803,-1.36467 1.73705,-1.80002 0.579,-0.43535 1.15802,-0.68146 1.73703,-0.71271 0.579,-0.0312 1.15802,0.15366 1.73703,0.53343 0.57899,0.37977 1.15801,0.95511 1.73703,1.66093 0.579,0.70581 1.15802,1.54204 1.73704,2.40895 0.57899,0.86693 1.15801,1.76362 1.73703,2.57005 0.57901,0.80642 1.15803,1.52079 1.73704,2.02 0.579,0.49923 1.15802,0.78083 1.73704,0.73689 0.57899,-0.0441 1.15801,-0.41638 1.737,-1.19337 0.57902,-0.77699 1.15804,-1.96163 1.73704,-3.58524 0.57902,-1.62359 1.15804,-3.68901 1.73703,-6.17533 0.57902,-2.4863 1.15804,-5.39582 1.73704,-8.65441 0.57902,-3.25861 1.15804,-6.86775 1.73704,-10.70597 0.57902,-3.8382 1.15802,-7.90588 1.73703,-12.04617 0.57902,-4.14031 1.15804,-8.35242 1.73703,-12.46085 0.57902,-4.10842 1.15804,-8.11122 1.73704,-11.83367 0.57902,-3.72241 1.15801,-7.16153 1.73703,-10.16313 0.57902,-3.00158 1.15802,-5.562 1.73704,-7.565275 0.57902,-2.003245 1.15801,-3.445329 1.73702,-4.261929 0.57902,-0.816585 1.15803,-1.003705 1.73705,-0.5562 0.579,0.44749 1.15801,1.533156 1.73703,3.202261 0.57902,1.66912 1.15802,3.924483 1.73704,6.657773 0.57902,2.73332 1.15801,5.94636 1.73703,9.48963 0.579,3.54329 1.15802,7.41754 1.73702,11.44909 0.579,4.03156 1.15802,8.22002 1.73704,12.38725 0.57901,4.16724 1.15801,8.31186 1.73703,12.27089 0.57901,3.95904 1.15803,7.73037 1.73704,11.1837 0.57901,3.45332 1.15803,6.5861 1.73704,9.31374 0.579,2.72766 1.15802,5.04751 1.73704,6.9279 0.57898,1.8804 1.158,3.31893 1.73702,4.33721 0.579,1.01827 1.15802,1.61446 1.73701,1.85719 0.57902,0.24276 1.15804,0.13091 1.73705,-0.23157 0.57901,-0.36254 1.15803,-0.97614 1.73703,-1.71802 0.57902,-0.7419 1.15803,-1.61162 1.73704,-2.48553 0.57902,-0.87391 1.15803,-1.75092 1.73702,-2.52432 0.57902,-0.77339 1.15804,-1.4417 1.73704,-1.9301 0.57902,-0.4884 1.15804,-0.79539 1.73703,-0.88852 0.57902,-0.0931 1.15802,0.0288 1.73704,0.35157 0.57902,0.32273 1.15802,0.84696 1.73703,1.5136 0.57902,0.66663 1.15803,1.47571 1.73704,2.33186 0.57901,0.85612 1.15801,1.75851 1.73703,2.58899 0.57902,0.83051 1.15802,1.5875 1.73704,2.14717 0.57902,0.55966 1.15801,0.91963 1.73703,0.96865 0.57902,0.049 1.15802,-0.2158 1.73704,-0.87616 0.57902,-0.66034 1.15801,-1.71925 1.73702,-3.21528 0.57901,-1.49601 1.15802,-3.43204 1.73703,-5.79499 0.57901,-2.36296 1.15803,-5.15529 1.73704,-8.31043 0.57901,-3.15514 1.15803,-6.67471 1.73705,-10.44358 0.57899,-3.76888 1.15801,-7.78757 1.73703,-11.9035 0.579,-4.11594 1.15802,-8.32846 1.73703,-12.46364 0.57899,-4.13521 1.15801,-8.19128 1.73703,-11.99213 0.57899,-3.80085 1.15801,-7.34366 1.73703,-10.47001 0.579,-3.12636 1.15802,-5.83272 1.73703,-7.99652 0.57902,-2.163782 1.15802,-3.781028 1.73703,-4.77919 0.57902,-0.998192 1.15804,-1.373274 1.73703,-1.111267 0.57902,0.261993 1.15803,1.164734 1.73703,2.662031 0.57902,1.497312 1.15804,3.592106 1.73703,6.183286 0.57902,2.59119 1.15804,5.68074 1.73704,9.12419 0.57902,3.44347 1.15804,7.2417 1.73703,11.22344 0.57902,3.98175 1.15803,8.14674 1.73705,12.31623 0.57901,4.1695 1.15801,8.34224 1.73702,12.35191 0.57902,4.00966 1.15802,7.85417 1.73704,11.39751 0.57902,3.54335 1.15801,6.78303 1.73703,9.62714 0.57902,2.8441 1.15802,5.29001 1.73704,7.29808 0.57902,2.00805 1.15801,3.57583 1.73703,4.71732 0.57902,1.14151 1.15802,1.85482 1.73703,2.20231 0.57902,0.3475 1.15802,0.32798 1.73703,0.041 0.57901,-0.28698 1.15803,-0.84183 1.73705,-1.54349 0.57899,-0.70166 1.15801,-1.54974 1.73703,-2.41958 0.579,-0.86986 1.15802,-1.76046 1.73704,-2.56161 0.57899,-0.80115 1.15801,-1.51137 1.73703,-2.05047 0.57899,-0.53905 1.15801,-0.90544 1.73702,-1.06002 0.579,-0.15463 1.15802,-0.0961 1.73704,0.16801 0.57901,0.26411 1.15801,0.7347 1.73703,1.35878"
       style="color:#000000;fill:none;stroke:#000000;stroke-width:2;stroke-linecap:butt;stroke-linejoin:miter;stroke-miterlimit:4;stroke-opacity:1;stroke-dasharray:none;stroke-dashoffset:0;marker:none;visibility:visible;display:inline;overflow:visible;enable-background:accumulate" />
    <text
       xml:space="preserve"
       style="font-size:13.27231312px;font-style:normal;font-variant:normal;font-weight:normal;font-stretch:normal;text-align:start;line-height:100%;writing-mode:lr-tb;text-anchor:start;fill:#000000;fill-opacity:1;stroke:none;font-family:Arial;-inkscape-font-specification:Arial"
       x="222.43671"
       y="200.53374"
       id="text10493"
       sodipodi:linespacing="100%"><tspan
         sodipodi:role="line"
         id="tspan10495"
         x="222.43671"
         y="200.53374">Position on screen</tspan></text>
    <text
       sodipodi:linespacing="100%"
       id="text10497"
       y="168.70311"
       x="-75.038879"
       style="font-size:13.27231312px;font-style:normal;font-variant:normal;font-weight:normal;font-stretch:normal;text-align:start;line-height:100%;writing-mode:lr-tb;text-anchor:start;fill:#000000;fill-opacity:1;stroke:none;font-family:Arial;-inkscape-font-specification:Arial"
       xml:space="preserve"
       transform="matrix(0,-1,1,0,0,0)"><tspan
         y="168.70311"
         x="-75.038879"
         id="tspan10499"
         sodipodi:role="line">Intensity</tspan></text>
  </g>
</svg>
